<svg width="395" height="395" viewBox="0 0 395 395" fill="none" xmlns="http://www.w3.org/2000/svg">
<rect width="395" height="395" fill="white"/>
<path fill-rule="evenodd" clip-rule="evenodd" d="M308.091 204.791C308.781 289.808 271.593 351.914 200.496 355.441C148.676 358.011 179.675 276.707 114.73 222.725C73.1592 188.172 45.7213 98.393 148.178 75.1797C250.634 51.9666 307.4 119.774 308.091 204.791Z" fill="url(#paint0_linear)"/>
<path d="M98.2873 328.241C91.8375 316.351 92.8909 301.964 94.2224 288.503C97.2851 257.541 102.001 224.198 123.688 201.889C129.425 195.988 136.426 190.985 144.461 189.209C150.688 187.832 156.686 185.43 162.142 182.129C163.457 174.428 156.211 168.364 151.149 162.413C145.479 155.75 141.943 147.299 141.176 138.584C140.722 133.425 139.639 126.396 134.465 126.176C130.212 125.995 127.01 120.863 128.717 116.964C130.424 113.064 136.367 111.936 139.385 114.938C135.08 98.8005 144.174 80.181 159.548 73.6538C157.041 70.0688 162.512 65.7725 166.857 66.2859C171.201 66.7993 175.406 69.4234 179.671 68.4539C178.21 65.8799 180.552 62.46 183.438 61.8006C186.323 61.1413 189.285 62.3941 191.873 63.8302C208.49 73.0487 219.47 91.6396 219.523 110.642C219.952 107.173 225.157 105.985 227.703 108.38C230.249 110.775 230.128 115.06 228.32 118.052C226.512 121.043 223.431 123.007 220.381 124.714C220.459 137.315 215.666 149.884 207.22 159.235C201.073 166.04 192.365 173.258 194.382 182.203C197.652 181.479 200.959 185.251 199.815 188.398C213.834 187.231 226.916 195.692 236.848 205.654C251.408 220.258 261.873 238.903 266.755 258.939C267.608 262.439 272.587 263.393 275.667 261.525C278.748 259.658 280.331 256.127 281.735 252.81L309.466 187.277C307.678 178.448 309.124 169.324 310.573 160.433L315.38 130.928C315.817 128.25 317.69 124.716 320.163 125.832C321.018 126.218 321.495 127.052 321.796 127.971C321.936 128.397 322.038 128.841 322.122 129.268C323.622 136.833 324.101 144.601 323.543 152.293L333.143 135.872C334.696 133.214 337.915 130.275 340.318 131.374C341.221 131.551 341.833 132.453 341.962 133.372C342.305 134.621 342.015 136.123 341.624 137.419C339.873 143.224 337.018 148.694 333.258 153.45C338.328 155.179 344.2 157.805 345.087 163.087C344.561 172.664 337.502 183.658 332.298 189.366C333.492 188.646 334.273 190.79 334.035 192.164C328.327 225.191 314.417 256.768 293.901 283.271C287.847 291.093 280.816 297.146 269.786 298.237C254.756 299.725 244.9 277.553 236.738 278.147C236.738 278.147 229.1 317.58 223.57 322.847C218.04 328.113 181.7 339.173 170.749 335.487C159.798 331.8 148.845 341.659 134.465 340.671C119.561 339.646 98.2873 328.241 98.2873 328.241Z" fill="white"/>
<path d="M326.674 196.504C326.543 196.33 326.454 196.125 326.417 195.911C326.273 195.103 326.997 194.257 327.818 194.274C328.638 194.29 329.327 195.165 329.151 195.966C328.975 196.768 327.984 197.274 327.232 196.946C327.012 196.85 326.818 196.696 326.674 196.504Z" fill="#00160A"/>
<path d="M192.721 112.179C192.163 112.053 191.891 111.354 192.045 110.803C192.199 110.253 192.653 109.84 193.12 109.51C196.304 107.266 201.147 107.847 203.709 110.78C203.913 111.014 204.114 111.288 204.104 111.598C204.094 111.908 203.754 112.209 203.479 112.065C202.037 111.313 200.566 110.551 198.965 110.26C197.364 109.97 195.583 110.218 194.364 111.296C193.878 111.727 193.354 112.322 192.721 112.179Z" fill="#00160A"/>
<path d="M165.392 112.07C165.218 112.608 164.517 112.805 163.973 112.653C163.428 112.5 162.99 112.108 162.529 111.781C161.011 110.707 159.087 110.297 157.232 110.418C155.376 110.538 153.582 111.159 151.92 111.993C151.54 112.184 151.086 111.74 151.11 111.315C151.133 110.89 151.453 110.544 151.776 110.266C153.504 108.778 155.854 108.098 158.132 108.215C160.41 108.332 162.612 109.207 164.489 110.505C165.022 110.873 165.592 111.454 165.392 112.07Z" fill="black"/>
<path d="M327.457 202.509C327.264 202.767 326.987 202.949 326.707 203.108C326.415 203.273 326.095 203.423 325.761 203.398C325.317 203.363 324.947 203.015 324.764 202.609C324.315 201.61 325.079 200.245 326.173 200.206C327.268 200.168 328.113 201.632 327.457 202.509Z" fill="#00160A"/>
<path d="M230.038 244.15C230.57 244.393 230.191 245.252 229.648 245.472C229.106 245.691 228.423 245.698 228.07 246.164C227.818 246.496 227.829 246.95 227.854 247.366C227.905 248.215 227.958 249.117 227.554 249.865C227.149 250.613 226.094 251.075 225.42 250.557C224.8 250.081 224.855 249.158 224.834 248.377C224.812 247.596 224.42 246.619 223.64 246.655C219.82 246.829 216.001 247.004 212.182 247.178C211.698 247.2 211.147 247.197 210.817 246.842C210.365 246.356 210.671 245.497 211.242 245.158C211.813 244.819 212.521 244.846 213.184 244.885C215.99 245.047 218.797 245.209 221.603 245.371C222.039 245.396 222.496 245.418 222.891 245.23C223.285 245.043 223.582 244.573 223.422 244.167C222.993 243.078 223.563 241.7 224.635 241.231C225.007 241.068 225.176 240.639 225.268 240.243C225.361 239.847 225.427 239.417 225.709 239.124C225.991 238.831 226.582 238.813 226.73 239.191C227.072 240.064 227.907 240.628 228.494 241.359C229.082 242.089 229.353 243.303 228.61 243.875C228.651 244.41 229.55 243.925 230.038 244.15Z" fill="#00160A"/>
<path d="M155.34 145.568C154.807 145.536 154.586 144.682 155.036 144.394C155.602 144.354 155.851 145.324 155.336 145.561L155.34 145.568Z" fill="#FFB61D"/>
<path d="M197.943 132.198C197.79 131.922 197.95 131.524 198.252 131.431C198.553 131.337 198.91 131.576 198.939 131.89C198.856 132.298 198.26 132.484 197.959 132.194L197.943 132.198Z" fill="#FFB61D"/>
<path d="M196.156 126.935C195.931 127.38 195.117 127.256 195.035 126.764C195.199 126.539 195.436 126.368 195.7 126.282C195.925 126.447 196.097 126.682 196.188 126.945L196.156 126.935Z" fill="#FFB61D"/>
<path d="M185.254 146.787C185.588 146.765 185.925 146.966 186.065 147.269C185.953 147.613 185.526 147.851 185.206 147.682C184.886 147.514 184.917 146.923 185.272 146.855L185.254 146.787Z" fill="#FFB61D"/>
<path d="M195.257 147.285C195.422 146.875 196.186 147.031 196.176 147.473C195.946 147.702 195.646 147.861 195.327 147.923C195.07 147.835 195.007 147.43 195.224 147.268L195.257 147.285Z" fill="#FFB61D"/>
<path d="M178.037 128.75C177.7 128.752 177.453 129.185 177.622 129.476C177.792 129.768 178.292 129.765 178.459 129.473C178.626 129.18 178.375 128.749 178.037 128.75Z" fill="#FFB61D"/>
<path d="M157.706 133.888C157.434 133.685 156.972 133.882 156.932 134.219C156.892 134.557 157.294 134.858 157.606 134.724C157.918 134.591 157.978 134.091 157.706 133.888Z" fill="#FFB61D"/>
<path d="M203.144 134.698C202.819 134.804 202.451 134.441 202.548 134.113C202.646 133.786 203.145 133.679 203.372 133.935C203.598 134.19 203.44 134.668 203.106 134.743L203.144 134.698Z" fill="#FFB61D"/>
<path d="M176.101 144.726C175.975 144.41 175.477 144.337 175.267 144.604C175.056 144.87 175.242 145.338 175.578 145.387C175.914 145.436 176.226 145.041 176.101 144.726Z" fill="#FFB61D"/>
<path d="M175.57 153.066C175.333 153.135 175.151 152.848 175.111 152.605C175.344 152.163 176.151 152.287 176.241 152.777C176.099 152.993 175.823 153.112 175.569 153.068L175.57 153.066Z" fill="#FFB61D"/>
<path d="M178.793 152.671C178.427 152.762 177.912 152.583 177.949 152.207C178.167 151.982 178.508 151.82 178.792 151.952C179.077 152.085 179.092 152.608 178.783 152.66L178.793 152.671Z" fill="#FFB61D"/>
<path d="M195.327 152.499C195.175 152.388 195.072 152.214 195.046 152.028C195.204 151.801 195.44 151.629 195.704 151.548C195.86 151.705 196.017 151.863 196.173 152.021C196.001 152.317 195.668 152.514 195.326 152.522L195.327 152.499Z" fill="#FFB61D"/>
<path d="M180.882 129.697C180.615 130.06 179.918 129.883 179.857 129.436C180.084 128.952 180.99 129.168 180.975 129.702L180.882 129.697Z" fill="#FFB61D"/>
<path d="M188.3 147.553C187.997 147.845 187.384 147.54 187.434 147.123C187.483 146.706 188.15 146.553 188.376 146.908C188.21 147.03 188.142 147.271 188.22 147.462L188.3 147.553Z" fill="#FFB61D"/>
<path d="M169.839 128.888C170.164 128.781 170.532 129.145 170.434 129.472C170.337 129.8 169.838 129.906 169.611 129.651C169.384 129.395 169.543 128.917 169.876 128.842L169.839 128.888Z" fill="#FFB61D"/>
<path d="M177.766 139.499C178.084 139.233 178.664 139.464 178.711 139.877C178.493 140.075 178.195 140.238 177.913 140.153C177.631 140.068 177.497 139.621 177.753 139.475L177.766 139.499Z" fill="#FFB61D"/>
<path d="M184.997 142.161C185.215 141.717 186.025 141.834 186.109 142.322C185.867 142.766 185.057 142.647 184.952 142.152L184.997 142.161Z" fill="#FFB61D"/>
<path d="M185.444 144.71C185.667 144.38 186.304 144.594 186.284 144.992C186.139 145.222 185.906 145.394 185.643 145.466C185.381 145.325 185.275 144.956 185.421 144.698L185.444 144.71Z" fill="#FFB61D"/>
<path d="M195.991 129.227C195.783 128.955 195.28 129.021 195.149 129.338C195.018 129.654 195.326 130.057 195.666 130.012C196.005 129.967 196.199 129.499 195.991 129.227Z" fill="#FFB61D"/>
<path d="M190.585 154.414C190.65 154.118 191.171 154.262 191.203 154.563C191.236 154.864 190.992 155.117 190.767 155.321C190.598 155.212 190.417 155.091 190.345 154.902C190.273 154.713 190.381 154.448 190.583 154.443L190.585 154.414Z" fill="#FFB61D"/>
<path d="M165.462 126.678C165.337 126.363 164.839 126.29 164.628 126.556C164.418 126.823 164.604 127.29 164.94 127.34C165.276 127.389 165.588 126.994 165.462 126.678Z" fill="#FFB61D"/>
<path d="M178.393 154.415C178.221 154.142 177.743 154.16 177.593 154.445C177.442 154.731 177.697 155.136 178.019 155.123C178.342 155.111 178.565 154.688 178.393 154.415Z" fill="#FFB61D"/>
<path d="M157.226 144.244C157.408 144.038 157.779 144.288 157.771 144.562C157.763 144.836 157.542 145.05 157.337 145.232C156.896 145.162 156.821 144.406 157.24 144.25L157.226 144.244Z" fill="#FFB61D"/>
<path d="M180.891 150.034C180.704 150.15 180.517 150.266 180.331 150.381C179.989 150.256 179.949 149.688 180.269 149.516C180.59 149.344 181.041 149.69 180.957 150.044L180.891 150.034Z" fill="#FFB61D"/>
<path d="M202.673 144.512C202.569 144.189 203.2 144.085 203.325 144.401C203.449 144.717 203.198 145.058 202.918 145.25C202.641 145.127 202.462 144.815 202.495 144.514L202.673 144.512Z" fill="#FFB61D"/>
<path d="M195.043 144.807C195.248 144.512 195.696 144.42 196 144.612C196.08 145.055 195.519 145.462 195.123 145.249C195.084 145.104 195.045 144.958 195.006 144.813L195.043 144.807Z" fill="#FFB61D"/>
<path d="M164.9 141.806C165.224 141.699 165.593 142.063 165.495 142.39C165.398 142.718 164.898 142.825 164.672 142.569C164.445 142.313 164.603 141.835 164.937 141.761L164.9 141.806Z" fill="#FFB61D"/>
<path d="M200.154 124.479C200.157 124.194 200.454 123.951 200.734 124.004C201.014 124.056 201.203 124.391 201.103 124.658C200.808 124.881 200.336 124.812 200.117 124.513L200.154 124.479Z" fill="#FFB61D"/>
<path d="M192.949 139.485C193.223 139.266 193.712 139.514 193.695 139.865C193.454 140.239 192.812 140.24 192.571 139.866C192.698 139.739 192.824 139.613 192.95 139.487L192.949 139.485Z" fill="#FFB61D"/>
<path d="M161.88 146.984C162.156 146.692 162.705 146.742 162.924 147.079C162.757 147.308 162.539 147.544 162.256 147.557C161.973 147.571 161.705 147.202 161.901 146.997L161.88 146.984Z" fill="#FFB61D"/>
<path d="M203.209 149.934C203.096 150.084 202.923 150.188 202.737 150.217C202.399 150.024 202.4 149.422 202.763 149.282C203.126 149.142 203.518 149.706 203.228 149.964L203.209 149.934Z" fill="#FFB61D"/>
<path d="M157.56 150.087C157.826 149.903 157.786 149.426 157.493 149.288C157.2 149.15 156.807 149.424 156.834 149.746C156.861 150.068 157.295 150.272 157.56 150.087Z" fill="#FFB61D"/>
<path d="M203.06 140.275C202.795 140.546 202.347 139.982 202.604 139.703C202.861 139.424 203.358 139.567 203.587 139.869C203.43 140.026 203.272 140.184 203.114 140.342L203.06 140.275Z" fill="#FFB61D"/>
<path d="M154.609 127.323C154.536 126.862 155.282 126.562 155.549 126.944C155.327 127.235 155.105 127.527 154.883 127.819C154.722 127.706 154.609 127.525 154.58 127.33L154.609 127.323Z" fill="#FFB61D"/>
<path d="M157.466 140.275C157.201 140.546 156.753 139.982 157.01 139.703C157.267 139.424 157.764 139.567 157.994 139.869C157.836 140.026 157.678 140.184 157.52 140.342L157.466 140.275Z" fill="#FFB61D"/>
<path d="M197.93 127.107C197.704 126.891 197.748 126.462 198.014 126.297C198.28 126.131 198.684 126.281 198.778 126.58C198.646 126.882 198.31 127.081 197.982 127.053L197.93 127.107Z" fill="#FFB61D"/>
<path d="M164.468 129.43C164.677 129.056 165.306 129.034 165.54 129.393C165.466 129.918 164.526 129.947 164.421 129.427L164.468 129.43Z" fill="#FFB61D"/>
<path d="M183.6 131.6C183.606 131.867 183.513 132.136 183.344 132.343C183.049 132.509 182.654 132.138 182.756 131.815C182.858 131.492 183.314 131.377 183.595 131.566L183.6 131.6Z" fill="#FFB61D"/>
<path d="M175.853 149.68C175.758 149.375 175.297 149.272 175.081 149.506C174.864 149.741 175.005 150.192 175.316 150.262C175.628 150.332 175.948 149.984 175.853 149.68Z" fill="#FFB61D"/>
<path d="M185.784 152.19C185.922 152.551 185.65 153.004 185.267 153.053C185.014 152.946 184.896 152.602 185.03 152.362C185.163 152.123 185.517 152.042 185.741 152.2L185.784 152.19Z" fill="#FFB61D"/>
<path d="M169.563 154.873C169.563 154.528 169.767 154.189 170.074 154.028C170.295 154.25 170.454 154.592 170.319 154.875C170.183 155.158 169.659 155.166 169.614 154.856L169.563 154.873Z" fill="#FFB61D"/>
<path d="M198.038 151.997C198.304 151.726 198.752 152.289 198.495 152.568C198.238 152.848 197.741 152.705 197.511 152.403C197.669 152.245 197.827 152.088 197.985 151.93L198.038 151.997Z" fill="#FFB61D"/>
<path d="M175.432 129.2C175.697 128.929 176.145 129.492 175.888 129.771C175.631 130.051 175.134 129.908 174.904 129.606C175.062 129.448 175.22 129.291 175.378 129.133L175.432 129.2Z" fill="#FFB61D"/>
<path d="M159.807 145.091C159.613 144.881 159.877 144.511 160.163 144.52C160.449 144.53 160.672 144.765 160.831 145.003C160.606 145.332 160.068 145.382 159.786 145.1L159.807 145.091Z" fill="#FFB61D"/>
<path d="M165.303 136.333C165.574 136.312 165.683 136.736 165.497 136.933C165.311 137.131 165.003 137.14 164.734 137.109C164.488 136.774 164.916 136.222 165.302 136.377L165.303 136.333Z" fill="#FFB61D"/>
<path d="M178.606 160.096C178.324 160.456 177.627 160.271 177.561 159.819C177.802 159.392 178.608 159.608 178.604 160.098L178.606 160.096Z" fill="#FFB61D"/>
<path d="M164.615 145.235C164.464 144.941 164.663 144.521 164.99 144.472C165.317 144.423 165.633 144.798 165.511 145.105C165.389 145.412 164.872 145.448 164.725 145.152L164.615 145.235Z" fill="#FFB61D"/>
<path d="M175.38 155.156C175.142 155.232 174.972 154.929 174.908 154.688C175.151 154.314 175.791 154.311 176.039 154.682C175.877 154.907 175.643 155.079 175.381 155.168L175.38 155.156Z" fill="#FFB61D"/>
<path d="M177.526 134.545C177.617 134.056 178.408 133.917 178.66 134.345C178.542 134.803 177.825 134.942 177.544 134.562L177.526 134.545Z" fill="#FFB61D"/>
<path d="M203.209 142.271C203.114 141.966 202.653 141.863 202.437 142.097C202.221 142.332 202.361 142.783 202.673 142.853C202.984 142.923 203.304 142.575 203.209 142.271Z" fill="#FFB61D"/>
<path d="M181.173 145.187C180.899 145.407 180.411 145.158 180.427 144.807C180.668 144.433 181.31 144.433 181.551 144.807C181.425 144.933 181.298 145.06 181.172 145.186L181.173 145.187Z" fill="#FFB61D"/>
<path d="M175.756 159.343C175.993 159.267 176.164 159.569 176.227 159.81C175.984 160.184 175.344 160.188 175.097 159.817C175.259 159.592 175.492 159.419 175.755 159.331L175.756 159.343Z" fill="#FFB61D"/>
<path d="M206.058 124.099C206.183 124.223 206.307 124.348 206.432 124.472C206.211 124.809 205.641 124.927 205.419 124.591C205.196 124.255 205.821 123.778 206.005 124.136L206.058 124.099Z" fill="#FFB61D"/>
<path d="M195.339 132.346C195.584 132.561 196.041 132.406 196.105 132.087C196.169 131.767 195.806 131.449 195.498 131.554C195.189 131.658 195.095 132.131 195.339 132.346Z" fill="#FFB61D"/>
<path d="M180.14 152.511C180.238 152.283 180.597 152.231 180.756 152.421C180.934 152.709 180.772 153.172 180.436 153.211C180.1 153.249 179.87 152.705 180.165 152.539L180.14 152.511Z" fill="#FFB61D"/>
<path d="M164.928 146.994C165.165 146.919 165.336 147.221 165.399 147.462C165.24 147.689 165.005 147.861 164.741 147.945C164.591 147.827 164.487 147.653 164.455 147.466C164.613 147.307 164.771 147.149 164.929 146.991L164.928 146.994Z" fill="#FFB61D"/>
<path d="M198.813 139.949C198.879 140.392 198.231 140.732 197.904 140.426C197.764 139.983 198.497 139.572 198.745 139.965L198.813 139.949Z" fill="#FFB61D"/>
<path d="M173.093 139.589C173.311 139.722 173.431 139.997 173.381 140.246C173.111 140.351 172.814 140.385 172.527 140.342C172.438 140.203 172.405 140.029 172.434 139.867C172.656 139.772 172.877 139.677 173.098 139.582L173.093 139.589Z" fill="#FFB61D"/>
<path d="M185.649 149.643C185.748 149.846 185.771 150.084 185.714 150.302C185.456 150.527 184.972 150.319 184.957 149.977C184.942 149.635 185.406 149.386 185.683 149.587L185.649 149.643Z" fill="#FFB61D"/>
<path d="M201.295 145.167C200.994 145.44 200.415 145.223 200.37 144.819C200.47 144.585 200.769 144.46 201.005 144.552C201.242 144.645 201.377 144.939 201.293 145.179L201.295 145.167Z" fill="#FFB61D"/>
<path d="M175.85 126.945C176.024 127.062 176.101 127.303 176.028 127.499C175.766 127.747 175.241 127.663 175.151 127.315C175.061 126.967 175.64 126.671 175.816 126.985L175.85 126.945Z" fill="#FFB61D"/>
<path d="M157.639 142.428C157.655 142.108 157.258 141.85 156.973 141.996C156.688 142.141 156.664 142.614 156.932 142.788C157.2 142.963 157.622 142.747 157.639 142.428Z" fill="#FFB61D"/>
<path d="M182.968 140.596C182.654 140.496 182.631 139.975 182.921 139.819C183.212 139.663 183.616 139.915 183.638 140.244C183.502 140.459 183.228 140.577 182.978 140.528L182.968 140.596Z" fill="#FFB61D"/>
<path d="M157.126 129.193C156.915 128.91 157.571 128.667 157.72 128.987C157.869 129.307 157.605 129.669 157.317 129.874C157.109 129.74 156.998 129.47 157.051 129.228L157.126 129.193Z" fill="#FFB61D"/>
<path d="M178.321 149.934C178.208 150.085 178.034 150.189 177.848 150.217C177.697 150.107 177.594 149.934 177.569 149.749C177.72 149.522 177.955 149.352 178.219 149.281C178.478 149.369 178.547 149.774 178.332 149.943L178.321 149.934Z" fill="#FFB61D"/>
<path d="M200.739 150.125C200.518 150.22 200.296 150.315 200.074 150.41C199.923 150.29 199.818 150.115 199.782 149.925C199.978 149.764 200.205 149.599 200.458 149.619C200.712 149.639 200.93 149.963 200.763 150.154L200.739 150.125Z" fill="#FFB61D"/>
<path d="M183.02 151.849C183.236 151.961 183.452 152.073 183.669 152.186C183.433 152.435 183.121 152.61 182.786 152.683C182.635 152.573 182.531 152.4 182.505 152.215C182.617 152.064 182.791 151.96 182.977 151.934L183.02 151.849Z" fill="#FFB61D"/>
<path d="M157.612 152.021C157.786 152.138 157.864 152.38 157.79 152.576C157.529 152.823 157.004 152.74 156.914 152.391C156.824 152.043 157.403 151.747 157.579 152.061L157.612 152.021Z" fill="#FFB61D"/>
<path d="M175.313 142.711C175.389 143.165 176.255 143.02 176.179 142.566C176.103 142.113 175.237 142.258 175.313 142.711Z" fill="#FFB61D"/>
<path d="M185.154 131.244C185.562 131.2 185.906 131.721 185.705 132.079C185.506 132.232 185.184 132.183 185.04 131.977C184.896 131.772 184.96 131.452 185.171 131.317L185.154 131.244Z" fill="#FFB61D"/>
<path d="M154.917 142.306C155.14 142.083 155.565 142.42 155.466 142.719C155.367 143.018 154.954 143.113 154.672 142.971C154.483 142.755 154.598 142.356 154.873 142.273L154.917 142.306Z" fill="#FFB61D"/>
<path d="M175.375 136.918C175.604 136.59 176.241 136.81 176.22 137.21C176.035 137.463 175.679 137.576 175.383 137.476C175.244 137.324 175.238 137.068 175.37 136.911L175.375 136.918Z" fill="#FFB61D"/>
<path d="M198.171 128.946C198.326 129.047 198.428 129.225 198.438 129.41C198.276 129.818 197.518 129.67 197.521 129.231C197.65 129.013 197.926 128.894 198.174 128.949L198.171 128.946Z" fill="#FFB61D"/>
<path d="M162.774 154.825C162.925 155.12 162.726 155.539 162.399 155.588C162.072 155.637 161.756 155.263 161.878 154.955C162 154.648 162.517 154.612 162.664 154.908L162.774 154.825Z" fill="#FFB61D"/>
<path d="M169.678 149.66C169.994 149.626 170.399 149.64 170.519 149.934C170.377 150.161 170.143 150.328 169.883 150.391C169.733 150.309 169.573 150.217 169.504 150.06C169.435 149.904 169.521 149.673 169.692 149.668L169.678 149.66Z" fill="#FFB61D"/>
<path d="M203.114 129.703C203.417 129.598 203.507 129.131 203.264 128.921C203.021 128.711 202.572 128.867 202.511 129.182C202.451 129.498 202.811 129.809 203.114 129.703Z" fill="#FFB61D"/>
<path d="M190.856 131.699C191.194 131.905 190.98 132.553 190.586 132.518C190.361 132.442 190.225 132.168 190.3 131.943C190.376 131.718 190.648 131.581 190.874 131.655L190.856 131.699Z" fill="#FFB61D"/>
<path d="M180.927 154.505C180.839 154.066 180 154.233 180.087 154.672C180.174 155.112 181.014 154.945 180.927 154.505Z" fill="#FFB61D"/>
<path d="M159.38 129.597C159.468 130.037 160.307 129.87 160.22 129.43C160.133 128.99 159.293 129.157 159.38 129.597Z" fill="#FFB61D"/>
<path d="M201.023 152.685C200.817 153.023 200.169 152.809 200.204 152.415C200.281 152.19 200.554 152.054 200.779 152.13C201.005 152.205 201.141 152.478 201.067 152.703L201.023 152.685Z" fill="#FFB61D"/>
<path d="M157.412 126.344C157.74 126.22 158.123 126.622 157.982 126.943C157.692 127.098 157.325 127.099 157.035 126.945C157.073 126.713 157.225 126.502 157.434 126.393L157.412 126.344Z" fill="#FFB61D"/>
<path d="M175.571 132.36C175.416 132.258 175.314 132.081 175.305 131.896C175.467 131.488 176.225 131.636 176.222 132.074C176.092 132.292 175.816 132.412 175.569 132.357L175.571 132.36Z" fill="#FFB61D"/>
<path d="M190.3 147.845C190.154 147.579 190.402 147.198 190.705 147.22C191.007 147.243 191.197 147.652 191.023 147.9C190.848 148.148 190.405 148.112 190.269 147.842L190.3 147.845Z" fill="#FFB61D"/>
<path d="M182.504 134.551C182.606 134.396 182.784 134.294 182.969 134.284C183.376 134.446 183.229 135.204 182.79 135.201C182.572 135.072 182.453 134.796 182.508 134.548L182.504 134.551Z" fill="#FFB61D"/>
<path d="M203.533 126.467C203.555 126.627 203.577 126.787 203.599 126.946C203.305 127.096 202.94 127.097 202.645 126.949C202.634 126.531 203.163 126.208 203.531 126.408L203.533 126.467Z" fill="#FFB61D"/>
<path d="M173.38 157.156C173.181 156.756 172.417 157.137 172.617 157.536C172.816 157.936 173.579 157.556 173.38 157.156Z" fill="#FFB61D"/>
<path d="M191.062 136.816C190.745 136.502 190.146 137.106 190.462 137.42C190.778 137.734 191.378 137.13 191.062 136.816Z" fill="#FFB61D"/>
<path d="M183.259 126.57C183.059 126.17 182.296 126.551 182.495 126.951C182.694 127.35 183.458 126.97 183.259 126.57Z" fill="#FFB61D"/>
<path d="M200.762 147.645C200.569 147.229 199.774 147.598 199.967 148.014C200.16 148.43 200.955 148.061 200.762 147.645Z" fill="#FFB61D"/>
<path d="M156.771 147.556C156.966 147.952 157.724 147.579 157.528 147.182C157.333 146.785 156.575 147.159 156.771 147.556Z" fill="#FFB61D"/>
<path d="M188.198 155.061C188.097 155.216 187.919 155.318 187.734 155.328C187.326 155.166 187.474 154.408 187.913 154.41C188.131 154.54 188.25 154.816 188.195 155.064L188.198 155.061Z" fill="#FFB61D"/>
<path d="M173.468 142.246C173.272 141.85 172.515 142.223 172.71 142.62C172.906 143.017 173.664 142.643 173.468 142.246Z" fill="#FFB61D"/>
<path d="M198.165 134.265C198.406 134.516 198.151 135.022 197.806 134.978C197.556 134.906 197.418 134.579 197.54 134.349C197.662 134.119 198.01 134.051 198.21 134.218L198.165 134.265Z" fill="#FFB61D"/>
<path d="M180.222 160.194C180.096 160.068 179.97 159.942 179.844 159.815C180.079 159.44 180.718 159.433 180.961 159.803C180.84 160.086 180.525 160.274 180.218 160.245L180.222 160.194Z" fill="#FFB61D"/>
<path d="M203.684 132.173C203.558 132.299 203.432 132.425 203.306 132.55C202.93 132.316 202.923 131.677 203.293 131.434C203.576 131.555 203.764 131.87 203.735 132.177L203.684 132.173Z" fill="#FFB61D"/>
<path d="M167.307 131.701C167.408 131.546 167.586 131.444 167.771 131.435C168.179 131.597 168.031 132.355 167.592 132.352C167.374 132.222 167.255 131.946 167.31 131.699L167.307 131.701Z" fill="#FFB61D"/>
<path d="M158.062 132.367C157.827 132.494 157.493 132.372 157.395 132.123C157.297 131.874 157.457 131.557 157.716 131.489C158.062 131.546 158.251 132.025 158.037 132.303L158.062 132.367Z" fill="#FFB61D"/>
<path d="M188.227 134.737C188.225 134.295 187.381 134.298 187.382 134.741C187.384 135.183 188.229 135.18 188.227 134.737Z" fill="#FFB61D"/>
<path d="M183.449 149.937C183.249 149.537 182.486 149.918 182.685 150.317C182.884 150.717 183.648 150.337 183.449 149.937Z" fill="#FFB61D"/>
<path d="M204.974 129.597C205.061 130.037 205.901 129.87 205.814 129.43C205.726 128.99 204.887 129.157 204.974 129.597Z" fill="#FFB61D"/>
<path d="M179.927 142.233C180.206 141.941 180.757 141.994 180.975 142.334C180.819 142.56 180.585 142.731 180.322 142.81C180.124 142.681 179.973 142.478 179.907 142.251L179.927 142.233Z" fill="#FFB61D"/>
<path d="M197.567 142.182C197.877 141.997 198.341 142.193 198.424 142.544C198.245 142.79 197.896 142.897 197.61 142.794C197.471 142.643 197.465 142.388 197.596 142.232L197.567 142.182Z" fill="#FFB61D"/>
<path d="M180.259 139.665C180.147 139.461 180.4 139.209 180.631 139.241C180.861 139.273 181.028 139.475 181.14 139.679C180.966 140.036 180.362 140.049 180.173 139.699L180.259 139.665Z" fill="#FFB61D"/>
<path d="M205.395 144.716C205.601 144.378 206.249 144.592 206.214 144.986C206.137 145.211 205.864 145.346 205.639 145.271C205.413 145.196 205.276 144.923 205.351 144.697L205.395 144.716Z" fill="#FFB61D"/>
<path d="M177.848 142.06C178.114 141.914 178.495 142.163 178.472 142.465C178.45 142.767 178.041 142.957 177.793 142.783C177.545 142.609 177.58 142.165 177.851 142.029L177.848 142.06Z" fill="#FFB61D"/>
<path d="M180.037 147.278C180.197 147.142 180.454 147.138 180.618 147.27C180.632 147.611 180.43 147.952 180.124 148.102C179.819 147.96 179.763 147.473 180.027 147.265L180.037 147.278Z" fill="#FFB61D"/>
<path d="M202.438 147.667C202.754 147.981 203.354 147.377 203.038 147.063C202.722 146.749 202.122 147.353 202.438 147.667Z" fill="#FFB61D"/>
<path d="M173.179 132.47C172.818 132.169 173.241 131.449 173.679 131.618C173.877 131.956 173.583 132.46 173.192 132.454L173.179 132.47Z" fill="#FFB61D"/>
<path d="M173.278 129.328C173.082 128.931 172.325 129.305 172.52 129.702C172.716 130.098 173.474 129.725 173.278 129.328Z" fill="#FFB61D"/>
<path d="M154.482 129.892C154.331 129.781 154.228 129.607 154.202 129.421C154.357 129.197 154.589 129.027 154.849 128.945C155.113 129.264 154.893 129.839 154.484 129.9L154.482 129.892Z" fill="#FFB61D"/>
<path d="M197.805 150.461C197.507 150.46 197.279 150.085 197.421 149.822C197.563 149.559 198.007 149.546 198.16 149.803C198.312 150.06 198.083 150.447 197.784 150.431L197.805 150.461Z" fill="#FFB61D"/>
<path d="M202.933 124.165C203.2 124.252 203.435 124.434 203.586 124.672C203.373 124.982 202.891 125.064 202.587 124.842C202.674 124.616 202.761 124.391 202.848 124.165L202.933 124.165Z" fill="#FFB61D"/>
<path d="M177.848 147.277C177.852 147.014 178.133 146.794 178.389 146.852C178.645 146.91 178.803 147.229 178.694 147.468C178.398 147.67 177.942 147.572 177.754 147.268L177.848 147.277Z" fill="#FFB61D"/>
<path d="M182.454 137.232C182.315 136.966 182.535 136.59 182.834 136.581C183.134 136.572 183.376 136.935 183.252 137.208C183.031 137.356 182.72 137.357 182.498 137.21L182.454 137.232Z" fill="#FFB61D"/>
<path d="M162.698 126.863C162.606 127.22 162.091 127.377 161.815 127.132C161.712 126.912 161.824 126.611 162.052 126.528C162.281 126.445 162.569 126.62 162.586 126.862L162.698 126.863Z" fill="#FFB61D"/>
<path d="M159.195 142.639C159.11 142.42 159.235 142.142 159.456 142.06C159.677 141.978 159.952 142.106 160.031 142.329C159.96 142.677 159.492 142.87 159.195 142.674L159.195 142.639Z" fill="#FFB61D"/>
<path d="M167.4 147.75C167.249 147.635 167.145 147.462 167.115 147.276C167.271 147.121 167.428 146.966 167.585 146.811C167.99 146.985 167.841 147.737 167.4 147.744L167.4 147.75Z" fill="#FFB61D"/>
<path d="M159.796 150.383C159.495 150.493 159.24 150.003 159.461 149.772C159.683 149.541 160.116 149.658 160.27 149.938C160.113 150.096 159.957 150.253 159.8 150.41L159.796 150.383Z" fill="#FFB61D"/>
<path d="M159.42 127.424C159.198 127.152 159.448 126.662 159.798 126.681C160.017 126.811 160.137 127.087 160.084 127.335C159.881 127.435 159.643 127.464 159.421 127.416L159.42 127.424Z" fill="#FFB61D"/>
<path d="M195.887 139.773C196.155 139.846 196.044 140.31 195.772 140.37C195.501 140.43 195.241 140.245 195.028 140.066C195.218 139.807 195.582 139.691 195.887 139.792L195.887 139.773Z" fill="#FFB61D"/>
<path d="M200.414 140.02C200.267 139.911 200.119 139.803 199.971 139.695C200.204 139.305 200.865 139.293 201.111 139.674C200.979 139.891 200.703 140.009 200.455 139.957L200.414 140.02Z" fill="#FFB61D"/>
<path d="M204.966 127.3C204.8 127.068 205.02 126.687 205.306 126.697C205.592 126.708 205.789 127.073 205.658 127.327C205.443 127.478 205.134 127.479 204.917 127.331L204.966 127.3Z" fill="#FFB61D"/>
<path d="M188.202 142.717C187.929 142.938 187.44 142.689 187.458 142.338C187.548 142.181 187.726 142.077 187.908 142.076C188.164 142.167 188.324 142.468 188.257 142.731L188.202 142.717Z" fill="#FFB61D"/>
<path d="M165.164 151.682C165.313 151.795 165.462 151.908 165.61 152.021C165.369 152.252 165.064 152.418 164.738 152.494C164.515 152.226 164.771 151.735 165.119 151.765L165.164 151.682Z" fill="#FFB61D"/>
<path d="M162.742 131.699C162.542 131.3 161.779 131.68 161.978 132.08C162.177 132.48 162.941 132.099 162.742 131.699Z" fill="#FFB61D"/>
<path d="M159.326 152.216C159.44 152.065 159.613 151.961 159.8 151.932C159.95 152.046 160.054 152.219 160.084 152.405C159.927 152.562 159.769 152.72 159.611 152.878C159.397 152.74 159.28 152.466 159.329 152.216L159.326 152.216Z" fill="#FFB61D"/>
<path d="M177.577 127.126C177.842 127.452 178.463 126.945 178.198 126.62C177.933 126.295 177.312 126.801 177.577 127.126Z" fill="#FFB61D"/>
<path d="M200.165 137.213C200.142 136.776 200.894 136.602 201.065 137.004C201.01 137.405 200.379 137.556 200.148 137.224L200.165 137.213Z" fill="#FFB61D"/>
<path d="M205.396 142.623C205.241 142.918 204.676 142.654 204.802 142.345C204.833 142.106 205.134 141.948 205.349 142.057C205.565 142.166 205.614 142.503 205.44 142.669L205.396 142.623Z" fill="#FFB61D"/>
<path d="M180.693 134.615C180.392 134.725 180.137 134.235 180.359 134.004C180.58 133.773 181.013 133.89 181.167 134.171C181.01 134.328 180.854 134.485 180.697 134.642L180.693 134.615Z" fill="#FFB61D"/>
<path d="M162.467 151.968C162.671 151.851 162.927 152.106 162.895 152.338C162.863 152.571 162.658 152.738 162.454 152.853C162.111 152.686 162.125 152.092 162.475 151.942L162.467 151.968Z" fill="#FFB61D"/>
<path d="M169.782 127.523C169.686 127.122 170.202 126.659 170.501 126.944C170.482 127.17 170.455 127.415 170.296 127.577C170.138 127.74 169.801 127.728 169.737 127.51L169.782 127.523Z" fill="#FFB61D"/>
<path d="M188.586 156.959C188.609 157.395 187.856 157.569 187.685 157.167C187.74 156.767 188.371 156.615 188.602 156.947L188.586 156.959Z" fill="#FFB61D"/>
<path d="M167.683 152.018C167.249 152.077 167.363 152.905 167.796 152.846C168.23 152.786 168.116 151.958 167.683 152.018Z" fill="#FFB61D"/>
<path d="M187.72 151.936C188.096 152.176 188.101 152.818 187.729 153.065C187.355 152.82 187.353 152.177 187.727 151.931L187.72 151.936Z" fill="#FFB61D"/>
<path d="M170.339 134.545C170.039 134.748 169.579 134.652 169.385 134.346C169.583 134.186 169.81 134.021 170.063 134.041C170.317 134.062 170.535 134.387 170.366 134.577L170.339 134.545Z" fill="#FFB61D"/>
<path d="M178.23 157.63C178.075 157.925 177.509 157.662 177.636 157.353C177.667 157.114 177.968 156.956 178.183 157.065C178.398 157.174 178.448 157.511 178.273 157.677L178.23 157.63Z" fill="#FFB61D"/>
<path d="M155.046 137.464C154.746 137.574 154.49 137.084 154.712 136.854C154.934 136.623 155.366 136.74 155.521 137.02C155.364 137.177 155.207 137.335 155.051 137.492L155.046 137.464Z" fill="#FFB61D"/>
<path d="M196.088 124.765C195.933 125.06 195.367 124.797 195.493 124.488C195.525 124.249 195.826 124.09 196.041 124.2C196.256 124.309 196.305 124.645 196.131 124.812L196.088 124.765Z" fill="#FFB61D"/>
<path d="M185.325 129.239C185.441 129.539 185.323 129.911 185.057 130.091C184.883 129.875 184.697 129.618 184.756 129.347C184.815 129.076 185.283 128.968 185.348 129.238L185.325 129.239Z" fill="#FFB61D"/>
<path d="M178.228 144.71C178.449 144.983 178.2 145.472 177.85 145.454C177.692 145.364 177.588 145.186 177.587 145.004C177.678 144.748 177.979 144.588 178.242 144.655L178.228 144.71Z" fill="#FFB61D"/>
<path d="M180.163 127.236C180.137 127.649 180.927 127.699 180.953 127.285C180.979 126.871 180.189 126.822 180.163 127.236Z" fill="#FFB61D"/>
<path d="M193.234 134.073C193.385 134.184 193.489 134.359 193.514 134.545C193.379 134.76 193.105 134.879 192.856 134.83C192.631 134.562 192.886 134.068 193.235 134.097L193.234 134.073Z" fill="#FFB61D"/>
<path d="M183.071 159.813C182.957 159.964 182.783 160.068 182.597 160.096C182.446 159.983 182.342 159.81 182.314 159.624C182.458 159.452 182.664 159.297 182.886 159.331C183.107 159.365 183.253 159.691 183.072 159.823L183.071 159.813Z" fill="#FFB61D"/>
<path d="M200.926 134.352C200.734 134.649 200.287 134.744 199.99 134.549C199.855 134.347 200.069 134.055 200.312 134.037C200.555 134.019 200.774 134.18 200.94 134.359L200.926 134.352Z" fill="#FFB61D"/>
<path d="M164.696 132.23C164.511 132.007 164.724 131.607 165.013 131.619C165.303 131.631 165.489 132.018 165.332 132.261C165.175 132.505 164.769 132.511 164.589 132.284L164.696 132.23Z" fill="#FFB61D"/>
<path d="M173.181 154.876C173.237 155.026 173.205 155.206 173.1 155.328C172.808 155.464 172.397 155.189 172.47 154.875C172.542 154.562 173.121 154.572 173.137 154.894L173.181 154.876Z" fill="#FFB61D"/>
<path d="M197.991 147.533C197.779 147.514 197.764 147.167 197.939 147.046C198.114 146.925 198.35 146.965 198.558 147.01C198.657 147.142 198.692 147.32 198.651 147.479C198.445 147.576 198.208 147.603 197.986 147.554L197.991 147.533Z" fill="#FFB61D"/>
<path d="M177.847 131.603C178.038 131.603 178.228 131.602 178.418 131.602C178.508 131.743 178.541 131.918 178.511 132.081C178.297 132.167 178.05 132.251 177.845 132.146C177.64 132.041 177.626 131.655 177.855 131.629L177.847 131.603Z" fill="#FFB61D"/>
<path d="M188.616 131.816C188.468 131.428 187.728 131.711 187.876 132.099C188.024 132.486 188.764 132.203 188.616 131.816Z" fill="#FFB61D"/>
<path d="M200.18 132.461C200.132 132.246 200.178 131.991 200.359 131.867C200.541 131.743 200.855 131.855 200.855 132.075C200.821 132.266 200.776 132.476 200.621 132.592C200.465 132.709 200.174 132.628 200.182 132.434L200.18 132.461Z" fill="#FFB61D"/>
<path d="M155.089 132.642C154.79 132.743 154.453 132.387 154.57 132.094C154.687 131.802 155.177 131.776 155.324 132.055C155.232 132.22 155.14 132.385 155.048 132.55L155.089 132.642Z" fill="#FFB61D"/>
<path d="M166.924 157.538C166.893 157.188 167.388 156.931 167.656 157.158C167.771 157.35 167.692 157.633 167.493 157.737C167.294 157.841 167.017 157.745 166.925 157.54L166.924 157.538Z" fill="#FFB61D"/>
<path d="M190.901 145.23C191.204 144.951 190.672 144.371 190.369 144.65C190.065 144.928 190.597 145.508 190.901 145.23Z" fill="#FFB61D"/>
<path d="M175.756 148.109C175.495 148.193 175.23 147.856 175.341 147.605C175.452 147.354 175.825 147.292 176.04 147.464C176.104 147.712 175.979 147.997 175.752 148.118L175.756 148.109Z" fill="#FFB61D"/>
<path d="M192.73 125.27C192.444 124.991 192.87 124.413 193.221 124.604C193.495 124.874 193.088 125.431 192.747 125.251L192.73 125.27Z" fill="#FFB61D"/>
<path d="M175.947 134.443C175.628 134.479 175.221 134.458 175.1 134.16C175.291 133.912 175.645 133.802 175.944 133.898C176.082 134.05 176.087 134.305 175.956 134.463L175.947 134.443Z" fill="#FFB61D"/>
<path d="M190.278 129.198C190.6 129.064 190.988 129.47 190.839 129.786C190.687 129.947 190.4 129.948 190.246 129.79C190.092 129.632 190.102 129.344 190.267 129.197L190.278 129.198Z" fill="#FFB61D"/>
<path d="M187.632 126.759C187.746 126.609 187.919 126.505 188.106 126.476C188.257 126.589 188.36 126.762 188.389 126.948C188.276 127.099 188.102 127.203 187.916 127.231C187.765 127.119 187.661 126.944 187.635 126.758L187.632 126.759Z" fill="#FFB61D"/>
<path d="M175.918 139.901C175.715 140.248 175.111 140.229 174.93 139.869C175.103 139.509 175.71 139.492 175.902 139.842L175.918 139.901Z" fill="#FFB61D"/>
<path d="M162.454 149.636C162.658 149.609 162.812 149.868 162.746 150.062C162.679 150.257 162.472 150.372 162.269 150.408C162.119 150.295 162.015 150.121 161.987 149.935C162.099 149.784 162.274 149.68 162.46 149.654L162.454 149.636Z" fill="#FFB61D"/>
<path d="M183.406 154.959C183.414 155.108 183.423 155.256 183.432 155.404C183.248 155.667 182.744 155.525 182.724 155.206C182.704 154.886 183.187 154.683 183.401 154.92L183.406 154.959Z" fill="#FFB61D"/>
<path d="M193.234 146.991C193.385 147.105 193.489 147.279 193.518 147.465C193.405 147.616 193.232 147.72 193.045 147.748C192.895 147.635 192.791 147.462 192.763 147.276C192.875 147.124 193.05 147.021 193.236 146.994L193.234 146.991Z" fill="#FFB61D"/>
<path d="M169.793 157.724C169.723 157.513 169.782 157.25 169.97 157.133C170.158 157.016 170.459 157.12 170.491 157.339C170.411 157.503 170.33 157.668 170.25 157.832C170.089 157.813 169.929 157.795 169.768 157.776L169.793 157.724Z" fill="#FFB61D"/>
<path d="M183.469 129.609C183.49 129.863 183.219 130.097 182.971 130.037C182.722 129.977 182.587 129.645 182.723 129.429C182.931 129.229 183.341 129.342 183.417 129.621L183.469 129.609Z" fill="#FFB61D"/>
<path d="M162.063 144.89C162.253 144.614 162.791 144.853 162.714 145.178C162.634 145.342 162.456 145.453 162.274 145.453C162.064 145.373 161.961 145.092 162.068 144.894L162.063 144.89Z" fill="#FFB61D"/>
<path d="M200.471 128.939C200.703 129.301 200.246 129.849 199.849 129.685C199.794 129.328 200.095 128.958 200.455 128.939L200.471 128.939Z" fill="#FFB61D"/>
<path d="M159.317 137.019C159.306 136.664 159.795 136.413 160.077 136.63C160.224 137.023 159.549 137.375 159.311 137.029L159.317 137.019Z" fill="#FFB61D"/>
<path d="M205.011 136.729C205.14 136.56 205.38 136.485 205.583 136.55C205.676 136.682 205.71 136.854 205.672 137.01C205.516 137.102 205.359 137.193 205.203 137.285C204.996 137.2 204.896 136.921 205.002 136.724L205.011 136.729Z" fill="#FFB61D"/>
<path d="M185.553 126.742C185.828 126.931 185.59 127.469 185.264 127.392C185.1 127.313 184.989 127.135 184.989 126.953C185.07 126.743 185.351 126.639 185.548 126.747L185.553 126.742Z" fill="#FFB61D"/>
<path d="M162.566 129.402C162.841 129.591 162.603 130.129 162.277 130.052C162.113 129.972 162.002 129.795 162.002 129.612C162.083 129.402 162.364 129.299 162.561 129.407L162.566 129.402Z" fill="#FFB61D"/>
<path d="M185.918 136.636C185.713 136.932 185.265 137.022 184.962 136.83C184.956 136.382 185.732 136.23 185.897 136.647L185.918 136.636Z" fill="#FFB61D"/>
<path d="M169.585 147.656C169.698 147.506 169.872 147.402 170.058 147.373C170.209 147.486 170.313 147.659 170.341 147.846C170.228 147.996 170.055 148.1 169.869 148.128C169.717 148.016 169.614 147.841 169.587 147.655L169.585 147.656Z" fill="#FFB61D"/>
<path d="M173.382 134.736C173.269 134.887 173.095 134.991 172.908 135.02C172.758 134.907 172.654 134.733 172.626 134.547C172.738 134.397 172.912 134.293 173.098 134.265C173.249 134.377 173.353 134.552 173.379 134.738L173.382 134.736Z" fill="#FFB61D"/>
<path d="M200.19 142.539C200.34 142.191 200.928 142.178 201.094 142.518C200.925 142.882 200.314 142.903 200.121 142.551L200.19 142.539Z" fill="#FFB61D"/>
<path d="M185.535 159.803C185.377 159.899 185.22 159.995 185.062 160.091C184.913 159.982 184.811 159.809 184.788 159.626C184.924 159.41 185.198 159.292 185.448 159.34C185.539 159.478 185.571 159.652 185.535 159.813L185.535 159.803Z" fill="#FFB61D"/>
<path d="M185.162 154.686C185.074 154.474 185.419 154.37 185.646 154.403C185.745 154.607 185.773 154.844 185.725 155.065C185.589 155.156 185.415 155.19 185.255 155.157C185.164 155.02 185.132 154.846 185.168 154.686L185.162 154.686Z" fill="#FFB61D"/>
<path d="M169.585 132.269C169.698 132.118 169.872 132.014 170.058 131.985C170.209 132.098 170.313 132.271 170.341 132.458C170.228 132.608 170.055 132.712 169.869 132.74C169.717 132.628 169.614 132.453 169.587 132.267L169.585 132.269Z" fill="#FFB61D"/>
<path d="M195.513 136.733C195.722 136.64 195.83 136.987 195.796 137.214C195.592 137.313 195.356 137.343 195.134 137.298C195.044 137.16 195.01 136.987 195.042 136.826C195.179 136.735 195.354 136.703 195.514 136.738L195.513 136.733Z" fill="#FFB61D"/>
<path d="M162.735 134.55C162.782 134.708 162.752 134.888 162.656 135.022C162.491 135.061 162.311 135.027 162.172 134.931C162.174 134.74 162.175 134.55 162.177 134.359C162.337 134.153 162.741 134.287 162.746 134.548L162.735 134.55Z" fill="#FFB61D"/>
<path d="M170.455 142.822C170.266 143.098 169.728 142.859 169.805 142.534C169.884 142.37 170.062 142.259 170.244 142.259C170.454 142.339 170.558 142.621 170.45 142.818L170.455 142.822Z" fill="#FFB61D"/>
<path d="M165.396 134.003C165.581 134.044 165.649 134.327 165.503 134.447C165.187 134.479 164.784 134.463 164.664 134.169C164.796 133.907 165.168 133.802 165.418 133.956L165.396 134.003Z" fill="#FFB61D"/>
<path d="M175.757 157.25C175.908 157.364 176.012 157.537 176.04 157.724C175.928 157.875 175.754 157.978 175.568 158.007C175.417 157.894 175.313 157.72 175.285 157.534C175.398 157.383 175.572 157.279 175.759 157.253L175.757 157.25Z" fill="#FFB61D"/>
<path d="M182.5 142.142C182.741 141.966 183.133 142.072 183.252 142.345C183.06 142.593 182.707 142.702 182.409 142.606C182.281 142.478 182.34 142.222 182.511 142.162L182.5 142.142Z" fill="#FFB61D"/>
<path d="M167.795 140.353C167.606 140.628 167.068 140.39 167.145 140.064C167.225 139.9 167.403 139.789 167.585 139.789C167.795 139.87 167.898 140.151 167.79 140.348L167.795 140.353Z" fill="#FFB61D"/>
<path d="M182.986 147.174C182.78 146.857 182.174 147.252 182.38 147.569C182.587 147.886 183.193 147.492 182.986 147.174Z" fill="#FFB61D"/>
<path d="M162.686 142.433C162.645 142.831 161.953 142.903 161.83 142.523C161.966 142.217 162.456 142.161 162.658 142.428L162.686 142.433Z" fill="#FFB61D"/>
<path d="M180.329 157.79C179.919 157.635 180.066 156.871 180.505 156.88C180.708 157.173 180.615 157.627 180.314 157.818L180.329 157.79Z" fill="#FFB61D"/>
<path d="M159.951 134.51C159.806 134.404 159.661 134.298 159.516 134.192C159.667 133.827 160.286 133.814 160.453 134.172C160.345 134.323 160.173 134.425 159.989 134.448L159.951 134.51Z" fill="#FFB61D"/>
<path d="M187.819 149.551C188.098 149.741 188.044 150.246 187.732 150.373C187.355 150.248 187.423 149.563 187.817 149.515L187.819 149.551Z" fill="#FFB61D"/>
<path d="M200.255 127.43C200.461 127.747 201.067 127.352 200.861 127.035C200.654 126.718 200.048 127.112 200.255 127.43Z" fill="#FFB61D"/>
<path d="M182.522 156.976C182.674 156.628 183.266 156.617 183.43 156.96C183.27 157.308 182.673 157.304 182.517 156.955L182.522 156.976Z" fill="#FFB61D"/>
<path d="M172.755 126.909C172.861 126.764 172.967 126.619 173.073 126.474C173.438 126.625 173.452 127.245 173.094 127.411C172.943 127.304 172.84 127.131 172.818 126.947L172.755 126.909Z" fill="#FFB61D"/>
<path d="M195.527 134.428C195.284 134.389 195.315 133.971 195.546 133.888C195.777 133.805 196.03 133.966 196.172 134.167C196.038 134.382 195.764 134.499 195.516 134.448L195.527 134.428Z" fill="#FFB61D"/>
<path d="M192.781 142.346C192.901 142.078 193.282 141.968 193.527 142.132C193.601 142.34 193.466 142.596 193.254 142.653C193.041 142.711 192.796 142.556 192.756 142.339L192.781 142.346Z" fill="#FFB61D"/>
<path d="M170.237 139.416C170.479 139.455 170.449 139.873 170.218 139.956C169.987 140.039 169.734 139.878 169.592 139.677C169.725 139.462 170 139.345 170.248 139.396L170.237 139.416Z" fill="#FFB61D"/>
<path d="M190.376 142.817C190.583 143.134 191.189 142.74 190.982 142.423C190.776 142.106 190.17 142.5 190.376 142.817Z" fill="#FFB61D"/>
<path d="M173.579 152.604C173.896 152.398 173.502 151.792 173.185 151.999C172.868 152.205 173.262 152.811 173.579 152.604Z" fill="#FFB61D"/>
<path d="M197.945 137.36C197.8 137.254 197.656 137.148 197.511 137.042C197.661 136.677 198.281 136.663 198.447 137.021C198.34 137.172 198.167 137.275 197.983 137.297L197.945 137.36Z" fill="#FFB61D"/>
<path d="M195.97 142.324C195.818 142.673 195.226 142.683 195.062 142.341C195.222 141.993 195.819 141.996 195.975 142.346L195.97 142.324Z" fill="#FFB61D"/>
<path d="M203.379 137.005C203.227 137.353 202.635 137.364 202.471 137.021C202.631 136.674 203.228 136.677 203.384 137.027L203.379 137.005Z" fill="#FFB61D"/>
<path d="M166.848 150.089C166.952 149.872 167.056 149.655 167.16 149.438C167.367 149.579 167.554 149.816 167.495 150.06C167.436 150.304 167.006 150.373 166.956 150.127L166.848 150.089Z" fill="#FFB61D"/>
<path d="M205.738 134.528C205.521 134.424 205.303 134.32 205.086 134.217C205.228 134.01 205.465 133.822 205.708 133.881C205.952 133.94 206.022 134.37 205.776 134.42L205.738 134.528Z" fill="#FFB61D"/>
<path d="M192.859 151.939C193.026 151.894 193.213 151.926 193.354 152.025C193.279 152.295 193.097 152.533 192.856 152.676C192.561 152.566 192.566 152.055 192.863 151.951L192.859 151.939Z" fill="#FFB61D"/>
<path d="M154.66 139.901C154.541 139.469 155.373 139.251 155.481 139.686C155.361 139.946 154.987 140.046 154.753 139.881L154.66 139.901Z" fill="#FFB61D"/>
<path d="M154.682 134.618C154.44 134.579 154.47 134.161 154.702 134.078C154.933 133.995 155.185 134.156 155.328 134.357C155.194 134.572 154.92 134.689 154.671 134.638L154.682 134.618Z" fill="#FFB61D"/>
<path d="M190.876 149.554C190.866 149.745 190.747 149.926 190.576 150.012C190.226 149.851 190.23 149.25 190.582 149.093C190.732 149.201 190.834 149.374 190.856 149.557L190.876 149.554Z" fill="#FFB61D"/>
<path d="M159.804 148.161C159.517 148.164 159.473 147.748 159.531 147.467C159.675 147.323 159.936 147.322 160.082 147.464C160.146 147.713 160.021 147.997 159.794 148.119L159.804 148.161Z" fill="#FFB61D"/>
<path d="M193.495 149.942C193.402 149.57 192.693 149.748 192.785 150.119C192.878 150.491 193.588 150.313 193.495 149.942Z" fill="#FFB61D"/>
<path d="M193.127 129.965C192.922 130.08 192.7 129.747 192.82 129.545C192.94 129.343 193.215 129.299 193.449 129.319C193.544 129.567 193.384 129.88 193.128 129.948L193.127 129.965Z" fill="#FFB61D"/>
<path d="M185.435 134.097C185.677 134.136 185.647 134.554 185.416 134.637C185.184 134.72 184.932 134.558 184.789 134.358C184.923 134.143 185.198 134.025 185.446 134.077L185.435 134.097Z" fill="#FFB61D"/>
<path d="M157.721 136.793C157.84 137.225 157.008 137.442 156.9 137.008C157.02 136.748 157.394 136.648 157.628 136.812L157.721 136.793Z" fill="#FFB61D"/>
<path d="M170.432 144.712C170.624 144.925 170.527 145.321 170.259 145.421C169.835 145.325 170.042 144.512 170.46 144.63L170.432 144.712Z" fill="#FFB61D"/>
<path d="M178.074 136.537C178.1 136.698 178.126 136.86 178.152 137.021C177.911 137.202 177.514 137.099 177.39 136.824C177.518 136.609 177.793 136.492 178.037 136.549L178.074 136.537Z" fill="#FFB61D"/>
<path d="M164.841 155.255C164.45 155.348 164.394 154.632 164.735 154.418C165.043 154.561 165.105 155.05 164.842 155.265L164.841 155.255Z" fill="#FFB61D"/>
<path d="M173.467 159.743C173.709 159.782 173.679 160.201 173.447 160.284C173.216 160.366 172.963 160.205 172.821 160.004C172.955 159.789 173.229 159.672 173.477 159.724L173.467 159.743Z" fill="#FFB61D"/>
<path d="M193.131 136.64C193.177 136.797 193.148 136.976 193.053 137.11C192.804 137.168 192.517 137.056 192.398 136.829C192.531 136.567 192.903 136.462 193.154 136.616L193.131 136.64Z" fill="#FFB61D"/>
<path d="M192.382 126.951C192.488 126.797 192.665 126.695 192.851 126.679C193.141 126.798 193.143 127.297 192.854 127.419C192.696 127.262 192.538 127.105 192.38 126.948L192.382 126.951Z" fill="#FFB61D"/>
<path d="M162.364 137.011C162.151 137.203 161.755 137.106 161.654 136.837C161.751 136.414 162.563 136.62 162.446 137.039L162.364 137.011Z" fill="#FFB61D"/>
<path d="M183.367 144.962C183.486 145.394 182.654 145.611 182.546 145.177C182.667 144.917 183.04 144.816 183.274 144.981L183.367 144.962Z" fill="#FFB61D"/>
<path d="M187.43 129.207C187.636 129.109 187.913 129.212 188.006 129.42C187.85 129.575 187.695 129.73 187.539 129.885C187.283 129.789 187.219 129.389 187.432 129.218L187.43 129.207Z" fill="#FFB61D"/>
<path d="M190.088 127.35C189.899 127.218 189.896 126.894 190.083 126.759C190.269 126.624 190.576 126.729 190.642 126.949C190.533 127.155 190.328 127.309 190.099 127.356L190.088 127.35Z" fill="#FFB61D"/>
<path d="M190.7 152.405C190.68 152.669 190.277 152.796 190.11 152.59C190.024 152.341 190.184 152.059 190.409 151.921C190.506 152.076 190.603 152.232 190.7 152.387L190.7 152.405Z" fill="#FFB61D"/>
<path d="M208.05 132.163C207.893 132.21 207.714 132.18 207.58 132.086C207.523 131.837 207.634 131.549 207.861 131.431C208.123 131.564 208.228 131.936 208.075 132.186L208.05 132.163Z" fill="#FFB61D"/>
<path d="M180.125 132.175C179.946 131.939 180.049 131.547 180.321 131.43C180.535 131.561 180.652 131.834 180.599 132.08C180.462 132.17 180.288 132.202 180.128 132.167L180.125 132.175Z" fill="#FFB61D"/>
<path d="M192.702 131.848C192.809 131.702 192.917 131.555 193.024 131.409C193.257 131.528 193.388 131.818 193.323 132.072C193.169 132.282 192.76 132.147 192.761 131.887L192.702 131.848Z" fill="#FFB61D"/>
<path d="M195.703 155.162C195.524 154.926 195.627 154.534 195.898 154.417C196.113 154.548 196.23 154.821 196.177 155.067C196.04 155.157 195.866 155.189 195.706 155.153L195.703 155.162Z" fill="#FFB61D"/>
<path d="M167.208 137.12C167.086 136.953 167.155 136.682 167.341 136.593C167.527 136.504 167.781 136.62 167.835 136.82C167.758 137.079 167.449 137.243 167.191 137.162L167.208 137.12Z" fill="#FFB61D"/>
<path d="M164.965 156.604C165.181 156.707 165.397 156.81 165.613 156.913C165.492 157.155 165.199 157.299 164.933 157.246C164.798 157.088 164.791 156.834 164.918 156.669L164.965 156.604Z" fill="#FFB61D"/>
<path d="M185.673 157.243C185.698 157.403 185.722 157.563 185.746 157.722C185.611 157.818 185.431 157.847 185.272 157.8C184.994 157.582 185.349 157.038 185.66 157.205L185.673 157.243Z" fill="#FFB61D"/>
<path d="M193.347 155.064C193.334 155.255 193.215 155.436 193.045 155.524C192.821 155.405 192.7 155.122 192.77 154.878C192.925 154.67 193.332 154.806 193.33 155.066L193.347 155.064Z" fill="#FFB61D"/>
<path d="M188.106 137.112C187.981 137.229 187.856 137.347 187.731 137.464C187.47 137.411 187.37 137.013 187.574 136.842C187.778 136.671 188.152 136.84 188.159 137.106L188.106 137.112Z" fill="#FFB61D"/>
<path d="M205.663 131.892C205.774 132.182 205.518 132.544 205.208 132.537C204.943 132.255 205.341 131.704 205.692 131.868L205.663 131.892Z" fill="#FFB61D"/>
<path d="M205.586 140.152C205.373 140.241 205.268 139.893 205.302 139.665C205.541 139.494 205.928 139.602 206.044 139.873C205.937 140.023 205.765 140.125 205.582 140.147L205.586 140.152Z" fill="#FFB61D"/>
<path d="M160.08 132.077C160.127 132.359 159.762 132.61 159.515 132.465C159.506 132.259 159.509 132.022 159.663 131.885C159.818 131.748 160.147 131.885 160.071 132.078L160.08 132.077Z" fill="#FFB61D"/>
<path d="M190.198 157.628C190.045 157.522 189.942 157.345 189.926 157.159C190.046 156.868 190.544 156.866 190.666 157.156C190.509 157.314 190.353 157.471 190.196 157.629L190.198 157.628Z" fill="#FFB61D"/>
<path d="M172.909 150.219C172.758 150.106 172.654 149.932 172.625 149.745C172.739 149.595 172.913 149.491 173.099 149.462C173.283 149.694 173.174 150.092 172.898 150.198L172.909 150.219Z" fill="#FFB61D"/>
<path d="M190.185 140.352C190.036 140.111 190.278 139.744 190.558 139.786C190.838 140.002 190.488 140.551 190.174 140.388L190.185 140.352Z" fill="#FFB61D"/>
<path d="M160.339 139.636C160.519 139.954 159.955 140.33 159.731 140.04C159.536 139.772 160.055 139.433 160.275 139.681L160.339 139.636Z" fill="#FFB61D"/>
<path d="M197.987 124.586C198.138 124.528 198.321 124.563 198.44 124.673C198.568 124.909 198.304 125.241 198.045 125.169C197.786 125.098 197.73 124.677 197.962 124.54L197.987 124.586Z" fill="#FFB61D"/>
<path d="M195.906 149.45C196.054 149.691 195.813 150.058 195.533 150.016C195.252 149.8 195.603 149.251 195.917 149.414L195.906 149.45Z" fill="#FFB61D"/>
<path d="M187.818 140.425C187.569 140.541 187.413 140.139 187.445 139.866C187.579 139.707 187.867 139.722 187.983 139.894C188.1 140.067 188.006 140.34 187.809 140.405L187.818 140.425Z" fill="#FFB61D"/>
<path d="M170.446 136.915C170.563 137.089 170.485 137.359 170.295 137.444C170.104 137.529 169.851 137.406 169.8 137.204C169.921 136.986 170.199 136.867 170.44 136.931L170.446 136.915Z" fill="#FFB61D"/>
<path d="M173.199 137.243C173.039 137.269 172.879 137.294 172.72 137.32C172.56 137.084 172.811 136.707 173.09 136.764C173.277 136.805 173.345 137.092 173.196 137.213L173.199 137.243Z" fill="#FFB61D"/>
<path d="M167.406 129.899C167.065 129.985 167.11 129.363 167.393 129.152C167.691 129.253 167.69 129.771 167.391 129.87L167.406 129.899Z" fill="#FFB61D"/>
<path d="M164.94 149.64C165.089 149.881 164.847 150.248 164.567 150.206C164.287 149.99 164.637 149.441 164.952 149.604L164.94 149.64Z" fill="#FFB61D"/>
<path d="M161.921 140.207C162.024 140.076 162.128 139.945 162.231 139.814C162.469 139.824 162.63 140.141 162.497 140.338C162.364 140.536 162.009 140.506 161.911 140.289L161.921 140.207Z" fill="#FFB61D"/>
<path d="M190.368 134.272C190.263 134.071 190.369 133.79 190.58 133.708C190.732 133.809 190.834 133.983 190.847 134.165C190.784 134.346 190.512 134.408 190.376 134.272L190.368 134.272Z" fill="#FFB61D"/>
<path d="M164.531 140.161C164.426 139.96 164.532 139.679 164.744 139.597C164.896 139.698 164.997 139.872 165.011 140.054C164.948 140.235 164.676 140.297 164.54 140.161L164.531 140.161Z" fill="#FFB61D"/>
<path d="M208.092 129.32C208.117 129.486 208.142 129.653 208.167 129.819C208.001 129.852 207.835 129.885 207.67 129.917C207.513 129.67 207.759 129.287 208.049 129.326L208.092 129.32Z" fill="#FFB61D"/>
<path d="M167.606 142.232C167.743 142.487 167.493 142.848 167.207 142.811C167.119 142.671 167.085 142.497 167.116 142.335C167.253 142.244 167.428 142.212 167.588 142.248L167.606 142.232Z" fill="#FFB61D"/>
<path d="M167.22 134.806C166.921 134.717 166.913 134.2 167.208 134.101C167.504 134.199 167.498 134.717 167.199 134.807L167.22 134.806Z" fill="#FFB61D"/>
<path d="M167.69 155.06C167.708 155.244 167.582 155.431 167.405 155.484C167.172 155.455 167.039 155.132 167.185 154.948C167.33 154.764 167.674 154.819 167.756 155.038L167.69 155.06Z" fill="#FFB61D"/>
<path d="M169.851 152.7C169.746 152.498 169.852 152.217 170.063 152.135C170.215 152.236 170.317 152.41 170.33 152.592C170.267 152.774 169.995 152.836 169.859 152.699L169.851 152.7Z" fill="#FFB61D"/>
<path d="M167.291 126.761C167.31 126.476 167.647 126.191 167.866 126.375C167.895 126.561 167.896 126.778 167.758 126.906C167.621 127.035 167.323 126.939 167.361 126.754L167.291 126.761Z" fill="#FFB61D"/>
<path d="M193.138 145.358C192.957 145.447 192.737 145.229 192.776 145.032C192.816 144.834 193.03 144.711 193.232 144.709C193.398 144.901 193.352 145.235 193.141 145.375L193.138 145.358Z" fill="#FFB61D"/>
<path d="M172.747 147.234C172.852 147.106 172.957 146.978 173.062 146.85C173.287 146.841 173.459 147.133 173.343 147.325C173.226 147.518 172.887 147.5 172.792 147.296L172.747 147.234Z" fill="#FFB61D"/>
<path d="M188.104 145.462C187.942 145.503 187.764 145.476 187.622 145.389C187.623 145.134 187.846 144.864 188.096 144.917C188.345 144.97 188.345 145.442 188.09 145.429L188.104 145.462Z" fill="#FFB61D"/>
<path d="M185.626 139.421C185.841 139.481 185.951 139.772 185.829 139.959C185.649 140.002 185.451 139.96 185.304 139.847C185.404 139.689 185.504 139.531 185.604 139.372L185.626 139.421Z" fill="#FFB61D"/>
<path d="M167.294 144.581C167.604 144.57 167.452 145.08 167.207 145.269C167.045 145.08 167.095 144.75 167.306 144.617L167.294 144.581Z" fill="#FFB61D"/>
<path d="M197.886 144.615C198.133 144.735 198.068 145.186 197.797 145.231C197.474 145.168 197.57 144.558 197.896 144.596L197.886 144.615Z" fill="#FFB61D"/>
<path d="M180.004 137.081C179.849 136.996 179.946 136.728 180.118 136.687C180.289 136.645 180.46 136.744 180.609 136.839C180.601 137.099 180.189 137.22 180.042 137.005L180.004 137.081Z" fill="#FFB61D"/>
<path d="M173.289 145.277C173.169 145.524 172.718 145.459 172.673 145.188C172.736 144.866 173.346 144.961 173.308 145.287L173.289 145.277Z" fill="#FFB61D"/>
<path d="M159.723 154.503C159.793 154.279 160.178 154.273 160.255 154.494C160.179 154.716 159.792 154.71 159.723 154.487L159.723 154.503Z" fill="#FFB61D"/>
<path d="M169.981 159.632C170.051 159.409 170.437 159.403 170.514 159.623C170.438 159.845 170.051 159.839 169.981 159.616L169.981 159.632Z" fill="#FFB61D"/>
<path d="M207.928 126.936C207.875 127.149 207.588 127.262 207.405 127.142C207.314 126.972 207.384 126.724 207.565 126.654C207.746 126.585 207.979 126.761 207.936 126.95L207.928 126.936Z" fill="#FFB61D"/>
<path d="M202.882 152.756C202.754 152.651 202.626 152.546 202.498 152.441C202.489 152.216 202.781 152.044 202.973 152.16C203.166 152.277 203.148 152.616 202.945 152.711L202.882 152.756Z" fill="#FFB61D"/>
<path d="M197.89 155.261C197.704 155.178 197.773 154.832 197.977 154.827C198.249 154.836 198.105 155.4 197.897 155.224L197.89 155.261Z" fill="#FFB61D"/>
<path d="M170.749 333.907C158.791 322.983 148.669 310.054 140.934 295.824C137.672 289.822 134.756 283.078 135.977 276.356C138.262 263.784 133.541 251.15 129.822 238.924C126.102 226.699 123.468 212.893 129.45 201.602C120.013 210.304 116.229 223.49 114.206 236.166C109.515 265.555 112.155 296.084 121.82 324.231C110.472 303.457 110.026 278.603 111.102 254.956C111.939 236.556 113.997 216.961 125.555 202.62C107.761 217.132 102.346 241.63 98.4199 264.253C94.7329 285.497 91.4513 307.793 98.2873 328.241C91.8375 316.351 92.8909 301.964 94.2224 288.503C97.2851 257.541 102.001 224.198 123.688 201.889C129.425 195.988 136.426 190.985 144.461 189.209C150.688 187.832 156.686 185.43 162.142 182.129C163.457 174.428 156.211 168.364 151.149 162.413C145.479 155.75 141.943 147.299 141.176 138.584C140.722 133.425 139.639 126.396 134.465 126.176C130.212 125.995 127.01 120.863 128.717 116.964C130.424 113.064 136.367 111.936 139.385 114.938C135.08 98.8005 144.174 80.181 159.548 73.6538C157.041 70.0688 162.512 65.7725 166.857 66.2859C171.201 66.7993 175.406 69.4234 179.671 68.4539C178.21 65.8799 180.552 62.46 183.438 61.8006C186.323 61.1413 189.285 62.3941 191.873 63.8302C208.49 73.0487 219.47 91.6396 219.523 110.642C219.952 107.173 225.157 105.985 227.703 108.38C230.249 110.775 230.127 115.06 228.32 118.052C226.512 121.043 223.431 123.007 220.381 124.714C220.458 137.315 215.666 149.884 207.22 159.235C201.073 166.04 192.365 173.258 194.382 182.203C197.652 181.479 200.959 185.251 199.815 188.398C213.834 187.231 226.916 195.692 236.848 205.654C251.408 220.258 261.873 238.903 266.755 258.939C267.608 262.439 272.587 263.393 275.667 261.525C278.748 259.658 280.331 256.127 281.735 252.81C290.978 230.965 300.222 209.121 309.466 187.277C306.372 168.264 309.124 169.324 310.573 160.433C314.535 150.1 313.778 140.763 315.38 130.928C315.817 128.25 317.69 124.716 320.163 125.832C321.414 126.397 321.856 127.922 322.122 129.268C323.622 136.833 324.101 144.601 323.543 152.293C326.743 146.819 329.943 141.346 333.142 135.872C334.894 132.876 338.762 129.521 341.191 132C342.525 133.361 342.174 135.594 341.624 137.419C339.873 143.224 337.018 148.694 333.258 153.45C338.328 155.179 344.2 157.805 345.087 163.087C345.456 165.278 344.835 167.509 344.099 169.605C341.542 176.894 337.502 183.658 332.298 189.366C333.492 188.646 334.273 190.79 334.035 192.164C328.327 225.191 314.417 256.768 293.901 283.271C287.847 291.093 279.634 299.16 269.786 298.237C263.622 297.66 258.414 293.615 253.591 289.733C248.398 285.553 243.205 281.373 238.012 277.193C250.1 279.894 256.832 294.974 269.129 296.462C279.126 297.672 287.519 289.299 293.561 281.242C313.278 254.953 326.744 224.009 332.543 191.663C324.659 192.987 316.452 192.341 308.872 189.801C301.35 213.121 291.877 235.811 280.585 257.558C278.634 261.316 275.162 265.685 271.153 264.319C269.359 263.707 268.146 262.06 267.135 260.456C257.03 244.43 254.683 223.06 239.945 211.154C245.885 247.991 236.52 285.45 225.92 321.226C234.035 293.349 238.978 264.549 240.624 235.562C241.002 228.907 241.19 222.105 239.307 215.711C237.423 209.317 233.124 203.3 226.883 200.959C222.818 227.397 199.009 247.063 192.984 273.124C188.112 294.197 180.625 314.664 170.749 333.907ZM195.223 261.535C204.281 244.314 216.156 228.55 223.53 210.544C225.206 206.45 226.589 201.584 224.31 197.792C223.487 196.423 222.261 195.352 221.055 194.305C219.148 192.649 217.057 190.913 214.54 190.708C211.2 190.436 208.304 192.935 206.155 195.506C200.944 201.741 197.579 209.278 194.379 216.747C186.725 234.614 179.61 252.799 175.135 271.714C170.66 290.63 168.876 310.374 171.954 329.566C175.85 311.965 188.953 297.052 190.749 279.114C191.045 276.16 191.025 273.161 191.668 270.263C192.35 267.186 193.756 264.324 195.223 261.535ZM213.155 99.0116C211.929 96.6468 210.398 94.3849 208.305 92.7367C203.643 89.0655 197.079 89.0558 191.246 90.1467C187.517 90.8441 183.86 91.9195 180.347 93.3511C179.43 93.7248 178.456 94.1311 177.482 93.954C176.508 93.7769 175.631 92.7265 176.03 91.8203C176.107 91.646 176.226 91.4842 176.247 91.2948C176.304 90.7643 175.629 90.4988 175.101 90.4226C167.074 89.2652 158.526 90.6188 151.778 95.1175C145.029 99.6162 140.358 107.461 140.608 115.567C140.664 117.386 142.032 118.874 143.404 120.069C145.504 121.897 147.818 123.478 150.284 124.77C151.39 125.35 152.909 125.81 153.755 124.89C155.433 123.066 158.22 122.924 160.698 122.977C169.31 123.162 177.969 124.156 186.507 123.008C191.708 122.309 196.773 120.825 201.954 119.989C203.541 119.734 205.18 119.541 206.744 119.911C208.308 120.282 209.802 121.322 210.3 122.851C212.317 120.571 214.131 118.112 215.714 115.511C216.189 114.731 216.65 113.92 216.825 113.024C216.981 112.228 216.904 111.407 216.799 110.603C216.268 106.567 215.029 102.625 213.155 99.0116ZM200.238 155.639C203.278 154.306 204.985 151.074 206.135 147.96C208.876 140.54 209.757 132.441 208.675 124.605C208.567 123.817 208.421 122.992 207.919 122.376C207.123 121.399 205.701 121.248 204.442 121.299C201.482 121.42 198.602 122.235 195.721 122.923C189.654 124.371 183.439 125.272 177.201 125.292C171.037 125.313 164.883 124.477 158.724 124.716C157.498 124.764 156.202 124.879 155.207 125.597C153.629 126.735 153.352 128.94 153.289 130.884C153.049 138.275 153.921 145.702 155.867 152.837C155.984 153.265 156.116 153.712 156.428 154.029C156.764 154.37 157.252 154.503 157.711 154.637C165.153 156.817 171.59 163.058 179.325 162.52C185.064 162.12 189.888 158.004 195.505 156.765C197.092 156.414 198.749 156.292 200.238 155.639ZM136.622 277.74C136.161 284.447 139.955 290.622 143.605 296.268C147.299 301.983 150.993 307.698 154.687 313.413C149.239 295.28 146.669 276.409 144.921 257.556C143.095 237.871 142.189 217.677 147.572 198.654C148.426 195.636 149.45 192.63 151.102 189.964C146.147 189.835 140.876 190.215 136.834 193.083C134.206 194.948 132.341 197.716 130.96 200.627C126.691 209.622 126.68 220.12 128.567 229.897C130.455 239.673 134.116 249.003 136.985 258.538C137.819 261.308 138.593 264.153 138.492 267.044C138.365 270.667 136.871 274.124 136.622 277.74ZM160.689 157.555C158.135 156.574 155.037 155.773 154.022 153.233C153.545 152.04 153.661 150.706 153.524 149.429C153.386 148.152 152.851 146.751 151.656 146.279C148.778 145.142 146.016 143.707 143.43 142.007C144.713 149.551 148.13 156.721 153.181 162.471C155.711 165.35 158.644 167.885 160.885 170.994C163.127 174.103 164.651 178.015 163.826 181.758C163.563 182.951 165.276 183.47 166.497 183.441C174.608 183.249 182.719 183.022 190.828 182.761C192.202 182.717 193.012 181.112 192.98 179.737C192.948 178.363 192.395 177.034 192.413 175.66C192.439 173.639 193.678 171.855 194.939 170.277C198.673 165.599 203.035 161.46 206.917 156.904C210.799 152.348 214.258 147.245 215.734 141.444C213.165 145.777 207.745 148.011 205.735 152.631C204.594 155.253 201.836 156.795 199.103 157.638C196.371 158.481 193.476 158.823 190.868 159.996C189.531 160.597 188.298 161.405 186.989 162.065C182.389 164.381 176.847 164.749 171.981 163.06C168.021 161.685 164.602 159.058 160.689 157.555ZM323.112 169.014C325.93 168.846 329.334 169.943 331.201 167.825C331.628 167.34 331.91 166.673 331.755 166.045C331.544 165.191 330.645 164.721 329.827 164.398C324.601 162.334 318.751 161.88 313.269 163.113C311.359 163.542 310.244 165.305 309.825 167.217C309.407 169.128 309.509 171.198 309.825 173.129C310.63 178.034 311.435 182.939 312.239 187.844C312.276 188.065 312.315 188.294 312.439 188.48C312.626 188.76 312.964 188.89 313.283 188.998C317.243 190.347 321.457 190.949 325.637 190.762C327.299 190.688 329.097 190.425 330.263 189.239C335.973 183.433 340.147 176.131 342.251 168.264C341.106 169.29 339.634 170.088 338.101 169.969C336.568 169.851 335.078 168.546 335.178 167.012C332.239 169.277 328.777 171.674 325.143 170.922C322.365 170.346 319.298 171.578 317.688 173.914C316.707 173.656 317.084 172.137 317.799 171.416C319.198 170.004 321.128 169.132 323.112 169.014ZM154.35 212.675C152.426 212.974 150.511 213.333 148.612 213.761C147.276 214.063 145.686 214.677 145.513 216.035C145.168 218.744 144.981 221.472 144.953 224.202C159.48 220.776 174.904 221.236 189.201 225.523C190.72 221.964 192.239 218.406 193.758 214.847C180.966 211.383 167.445 210.637 154.35 212.675ZM208.02 191.326C205.722 190.11 203.045 189.621 200.465 189.947C199.955 190.012 199.383 190.153 199.138 190.603C198.158 192.404 196.017 193.182 194.036 193.706C184.067 196.347 173.541 196.287 163.323 194.895C161.424 194.636 159.498 194.322 157.772 193.487C156.046 192.652 154.521 191.216 154.009 189.369C152.649 189.348 151.831 190.834 151.348 192.106C149.887 195.951 148.623 199.872 147.565 203.847C164.131 200.095 181.639 200.58 197.972 205.245C199.53 203.342 200.687 201.111 201.345 198.74C201.652 197.634 202.501 196.774 203.319 195.968C204.886 194.42 206.453 192.873 208.02 191.326ZM180.963 247.379C182.564 243.839 183.923 240.189 185.029 236.465C172.274 234.352 159.213 234.104 146.387 235.732C145.843 235.801 145.24 235.907 144.911 236.346C144.622 236.732 144.637 237.259 144.665 237.74C144.801 240.129 144.938 242.517 145.075 244.906C145.111 245.548 145.418 246.415 146.047 246.285C157.557 243.912 169.624 244.29 180.963 247.379ZM340.058 137.757C340.423 136.85 340.774 135.898 340.695 134.924C340.615 133.95 339.981 132.952 339.02 132.771C338.422 132.659 337.804 132.875 337.286 133.195C336.015 133.98 335.218 135.326 334.472 136.619C331.092 142.475 327.712 148.331 324.332 154.187C323.894 154.947 322.627 154.711 322.147 153.978C321.666 153.245 321.73 152.297 321.798 151.423C322.366 144.098 321.94 136.697 320.534 129.487C320.447 129.039 320.349 128.576 320.08 128.208C319.299 127.141 317.478 127.512 316.692 128.575C315.906 129.638 315.86 131.058 315.85 132.38C315.772 142.452 315.867 152.881 311.798 162.094C315.931 160.49 320.583 160.259 324.854 161.444C325.465 161.614 326.097 161.813 326.72 161.696C327.342 161.578 327.934 161.011 327.825 160.387C327.418 158.048 329.096 155.922 330.572 154.062C334.495 149.12 337.701 143.61 340.058 137.757ZM198.35 185.98C198.068 184.826 197.033 183.766 195.85 183.872C183.775 184.953 171.63 185.26 159.516 184.791C158.799 184.764 158.044 184.741 157.408 185.073C156.958 185.308 156.608 185.705 156.369 186.152C155.403 187.967 156.384 190.333 158.032 191.563C159.68 192.792 161.803 193.151 163.843 193.409C172.749 194.533 181.825 194.415 190.666 192.862C192.574 192.526 194.533 192.099 196.113 190.976C197.693 189.854 198.808 187.863 198.35 185.98ZM176.823 259.922C176.893 259.681 176.959 259.407 176.832 259.19C176.697 258.959 176.4 258.89 176.135 258.845C166.536 257.217 156.711 258.017 147.008 258.821C146.733 258.844 146.421 258.888 146.267 259.116C146.147 259.294 146.164 259.527 146.186 259.741C146.467 262.496 146.748 265.25 147.029 268.005C147.083 268.534 147.307 269.22 147.838 269.193C156.276 268.762 164.754 269.136 173.121 270.308C173.652 270.382 173.972 269.748 174.122 269.232C175.022 266.129 175.922 263.026 176.823 259.922ZM171.321 284.708C171.362 284.312 171.386 283.86 171.112 283.572C170.901 283.35 170.576 283.293 170.274 283.251C163.706 282.336 157.032 282.986 150.432 283.636C150.102 283.669 149.721 283.734 149.562 284.025C149.452 284.224 149.487 284.468 149.525 284.693C149.967 287.332 150.41 289.971 150.853 292.611C150.917 292.99 151.118 293.478 151.498 293.421C157.794 292.483 164.493 292.207 170.25 294.92C170.607 291.516 170.964 288.112 171.321 284.708ZM144.915 140.986C147.294 142.619 149.904 143.913 152.644 144.817C151.451 139.315 151.217 133.607 151.957 128.026C152.05 127.321 151.255 126.865 150.599 126.588C146.763 124.971 143.282 122.519 140.467 119.452C140.758 125.274 141.387 131.079 142.351 136.828C142.496 137.69 142.657 138.576 143.124 139.315C143.563 140.011 144.238 140.52 144.915 140.986ZM208.306 146.897C210.861 144.821 213.098 142.373 215.078 139.743C216.146 138.325 217.153 136.83 217.745 135.156C218.34 133.472 218.494 131.667 218.565 129.883C218.75 125.214 218.394 120.523 217.505 115.935C215.454 118.721 213.403 121.508 211.352 124.295C211.037 124.722 210.715 125.165 210.594 125.682C210.497 126.097 210.536 126.529 210.571 126.954C211.118 133.664 210.344 140.48 208.306 146.897ZM168.679 317.311C169.128 317.402 169.334 316.774 169.345 316.316C169.41 313.578 169.475 310.839 169.54 308.101C169.546 307.854 169.55 307.597 169.443 307.375C169.246 306.964 168.752 306.807 168.311 306.693C165.818 306.044 163.29 305.392 160.714 305.423C158.575 305.449 156.457 305.948 154.318 305.895C154.076 305.889 153.76 305.929 153.709 306.166C153.691 306.248 153.715 306.333 153.738 306.414C154.682 309.69 155.924 312.88 157.444 315.931C157.644 316.331 157.882 316.76 158.298 316.922C158.592 317.036 158.92 316.994 159.233 316.955C162.373 316.562 165.577 316.683 168.679 317.311ZM219.987 111.691C219.497 112.447 219.064 113.273 218.984 114.17C218.935 114.721 219.021 115.273 219.106 115.819C219.436 117.922 219.766 120.025 220.096 122.128C220.115 122.25 220.138 122.38 220.219 122.473C220.41 122.691 220.765 122.575 221.024 122.444C222.068 121.914 223.125 121.375 224.006 120.604C224.713 119.986 225.29 119.233 225.832 118.466C226.966 116.864 228.008 115.077 228.081 113.115C228.155 111.153 226.951 109.02 225.02 108.666C222.975 108.291 221.116 109.945 219.987 111.691ZM131.134 115.855C130.35 116.542 130.066 117.633 129.936 118.666C129.817 119.613 129.796 120.599 130.124 121.495C130.577 122.73 131.654 123.657 132.845 124.217C134.036 124.777 135.348 125.017 136.643 125.252C137.282 125.367 137.922 125.483 138.561 125.599C138.719 125.628 138.906 125.648 139.018 125.533C139.111 125.437 139.111 125.287 139.105 125.153C139 122.786 138.894 120.418 138.788 118.051C138.744 117.045 138.025 116.159 137.138 115.682C136.252 115.204 135.22 115.076 134.214 115.05C133.127 115.022 131.951 115.139 131.134 115.855ZM336.602 156.366C336.132 155.852 335.438 155.617 334.77 155.417C334.063 155.205 333.3 155.012 332.599 155.243C331.803 155.505 331.277 156.249 330.856 156.974C330.221 158.071 329.694 159.23 329.285 160.43C329.141 160.854 329.009 161.301 329.07 161.746C329.13 162.19 329.434 162.632 329.875 162.715C331.675 163.053 333.248 164.41 333.846 166.141C334.682 164.388 335.519 162.636 336.355 160.884C336.701 160.159 337.051 159.42 337.17 158.626C337.289 157.832 337.144 156.958 336.602 156.366ZM342.869 160.036C342.013 159.231 340.588 159.287 339.598 159.921C338.607 160.555 337.991 161.639 337.592 162.744C337.138 164.004 336.917 165.347 336.944 166.686C336.951 167.006 336.974 167.336 337.121 167.62C337.477 168.304 338.416 168.458 339.163 168.269C340.797 167.856 341.886 166.338 342.694 164.859C343.11 164.096 343.497 163.297 343.605 162.435C343.714 161.574 343.502 160.631 342.869 160.036ZM170.529 330.964C170.127 328.64 169.725 326.316 169.323 323.993C169.276 323.722 169.214 323.425 168.993 323.261C168.849 323.154 168.662 323.125 168.483 323.102C166.412 322.833 164.307 322.819 162.233 323.062C164.682 326.004 167.472 328.661 170.529 330.964Z" fill="#00160A"/>
<path d="M51.5776 104.395C49.5098 108.359 48.437 112.757 48.4632 117.206C46.7459 113.823 44.6896 110.325 40.7248 109.3C37.4041 108.412 33.5583 110.237 33.1087 113.824C32.5708 118.133 36.4518 121.896 39.3629 124.552C42.7734 127.69 46.7151 130.21 50.7555 132.482C52.8242 133.64 54.9151 134.71 57.0144 135.804C56.5501 137.273 56.1063 138.947 56.9929 140.27C57.6885 141.291 59.0924 141.735 60.1141 140.833C61.1358 139.93 61.1095 138.374 60.4377 137.344C59.8496 136.47 58.931 135.876 57.958 135.354C58.0107 135.202 58.0482 135.082 58.1009 134.93C58.4819 133.677 58.8952 132.439 59.3409 131.215C60.2 128.752 61.1476 126.311 61.9982 123.825C63.5121 119.452 64.7824 114.929 64.9845 110.29C65.1309 106.76 64.9664 101.486 61.5547 99.3832C57.4273 96.7983 53.3459 101.017 51.5776 104.395ZM59.9321 138.033C60.251 138.686 60.2941 139.546 59.7458 140.118C58.8212 141.065 57.6623 140.106 57.3926 139.143C57.123 138.179 57.3882 137.127 57.7029 136.137C58.6026 136.606 59.5041 137.153 59.9321 138.033ZM64.2013 107.842C64.3081 110.138 64.1423 112.428 63.7192 114.679C62.9073 119.274 61.2894 123.658 59.6715 128.042C58.8328 130.338 57.9788 132.666 57.2611 134.997C56.7021 134.723 56.1603 134.496 55.6576 134.227C53.6724 133.225 51.7264 132.181 49.7871 131.082C45.8268 128.808 41.9958 126.222 38.7199 123.008C36.8279 121.149 34.7297 119.02 33.9277 116.445C33.0831 113.754 34.1344 110.929 36.9653 109.952C42.3171 108.11 46.2108 113.54 48.448 117.61C48.4635 117.949 48.479 118.288 48.4945 118.628C48.5289 119.093 49.2153 118.976 49.1981 118.557C49.0595 114.096 49.8358 109.7 51.781 105.621C52.7459 103.598 53.9952 101.392 56.0287 100.227C58.2836 98.9283 60.9822 99.22 62.4961 101.376C63.7867 103.215 64.1048 105.648 64.2013 107.842Z" fill="#FFB61D"/>
<path d="M326.556 49.5238C322.424 51.2313 318.775 53.9108 315.936 57.3359C316.794 53.6409 317.468 49.6395 315.089 46.3057C313.116 43.4908 308.998 42.4164 306.347 44.8754C303.165 47.831 303.719 53.2081 304.242 57.114C304.838 61.71 306.238 66.174 307.873 70.5112C308.713 72.728 309.627 74.8919 310.532 77.0792C309.232 77.9064 307.815 78.9037 307.644 80.4869C307.521 81.716 308.311 82.9589 309.674 82.9242C311.037 82.8894 312.017 81.6803 312.164 80.4599C312.275 79.4123 311.954 78.3663 311.544 77.3413C311.682 77.2588 311.787 77.1911 311.925 77.1086C313.023 76.3934 314.136 75.7103 315.264 75.0593C317.505 73.7251 319.8 72.4639 322.05 71.1063C326.02 68.7297 329.901 66.0813 333.037 62.6579C335.418 60.0479 338.683 55.9014 337.42 52.098C335.92 47.4647 330.082 48.0733 326.556 49.5238ZM311.334 80.6622C311.158 81.3678 310.638 82.0544 309.851 82.1395C308.534 82.2706 308.263 80.7916 308.675 79.8802C309.088 78.9688 309.967 78.3334 310.845 77.777C311.233 78.7144 311.571 79.7135 311.334 80.6622ZM334.011 60.2788C332.616 62.1068 331.018 63.7543 329.247 65.2064C325.671 68.2045 321.614 70.523 317.556 72.8415C315.438 74.0611 313.288 75.2954 311.239 76.62C310.987 76.0506 310.718 75.5281 310.506 74.9995C309.629 72.9554 308.809 70.9053 308.03 68.8169C306.458 64.5291 305.186 60.0851 304.742 55.5178C304.488 52.8774 304.249 49.8976 305.29 47.41C306.373 44.8051 308.994 43.3174 311.79 44.3884C317.074 46.4176 316.566 53.0802 315.664 57.6354C315.458 57.9053 315.252 58.1753 315.046 58.4452C314.773 58.8237 315.374 59.1752 315.63 58.8436C318.391 55.3369 321.812 52.4681 325.924 50.5941C327.963 49.6644 330.339 48.7773 332.645 49.1921C335.207 49.6469 337.087 51.605 336.861 54.2298C336.667 56.4683 335.347 58.5358 334.011 60.2788Z" fill="#FFB61D"/>
<defs>
<linearGradient id="paint0_linear" x1="192.76" y1="70.5734" x2="192.76" y2="355.5" gradientUnits="userSpaceOnUse">
<stop stop-color="#60CFF8"/>
<stop offset="1" stop-color="#0643BA" stop-opacity="0"/>
</linearGradient>
</defs>
</svg>
