<svg width="291" height="291" viewBox="0 0 291 291" fill="none" xmlns="http://www.w3.org/2000/svg">
<rect width="291" height="291" fill="white"/>
<path fill-rule="evenodd" clip-rule="evenodd" d="M182.661 245.252C138.54 257.905 17.3261 225.315 17.4184 150.656C17.6489 102.456 61.2148 90.3857 106.14 115.105C119.36 120.377 129.797 118.743 141.129 113.504C152.461 108.266 167.036 84.8809 194.504 80.07C277.165 65.5924 347.893 197.868 182.661 245.252Z" fill="url(#paint0_linear)"/>
<path d="M80.699 184.19L80.5555 184.456C79.9326 185.645 80.2698 182.361 81.6594 180.716C82.8786 179.272 84.1741 177.869 85.5878 176.621C86.8852 175.475 88.3352 174.477 89.81 173.563C91.4038 172.574 93.0669 171.678 94.7683 170.889C96.6559 170.014 98.5846 169.193 100.561 168.552C103.357 167.645 106.199 166.865 109.053 166.161C109.801 165.976 109.885 165.708 109.909 165.137L109.916 164.936C109.967 163.174 110.105 161.406 110.352 159.661C110.684 157.312 111.71 155.266 113.5 153.672C115.05 152.292 116.726 151.092 118.594 150.15C121.915 148.476 125.403 147.254 129.031 146.531C132.435 145.853 135.888 145.414 139.331 144.953C140.377 144.812 141.461 144.925 142.526 144.965C143.219 144.992 143.517 144.752 143.658 144.038L143.83 143.172C144.003 142.307 144.187 141.444 144.423 140.595C145.518 136.664 146.381 132.704 146.076 128.585C145.881 125.964 145.725 123.337 145.406 120.731C145.184 118.923 144.776 117.137 144.417 115.347L144.311 114.809C144.23 114.395 144.05 114.381 143.747 114.627L143.705 114.662C142.625 115.59 141.138 115.157 140.744 113.757C140.507 112.913 140.391 111.973 141.058 111.257C141.379 110.913 141.916 110.596 142.367 110.578C144.164 110.508 145.974 110.459 147.765 110.59C150.176 110.766 152.577 111.09 154.977 111.399C157.222 111.689 159.465 112.003 161.696 112.381C162.978 112.598 164.233 112.97 165.503 113.258C166.6 113.506 167.698 113.755 168.806 113.944C168.95 113.968 169.269 113.658 169.312 113.461C169.593 112.167 169.833 110.864 170.098 109.567L170.302 108.595C170.369 108.291 170.353 107.74 170.963 107.893C171.506 108.029 171.642 108.333 171.497 108.907C171.189 110.132 170.939 111.372 170.676 112.608L170.516 113.35C170.33 114.193 170.62 114.523 171.716 114.727L171.812 114.744C172.37 114.84 172.927 114.947 173.478 115.077L173.89 115.179C174.287 115.282 174.447 115.221 174.519 114.82L174.529 114.76C174.694 113.656 174.919 112.56 175.129 111.464C175.263 110.769 175.431 110.08 175.552 109.383C175.646 108.839 175.152 108.429 174.312 108.289C173.689 108.184 173.043 108.134 172.454 107.926C170.642 107.284 168.731 107.167 166.867 107.098C162.609 106.941 159.894 106.988 155.631 107.021C154.167 107.032 152.707 107.274 151.242 107.36C150.519 107.402 148.702 107.019 149.031 106.401C149.295 105.905 151.273 105.498 151.611 105.039C152.232 104.195 152.934 103.393 153.431 102.48C153.983 101.469 154.474 100.388 154.759 99.2779C155.28 97.2486 155.635 95.1764 156.048 93.12C156.302 91.8565 156.633 90.5981 156.752 89.3209C156.882 87.91 156.859 86.4779 156.794 85.0601C156.775 84.6407 156.524 84.1722 155.94 84.017C155.15 83.8071 155.049 83.26 155.058 82.0246C155.062 81.5227 155.752 80.9789 156.38 80.9259C159.356 80.6749 154.562 80.8569 157.512 81.2311C159.856 81.5285 168.395 81.9367 170.73 82.302C170.879 82.3253 171.018 82.4083 171.164 82.4549C171.775 82.6494 173.951 83.0211 174.453 83.1467L174.506 83.1607C175.661 83.4837 176.85 83.6843 178.015 83.9734C180.055 84.4794 182.088 85.0143 184.123 85.5384C184.197 85.5575 184.267 85.5911 184.34 85.6162C187.201 86.6032 190.079 87.5446 192.915 88.5999C194.006 89.0061 195.057 89.5908 196.015 90.2537C196.479 90.5741 196.695 91.2589 197.008 91.7871C197.779 93.0843 198.639 94.3401 199.286 95.697C200.338 97.9014 200.73 100.216 200.258 102.684L200.078 103.614C199.672 105.679 199.208 107.725 198.33 109.643C197.601 111.237 196.786 112.814 195.811 114.265C195.086 115.346 193.904 115.883 192.501 115.25C190.741 114.455 188.957 113.711 187.17 112.976C184.484 111.871 181.791 110.783 179.091 109.714C178.609 109.523 178.097 109.401 177.586 109.296L177.367 109.252C177.047 109.189 176.781 109.153 176.691 109.711C176.398 111.516 175.999 113.305 175.59 115.089C175.484 115.553 175.666 115.691 176.025 115.78C176.405 115.874 176.803 115.912 177.17 116.042L181.162 117.452C189.955 120.573 206.819 126.711 209.535 129.3C213.441 133.024 216.982 156.933 207.448 168.552C201.635 175.635 201.289 172.883 200.999 172.943C215.445 165.646 187.836 144.075 189.507 144.361C192.504 144.874 193.832 147.005 194.596 149.517C195.549 152.65 196.304 155.855 196.944 159.07C197.613 162.43 199.407 173.255 199.725 175.286C199.959 176.781 199.996 178.306 200.184 179.81C200.432 181.791 200.843 183.756 200.997 185.743C201.167 187.94 201.266 190.154 201.214 192.355L201.197 192.906C201.148 194.3 200.711 198.084 198.636 203.935C196.685 209.431 189.157 218.995 187.322 222.242C187.204 222.451 185.983 223.23 185.669 222.645C185.462 222.258 97.3725 238.295 80.699 184.19Z" fill="white"/>
<path fill-rule="evenodd" clip-rule="evenodd" d="M178.327 70.3153C177.617 70.0617 176.836 70.4315 176.583 71.1413C176.553 71.2254 176.531 71.3121 176.518 71.4004L174.994 81.6744L174.99 81.7196C174.984 81.9138 175.124 82.086 175.321 82.1152C175.533 82.1466 176.933 71.0939 176.933 71.0939L176.944 71.0373C176.944 71.0373 177.561 70.5289 178.1 70.6595C178.567 70.7729 179.05 71.444 178.953 71.9248C178.953 71.9248 176.974 81.7138 176.725 83.6802C176.664 83.6671 176.603 83.654 176.542 83.6409C175.859 83.4945 175.177 83.3482 174.506 83.1606L174.453 83.1465C174.262 83.0987 173.829 83.0153 173.332 82.9196L173.331 82.9195L173.331 82.9195L173.33 82.9194C172.521 82.7636 171.542 82.5752 171.164 82.4548C171.108 82.4369 171.054 82.4138 170.999 82.3907C170.91 82.3534 170.822 82.3162 170.73 82.3018C170.08 82.2001 169.43 82.095 168.78 81.99L168.78 81.9899L168.779 81.9899L168.779 81.9898L168.779 81.9898L168.778 81.9897L168.778 81.9897L168.778 81.9896C167.094 81.7175 165.411 81.4454 163.72 81.231C160.769 80.8567 157.804 80.6747 154.828 80.9257C154.2 80.9787 153.51 81.5226 153.506 82.0244C153.497 83.2598 153.598 83.8069 154.388 84.0169C154.972 84.1721 155.223 84.6405 155.242 85.0599C155.307 86.4778 155.33 87.9098 155.2 89.3207C155.113 90.258 154.911 91.1853 154.71 92.1118L154.709 92.1127C154.636 92.4484 154.563 92.7839 154.496 93.1198C154.388 93.6543 154.285 94.1898 154.182 94.7254L154.181 94.7259L154.181 94.7266L154.181 94.7267L154.181 94.7267L154.181 94.7268L154.181 94.7269L154.181 94.7269L154.181 94.727L154.181 94.7271C153.887 96.2516 153.592 97.7764 153.207 99.2778C152.922 100.388 152.431 101.469 151.879 102.48C151.52 103.138 151.056 103.739 150.592 104.339L150.592 104.339C150.412 104.571 150.232 104.803 150.059 105.039C149.938 105.203 149.806 105.36 149.674 105.518C149.437 105.8 149.2 106.082 149.031 106.4C148.702 107.018 148.967 107.402 149.69 107.36C150.283 107.325 150.875 107.265 151.467 107.205C152.338 107.116 153.208 107.027 154.079 107.02L154.902 107.014C158.891 106.982 162.883 106.951 166.867 107.098C168.731 107.167 170.641 107.284 172.454 107.926C172.892 108.081 173.361 108.148 173.829 108.215C173.991 108.239 174.152 108.262 174.312 108.288C175.152 108.429 175.646 108.839 175.552 109.383C175.482 109.784 175.397 110.182 175.312 110.58L175.312 110.581C175.249 110.875 175.186 111.168 175.129 111.463C175.089 111.673 175.048 111.882 175.008 112.092L175.007 112.094L175.007 112.097L175.006 112.098C174.834 112.983 174.662 113.869 174.529 114.76L174.519 114.819C174.446 115.221 174.287 115.282 173.89 115.178L173.478 115.076C172.927 114.947 172.37 114.84 171.812 114.744L171.716 114.726C170.62 114.523 170.33 114.192 170.516 113.349L170.676 112.608L170.745 112.279L170.818 111.935C171.032 110.922 171.245 109.91 171.497 108.907C171.642 108.332 171.506 108.029 170.963 107.893C170.439 107.762 170.377 108.149 170.327 108.454L170.327 108.454L170.327 108.454L170.318 108.512C170.313 108.541 170.308 108.569 170.302 108.595L170.098 109.567C169.996 110.063 169.898 110.561 169.801 111.059C169.643 111.86 169.485 112.662 169.312 113.46C169.269 113.658 168.949 113.968 168.806 113.944C167.706 113.757 166.616 113.51 165.527 113.263L165.527 113.263L165.527 113.263L165.527 113.263L165.527 113.263L165.526 113.263L165.526 113.263L165.526 113.263L165.503 113.258C165.054 113.156 164.607 113.044 164.16 112.932L164.16 112.932C163.342 112.726 162.525 112.521 161.696 112.381C159.465 112.003 157.222 111.688 154.977 111.399L154.349 111.318C152.159 111.035 149.965 110.751 147.764 110.59C145.974 110.459 144.164 110.507 142.367 110.578C141.916 110.596 141.378 110.912 141.058 111.257C140.391 111.972 140.507 112.913 140.744 113.756C141.137 115.157 142.625 115.59 143.705 114.662L143.747 114.627C144.05 114.381 144.23 114.395 144.311 114.809L144.417 115.347C144.491 115.717 144.567 116.087 144.644 116.458C144.937 117.877 145.229 119.297 145.405 120.73C145.665 122.842 145.816 124.967 145.968 127.091L145.968 127.096C146.003 127.592 146.039 128.089 146.076 128.585C146.381 132.704 145.518 136.664 144.423 140.595C144.187 141.443 144.003 142.307 143.829 143.172L143.658 144.037C143.516 144.751 143.219 144.992 142.526 144.965C142.292 144.956 142.057 144.944 141.822 144.931L141.822 144.931L141.821 144.931H141.821H141.821H141.821H141.821H141.821H141.821H141.821C140.986 144.887 140.147 144.843 139.331 144.952C139.027 144.993 138.723 145.034 138.419 145.074C135.279 145.493 132.134 145.912 129.031 146.531C125.403 147.253 121.915 148.476 118.594 150.15C116.726 151.091 115.05 152.292 113.5 153.672C111.71 155.266 110.684 157.312 110.351 159.66C110.105 161.406 109.967 163.174 109.916 164.935L109.909 165.137C109.885 165.708 109.801 165.976 109.053 166.161C106.199 166.865 103.357 167.645 100.561 168.552C98.5846 169.193 96.6559 170.014 94.7682 170.889C93.0668 171.678 91.4037 172.574 89.81 173.562C88.3351 174.477 86.8851 175.474 85.5877 176.62C84.174 177.869 82.8786 179.272 81.6594 180.716C81.2855 181.158 80.9878 181.72 80.7645 182.281C79.1007 182.574 77.4679 183.068 75.9285 183.733C70.8767 185.916 66.7114 189.749 63.1599 193.942C61.2107 196.242 59.418 198.667 57.6251 201.092L57.625 201.092L57.6247 201.093C56.151 203.086 54.6772 205.079 53.1162 207.004C49.6558 211.272 45.6798 215.263 40.7795 217.766C37.3586 219.513 33.5995 220.478 29.876 221.43C37.3337 222.233 44.6714 218.826 50.6272 214.283C54.0118 211.701 57.0783 208.748 60.1461 205.794C62.4767 203.549 64.8081 201.304 67.2803 199.22C68.2735 198.383 69.5026 197.52 70.7638 197.838C70.1088 201.22 69.9821 204.745 70.8063 208.09C71.6305 211.435 73.4582 214.592 76.2135 216.672C73.6832 213.635 72.0007 209.905 71.4018 206.004C71.0437 203.671 71.0766 201.232 71.8973 199.018C72.718 196.805 74.402 194.841 76.6293 194.039C76.1649 197.907 76.0159 201.858 76.8098 205.672C77.6037 209.487 79.4064 213.179 82.3553 215.737C78.2362 210.586 76.4332 203.664 77.5183 197.168C77.6953 196.109 77.959 195.03 78.5919 194.16C79.2248 193.291 80.3037 192.671 81.3659 192.854C78.3092 199.473 80.606 208.102 86.5531 212.342C82.8675 208.686 80.721 203.47 81.0313 198.297C81.1317 196.624 81.5128 194.893 82.5854 193.602C83.6579 192.31 85.5629 191.597 87.0923 192.296C84.944 195.049 84.8233 198.862 85.2978 202.317C85.7157 205.359 86.9687 208.835 89.9336 209.676C86.162 206.581 84.905 200.818 87.0473 196.444C87.8186 194.868 89.2555 193.352 91.012 193.451C92.2563 193.522 93.3155 194.399 94.0615 195.394C94.4121 195.861 94.715 196.362 95.0177 196.862C95.3592 197.426 95.7006 197.99 96.1101 198.507C97.8639 194.694 97.9884 189.862 95.3718 186.576C94.4405 185.407 93.2162 184.491 91.8944 183.788C90.1509 182.861 88.253 182.311 86.3025 182.088C86.3405 182.06 86.3787 182.031 86.4168 182.003C86.4718 181.962 86.5268 181.921 86.5819 181.88C89.5468 179.684 92.8172 177.997 96.1123 176.38C98.0463 175.431 100.081 174.674 102.108 173.932C103.925 173.267 105.775 172.681 107.64 172.167C110.984 171.246 114.402 170.729 117.862 170.472C118.593 170.418 119.322 170.333 120.051 170.247C120.829 170.156 121.608 170.065 122.389 170.012C123.448 169.94 124.51 169.891 125.572 169.843L125.572 169.843H125.573H125.573H125.573H125.573H125.573H125.573C127.206 169.769 128.839 169.695 130.464 169.533C132.277 169.353 134.078 169.052 135.879 168.75C136.497 168.647 137.115 168.544 137.733 168.445C139.097 168.228 140.456 167.978 141.853 167.722L141.854 167.722L142.295 167.641C142.462 167.613 142.621 167.594 142.776 167.576C142.993 167.551 143.2 167.526 143.402 167.479C143.916 167.357 144.431 167.236 144.945 167.115L144.959 167.112L144.972 167.109C147.053 166.62 149.133 166.131 151.204 165.603C153.554 165.003 155.893 164.357 158.223 163.681C159.161 163.409 160.092 163.112 161.023 162.815C162.143 162.458 163.263 162.1 164.396 161.786C166.534 161.192 168.354 160.027 170.151 158.802C170.275 158.717 170.407 158.47 170.367 158.358C170.301 158.174 170.114 157.932 169.948 157.907C169.688 157.867 169.336 157.899 169.141 158.052C167.008 159.724 164.523 160.68 161.981 161.431C157.655 162.708 153.305 163.919 148.926 164.999C146.175 165.676 143.39 166.22 140.606 166.763L140.605 166.763C139.837 166.913 139.069 167.063 138.301 167.216C136.943 167.486 135.568 167.683 134.196 167.88L133.999 167.908C133.544 167.973 133.088 168.042 132.632 168.111C131.16 168.332 129.688 168.554 128.208 168.667C126.748 168.777 125.284 168.843 123.82 168.908C121.998 168.989 120.176 169.07 118.362 169.239C114.636 169.587 110.897 169.996 107.294 171.067C104.416 171.922 101.534 172.817 98.7645 173.963C96.483 174.908 94.2838 176.057 92.0883 177.205L92.085 177.206L92.0829 177.207C91.626 177.446 91.1693 177.685 90.712 177.922C88.5251 179.054 86.4493 180.377 84.5726 181.975C83.743 181.96 82.9095 182 82.0795 182.092C82.8445 181.087 83.6983 180.15 84.5678 179.23L84.9814 178.794C87.5133 176.136 90.6188 174.285 93.8508 172.652L94.4398 172.357C95.5557 171.803 96.7152 171.338 97.8748 170.872C98.4492 170.642 99.0237 170.411 99.5929 170.17L100.006 169.998C103.178 168.703 106.489 167.908 109.831 167.171C113.865 166.282 117.94 165.664 122.022 165.09L124.647 164.725C125.91 164.55 127.178 164.407 128.446 164.265H128.446L128.447 164.265L128.447 164.265C131.509 163.922 134.57 163.579 137.563 162.774C138.807 162.439 140.054 162.113 141.3 161.788C142.818 161.391 144.335 160.994 145.848 160.582C147.308 160.184 148.766 159.766 150.193 159.267C151.315 158.875 152.42 158.433 153.525 157.99C153.999 157.801 154.473 157.611 154.948 157.425C155.763 157.106 156.583 156.795 157.402 156.484C159.249 155.784 161.095 155.083 162.902 154.291C165.252 153.26 167.574 152.165 169.896 151.069L169.896 151.069L169.897 151.069L169.897 151.069L169.897 151.068L169.897 151.068L169.897 151.068L169.897 151.068L169.897 151.068C171.096 150.503 172.294 149.937 173.496 149.381C174.226 149.043 174.968 148.72 175.73 148.463C177.313 147.929 178.902 147.413 180.491 146.897C181.191 146.669 181.891 146.442 182.591 146.213L183.016 146.074C184.505 145.593 186.012 145.157 187.59 145.218C189.217 145.282 190.811 145.47 191.971 146.911C192.938 148.112 193.443 149.501 193.852 150.921L193.962 151.31C194.474 153.162 194.87 155.049 195.253 156.933L195.67 158.98C196.155 161.369 196.628 163.76 197.025 166.164C197.207 167.268 197.314 168.384 197.42 169.501L197.42 169.501L197.42 169.501L197.42 169.502L197.42 169.502L197.42 169.503L197.42 169.503L197.42 169.503C197.514 170.488 197.607 171.473 197.753 172.45C197.85 173.101 198.033 173.738 198.216 174.376L198.216 174.376L198.216 174.376C198.374 174.927 198.532 175.479 198.635 176.04C198.75 176.663 198.793 177.299 198.837 177.936V177.936V177.936V177.936V177.936V177.936V177.936V177.936C198.867 178.365 198.896 178.794 198.947 179.22C199.037 179.971 199.142 180.72 199.246 181.47L199.246 181.47L199.247 181.471L199.247 181.471L199.247 181.472L199.247 181.472L199.247 181.473L199.247 181.473C199.411 182.652 199.575 183.831 199.684 185.014L199.715 185.345C199.952 187.901 200.186 190.435 199.828 193.049C199.569 194.936 199.147 196.772 198.725 198.608L198.725 198.608L198.725 198.609C198.576 199.258 198.426 199.908 198.284 200.56C198.263 200.655 198.197 200.74 198.131 200.825C198.1 200.864 198.069 200.904 198.043 200.944C198.039 200.891 198.031 200.838 198.024 200.785C198.008 200.671 197.992 200.557 198.01 200.449C198.481 197.68 198.104 194.956 197.337 192.316C196.897 190.802 196.316 189.33 195.735 187.857L195.734 187.857L195.734 187.856C195.465 187.174 195.195 186.491 194.94 185.805C194.692 185.138 194.442 184.473 194.193 183.807C193.508 181.983 192.824 180.159 192.179 178.321C191.268 175.724 190.838 173.034 190.948 170.28L190.951 170.205C191.003 168.826 191.018 165.64 190.733 165.645C190.519 165.649 190.157 165.962 190.125 166.176C189.968 167.237 189.861 168.31 189.806 169.382C189.658 172.243 189.948 175.036 190.814 177.799L190.915 178.12C191.824 181.021 192.731 183.917 194.049 186.723C194.076 186.795 194.102 186.866 194.128 186.936L194.49 187.925C194.656 188.375 194.828 188.823 195.001 189.271C195.7 191.084 196.397 192.895 196.673 194.86C197.016 197.299 197.241 199.697 196.602 202.119C196.521 202.425 196.56 202.763 196.599 203.101L196.599 203.101C196.619 203.269 196.638 203.438 196.643 203.603L196.647 203.684L196.648 203.707L196.651 203.754C196.663 203.924 196.674 204.098 196.614 204.239C196.011 205.658 187.397 219.103 185.942 221.12L185.807 221.304C185.65 221.528 185.562 221.718 185.524 221.888C182.941 223.144 180.126 223.865 177.337 224.577C183.177 225.204 188.923 222.542 193.587 218.992C196.237 216.975 198.638 214.668 201.041 212.359C202.866 210.606 204.691 208.851 206.627 207.223C207.405 206.569 208.367 205.895 209.355 206.144C208.842 208.786 208.743 211.54 209.388 214.154C210.034 216.767 211.465 219.234 213.622 220.859C211.641 218.487 210.323 215.572 209.854 212.524C209.574 210.701 209.6 208.795 210.242 207.066C210.885 205.336 212.204 203.802 213.948 203.175C213.584 206.197 213.468 209.284 214.089 212.265C214.711 215.245 216.123 218.13 218.432 220.129C215.206 216.104 213.794 210.696 214.644 205.62C214.783 204.792 214.989 203.949 215.485 203.27C215.98 202.591 216.825 202.107 217.657 202.25C215.263 207.421 217.062 214.163 221.719 217.476C218.833 214.619 217.152 210.544 217.395 206.502C217.474 205.195 217.772 203.843 218.612 202.833C219.452 201.824 220.943 201.267 222.141 201.813C220.459 203.964 220.364 206.944 220.736 209.643C221.063 212.02 222.044 214.736 224.366 215.393C221.413 212.975 220.428 208.472 222.106 205.054C222.71 203.823 223.835 202.638 225.211 202.716C226.185 202.771 227.014 203.457 227.598 204.234C227.873 204.599 228.11 204.99 228.347 205.381L228.347 205.381L228.347 205.381L228.348 205.381L228.348 205.382C228.615 205.822 228.882 206.263 229.203 206.666C230.576 203.687 230.673 199.912 228.625 197.345C227.895 196.431 226.937 195.716 225.901 195.166C222.098 193.148 217.355 193.418 213.399 195.123C209.443 196.829 206.182 199.824 203.401 203.099C201.874 204.897 200.47 206.791 199.066 208.686L199.066 208.687C197.912 210.244 196.758 211.801 195.536 213.305C193.556 215.741 191.361 218.062 188.826 219.898C189.314 219.179 189.873 218.374 190.471 217.513L190.475 217.508L190.485 217.493L190.486 217.492L190.486 217.492L190.486 217.491C193.424 213.261 197.313 207.663 198.636 203.935C200.711 198.084 201.148 194.3 201.197 192.905L201.213 192.355C201.266 190.153 201.167 187.94 200.997 185.743C200.903 184.53 200.713 183.325 200.523 182.119C200.402 181.35 200.28 180.581 200.184 179.809C200.103 179.158 200.05 178.502 199.996 177.846L199.996 177.846L199.996 177.846C199.927 176.989 199.857 176.132 199.725 175.285C199.555 174.196 199.337 173.113 199.12 172.031L199.12 172.031L199.12 172.03L199.12 172.03L199.12 172.03L199.12 172.03L199.12 172.03L199.12 172.029C198.932 171.095 198.745 170.161 198.587 169.222C198.372 167.941 198.181 166.656 197.989 165.371V165.37V165.37V165.37V165.37V165.37V165.37V165.37C197.674 163.263 197.36 161.156 196.944 159.07C196.304 155.855 195.549 152.65 194.596 149.516C193.832 147.005 192.504 144.874 189.507 144.361C187.836 144.075 186.212 144.049 184.605 144.452C180.587 145.461 176.637 146.732 172.85 148.393C170.874 149.26 168.917 150.171 166.96 151.081L166.96 151.081C163.002 152.924 159.044 154.766 154.924 156.243C154.161 156.517 153.404 156.812 152.648 157.108L152.648 157.108L152.647 157.108L152.647 157.108L152.647 157.108L152.647 157.108L152.647 157.108L152.646 157.108L152.646 157.108L152.646 157.109C151.938 157.385 151.231 157.661 150.517 157.92C150.097 158.072 149.596 158.235 149.187 158.145C148.453 157.984 147.727 157.787 147.001 157.59C146.149 157.359 145.298 157.128 144.434 156.956C143.378 156.745 142.303 156.625 141.228 156.505L141.228 156.505L141.228 156.505L141.228 156.505L141.228 156.505L141.227 156.505L141.227 156.505L141.227 156.505L141.227 156.505C140.82 156.46 140.414 156.415 140.008 156.364C139.869 156.347 139.725 156.359 139.582 156.371C139.516 156.377 139.45 156.382 139.384 156.385C139.409 156.313 139.428 156.236 139.448 156.16C139.49 155.995 139.532 155.83 139.629 155.708C141.102 153.859 142.088 151.739 143.027 149.604L143.272 149.047C143.687 148.097 143.983 147.094 144.278 146.091C144.391 145.709 144.504 145.327 144.623 144.948C144.809 144.356 144.972 143.755 145.114 143.151C145.239 142.618 145.362 142.084 145.484 141.55L146.214 138.344C146.306 137.944 146.411 137.545 146.516 137.146L146.516 137.146C146.737 136.305 146.958 135.464 147.058 134.609C147.443 131.302 147.406 127.974 147.085 124.667C146.749 121.204 146.39 117.73 145.41 114.375L145.391 114.306C145.248 113.75 145.492 113.682 145.88 113.64L146.076 113.62C147.601 113.372 155.661 112.939 180.139 119.567C199.154 125.076 204.957 127.706 207.807 130.654C214.27 138.946 215.445 165.646 200.999 172.943C201.041 172.934 201.084 172.985 201.145 173.056C201.504 173.474 202.478 174.608 207.448 168.552C216.982 156.933 213.441 133.024 209.535 129.3C206.819 126.711 189.955 120.573 181.162 117.452L177.17 116.042C176.941 115.961 176.701 115.916 176.46 115.87C176.314 115.843 176.168 115.815 176.025 115.78C175.666 115.691 175.484 115.553 175.59 115.089C175.999 113.305 176.398 111.516 176.691 109.711C176.781 109.152 177.047 109.188 177.367 109.252L177.586 109.296C178.097 109.4 178.609 109.523 179.091 109.714C181.791 110.783 184.484 111.871 187.17 112.976C188.957 113.71 190.741 114.454 192.501 115.249C193.904 115.883 195.086 115.346 195.811 114.265C196.786 112.814 197.601 111.237 198.33 109.643C199.208 107.725 199.672 105.679 200.077 103.614L200.257 102.684C200.73 100.216 200.338 97.9012 199.286 95.6968C198.829 94.7384 198.266 93.8304 197.703 92.9226L197.702 92.9218L197.702 92.9211L197.702 92.9206C197.468 92.5438 197.234 92.1671 197.008 91.7869C196.917 91.6332 196.834 91.4663 196.751 91.299C196.548 90.8911 196.344 90.4807 196.015 90.2536C195.057 89.5906 194.006 89.0059 192.915 88.5998C190.89 87.8464 188.844 87.1511 186.799 86.4558L186.798 86.4556L186.796 86.4548C185.976 86.1764 185.157 85.8981 184.34 85.616C184.329 85.6123 184.318 85.6083 184.307 85.6043C184.291 85.5983 184.276 85.592 184.26 85.5858L184.259 85.5857C184.214 85.5679 184.169 85.5502 184.123 85.5383C183.568 85.3954 183.014 85.2518 182.459 85.1082C180.979 84.7248 179.499 84.3414 178.015 83.9733C177.728 83.9022 177.44 83.8364 177.152 83.7729C177.158 83.7553 177.163 83.7369 177.167 83.7179L179.463 72.3242L179.477 72.2412C179.604 71.411 179.126 70.6006 178.327 70.3153ZM80.4695 184.601C80.3736 184.739 80.3097 184.739 80.2782 184.638C75.8864 185.505 71.8696 187.901 68.5223 190.877C64.8488 194.143 61.8836 198.1 58.9419 202.027L58.9144 202.063C55.9637 206.002 52.9794 209.967 49.276 213.223C49.4092 213.538 49.8902 213.377 50.1633 213.168C53.3171 210.758 56.1255 207.956 58.9356 205.153C60.8135 203.279 62.6922 201.405 64.6754 199.646C69.6262 195.255 75.567 191.472 82.1973 191.011C84.2546 190.868 86.321 191.051 88.3665 191.311C89.6 191.468 90.8444 191.658 91.9928 192.131C93.7679 192.861 95.2445 194.277 96.039 196.01C96.5036 194.806 96.7665 193.486 96.514 192.221C96.2941 191.119 95.6964 190.122 94.9839 189.248C92.4129 186.093 88.3176 184.444 84.1986 184.309C84.1514 184.399 84.107 184.492 84.0654 184.588C84.0001 184.738 83.8037 184.832 83.6074 184.925C83.5168 184.968 83.4261 185.012 83.3484 185.06C83.3164 184.938 83.2659 184.807 83.2154 184.677C83.1672 184.552 83.1189 184.427 83.0868 184.309C82.5949 184.326 82.1045 184.364 81.6183 184.423C81.2327 184.471 80.8497 184.53 80.4695 184.601ZM142.115 114.521C142.891 114.804 143.512 113.941 143.794 113.165C144.077 112.388 143.565 111.436 142.789 111.153C142.012 110.871 141.332 111.458 141.049 112.234C140.766 113.011 141.338 114.239 142.115 114.521ZM150.861 105.871C150.796 105.942 150.753 106.032 150.709 106.122C150.689 106.163 150.668 106.204 150.646 106.243C150.688 106.245 150.73 106.249 150.772 106.252C150.863 106.26 150.955 106.268 151.044 106.256C151.188 106.238 151.331 106.213 151.474 106.187L151.474 106.187C151.684 106.15 151.893 106.113 152.103 106.098C156.453 105.797 160.802 105.673 165.164 105.888C167.913 106.024 170.637 106.315 173.298 106.969C175.798 107.584 178.263 108.362 180.71 109.169C182.067 109.617 183.389 110.174 184.71 110.73L185.067 110.88C185.214 110.942 185.361 111.004 185.508 111.065C186.937 111.661 188.351 112.294 189.758 112.939C190.352 113.211 190.93 113.52 191.508 113.829C191.644 113.901 191.78 113.974 191.917 114.046C193.051 114.648 194.346 114.461 194.963 113.453C195.738 112.185 196.461 110.872 197.072 109.518C198.143 107.142 198.736 104.615 199.154 102.049C199.368 100.733 199.38 99.4022 198.882 98.1615C198.295 96.6989 197.612 95.2688 196.88 93.8727C196.516 93.1785 196.045 92.4672 195.442 91.9913C194.916 91.5757 194.237 91.3306 193.574 91.1056L193.27 91.0026C189.673 89.7791 186.071 88.5719 182.46 87.3941C181.159 86.9699 179.838 86.5916 178.505 86.2852C176.437 85.81 174.357 85.3838 172.271 84.9938C170.371 84.6386 168.464 84.311 166.548 84.0588C164.2 83.7495 161.842 83.5098 159.484 83.2841C158.647 83.204 157.802 83.2001 156.959 83.1963L156.747 83.1953L156.569 83.1943L156.515 83.1922L156.483 83.19L156.44 83.1864C156.197 83.1661 155.895 83.1408 156.028 83.5713L156.047 83.6288C156.844 85.8202 156.614 88.0711 156.318 90.2889C156.154 91.5168 155.894 92.7314 155.634 93.9465L155.634 93.9468L155.634 93.947L155.634 93.9471L155.634 93.9472L155.634 93.9473L155.634 93.9473L155.634 93.9474L155.634 93.9475L155.634 93.9476C155.509 94.5306 155.385 95.1137 155.27 95.6985L155.168 96.2401C154.748 98.5479 154.063 100.769 153.056 102.883C152.879 103.253 152.651 103.599 152.404 103.972L152.404 103.973L152.404 103.973C152.236 104.227 152.06 104.493 151.886 104.789L151.199 105.507C151.085 105.627 150.972 105.748 150.861 105.871ZM142.763 146.909C143.028 146.236 142.836 145.953 142.115 145.958L141.948 145.959C141.809 145.959 141.67 145.959 141.53 145.959C140.682 145.959 139.832 145.96 138.995 146.062C138.06 146.176 137.131 146.332 136.201 146.488L136.2 146.488L136.2 146.488L136.199 146.488L136.199 146.488L136.198 146.489L136.198 146.489L136.198 146.489C135.414 146.62 134.63 146.752 133.843 146.858C130.214 147.349 126.655 148.117 123.231 149.44L122.712 149.643C119.518 150.906 116.48 152.402 113.988 154.906C112.624 156.276 111.866 157.904 111.523 159.674C111.309 160.779 111.257 161.914 111.205 163.05C111.172 163.775 111.139 164.501 111.064 165.22C111.006 165.77 111.22 165.725 111.492 165.669C111.518 165.663 111.545 165.658 111.572 165.652L111.606 165.646C112.509 165.49 113.412 165.33 114.315 165.171L114.315 165.171C116.184 164.841 118.053 164.51 119.926 164.21C121.182 164.008 122.444 163.851 123.707 163.701L125.223 163.52C125.238 163.519 125.252 163.517 125.266 163.516L125.316 163.511L125.316 163.511C125.537 163.489 125.669 163.476 125.537 163.183L125.514 163.135C124.734 161.553 124.957 159.911 125.397 158.32C125.788 156.909 126.327 155.533 126.896 154.181C127.364 153.068 128.008 151.991 129.098 151.405C130.621 150.587 132.189 149.822 133.805 149.211C135.988 148.384 138.31 148.16 140.619 147.937L140.986 147.901C141.18 147.882 141.392 148.042 141.604 148.202C141.702 148.275 141.8 148.349 141.896 148.406C141.825 148.462 141.756 148.521 141.686 148.579C141.517 148.722 141.347 148.864 141.16 148.976C141.077 149.025 140.964 149.023 140.85 149.02C140.789 149.019 140.728 149.017 140.671 149.024L140.084 149.093C136.957 149.473 133.877 150.045 131.057 151.561C130.363 151.934 129.61 152.372 129.157 152.983C128.41 153.988 127.829 155.133 127.286 156.27C127.091 156.68 126.979 157.128 126.867 157.577C126.808 157.816 126.748 158.054 126.676 158.288L126.61 158.488C126.209 159.635 126.147 160.801 126.333 161.983C126.482 162.927 127.036 163.403 127.735 163.284C128.303 163.187 128.872 163.095 129.441 163.003C130.213 162.878 130.985 162.753 131.754 162.617C132.34 162.513 132.926 162.413 133.512 162.314L133.513 162.314C135.163 162.033 136.815 161.753 138.445 161.384C140.6 160.896 142.739 160.341 144.878 159.786L144.879 159.786L144.88 159.786L144.881 159.785L144.882 159.785C145.712 159.57 146.541 159.355 147.371 159.143C147.443 159.125 147.508 159.081 147.573 159.036C147.603 159.016 147.634 158.995 147.665 158.977C147.642 158.947 147.622 158.91 147.601 158.874L147.601 158.874L147.601 158.873L147.601 158.873C147.556 158.794 147.511 158.714 147.448 158.696C147.133 158.604 146.811 158.537 146.489 158.471L146.489 158.47L146.414 158.455L146.303 158.432C145.949 158.358 145.596 158.276 145.242 158.195L145.242 158.195L145.242 158.195C144.428 158.009 143.613 157.822 142.789 157.717C140.847 157.47 138.895 157.293 136.942 157.159L136.181 157.109C133.647 156.95 131.118 156.906 128.651 157.789L128.38 157.893C128.062 158.009 127.669 158.091 127.523 157.621C127.366 157.114 127.853 156.864 128.271 156.681C128.354 156.644 128.443 156.62 128.532 156.597L128.621 156.574C131.233 155.885 133.872 155.731 136.545 156.078L136.843 156.118C137.395 156.197 137.969 156.159 138.326 155.544C138.768 154.783 139.218 154.025 139.674 153.255L139.675 153.253C140.208 152.355 140.751 151.44 141.305 150.481C141.449 150.13 141.594 149.779 141.739 149.429C142.085 148.591 142.432 147.753 142.763 146.909ZM178.167 84.85C176.701 84.5068 175.228 84.1923 173.754 83.8839L172.649 83.6534C172.299 83.5808 171.95 83.5066 171.601 83.4323L171.601 83.4323C170.306 83.1571 169.011 82.8817 167.705 82.6849C165.74 82.3891 163.763 82.1442 161.782 82.0043C160.369 81.9044 158.949 81.891 157.53 81.8775C157.029 81.8728 156.527 81.868 156.026 81.8595C155.944 81.8581 155.86 81.9116 155.777 81.9652L155.777 81.9652C155.738 81.9901 155.699 82.015 155.661 82.0344C155.701 82.0553 155.741 82.0814 155.781 82.1076C155.867 82.1642 155.953 82.2208 156.041 82.2239C156.36 82.2354 156.679 82.2351 156.998 82.2348H156.998C157.509 82.2343 158.02 82.2339 158.527 82.2815C160.86 82.5007 163.191 82.7475 165.518 83.0246C167.023 83.2039 168.527 83.4189 170.019 83.6844C171.155 83.8863 172.285 84.117 173.414 84.354L175.107 84.7112C176.615 85.0285 178.124 85.3464 179.622 85.7054C180.804 85.9886 181.978 86.3135 183.144 86.6577C185.02 87.2117 186.896 87.7713 188.756 88.3777C189.601 88.6533 190.435 88.963 191.269 89.2729C191.739 89.4474 192.209 89.622 192.681 89.7904C192.744 89.8127 192.819 89.7973 192.895 89.782C192.93 89.7748 192.965 89.7677 192.999 89.7644C192.979 89.7382 192.961 89.7079 192.943 89.6776C192.904 89.6125 192.865 89.5473 192.809 89.5234C192.529 89.4047 192.25 89.283 191.97 89.1613L191.97 89.1612L191.969 89.1609C191.163 88.8097 190.357 88.4583 189.527 88.1763C188.904 87.9645 188.264 87.804 187.623 87.6433L187.623 87.6433C187.132 87.5203 186.642 87.3972 186.158 87.251C185.104 86.9323 184.059 86.5848 182.955 86.2177L182.953 86.2172L182.948 86.2154C182.561 86.0867 182.166 85.9556 181.762 85.8225C181.392 85.7214 181.022 85.6168 180.652 85.5123C179.827 85.2788 179.001 85.0454 178.167 84.85ZM184.042 167.452L184.041 167.455L184.039 167.457L184.034 167.469C183.608 168.319 183.178 169.178 182.741 170.058C182.662 170.217 182.583 170.362 182.507 170.501C182.394 170.709 182.289 170.902 182.202 171.103C181.858 171.901 181.518 172.701 181.178 173.501L181.177 173.503L181.176 173.504L181.176 173.506L181.175 173.507L181.175 173.508L181.174 173.51C180.77 174.461 180.366 175.412 179.954 176.36C179.398 177.639 178.83 178.913 178.237 180.176C177.353 182.054 176.453 183.924 175.541 185.788C174.762 187.378 173.966 188.96 173.16 190.535C172.267 192.278 171.366 194.018 170.445 195.746C169.297 197.897 168.146 200.046 166.957 202.175C166.16 203.602 165.34 205.015 164.52 206.429C164.149 207.07 163.777 207.71 163.408 208.351C163.082 208.918 162.758 209.485 162.433 210.052C161.722 211.293 161.011 212.535 160.287 213.769C160.127 214.041 159.969 214.313 159.81 214.586L159.81 214.587L159.81 214.587L159.81 214.587L159.81 214.587L159.81 214.587L159.81 214.587C159.144 215.733 158.477 216.881 157.721 217.964C157.244 218.647 156.696 219.278 156.146 219.91L156.146 219.91L156.146 219.911C155.793 220.317 155.44 220.723 155.106 221.144C154.962 221.325 154.904 221.842 154.981 221.883L154.999 221.894L155.013 221.901C155.036 221.914 155.059 221.928 155.083 221.943L155.084 221.943C155.319 222.084 155.582 222.241 155.892 221.866C156.205 221.488 156.55 221.133 156.895 220.779C157.396 220.265 157.896 219.752 158.295 219.168C159.271 217.737 160.15 216.239 161.029 214.743L161.029 214.742L161.03 214.74L161.032 214.737C161.215 214.425 161.398 214.114 161.582 213.803C162.162 212.821 162.728 211.831 163.294 210.841L163.294 210.84L163.295 210.839L163.295 210.838L163.296 210.837L163.297 210.836L163.297 210.835C163.764 210.018 164.232 209.2 164.707 208.388C165.082 207.747 165.467 207.112 165.853 206.478C166.245 205.834 166.636 205.19 167.016 204.539C167.848 203.115 168.67 201.684 169.461 200.237C169.783 199.647 170.085 199.045 170.387 198.443C170.646 197.926 170.906 197.409 171.178 196.899C171.52 196.26 171.872 195.626 172.224 194.992C172.688 194.157 173.152 193.322 173.592 192.475C173.972 191.744 174.326 190.999 174.681 190.255C174.974 189.64 175.267 189.024 175.574 188.416C175.948 187.677 176.333 186.944 176.719 186.211L176.719 186.211L176.719 186.211L176.719 186.211L176.719 186.211L176.719 186.211L176.719 186.211C177.257 185.187 177.795 184.164 178.301 183.126C179.074 181.538 179.791 179.923 180.508 178.309L180.508 178.308L180.75 177.765C181.1 176.977 181.439 176.184 181.779 175.391C182.129 174.573 182.479 173.754 182.841 172.941C183.62 171.194 184.408 169.449 185.234 167.723C185.673 166.807 186.134 165.902 186.595 164.997C186.927 164.348 187.258 163.698 187.58 163.044C187.957 162.281 188.326 161.514 188.695 160.747L188.696 160.743L188.696 160.743L188.696 160.743L188.696 160.743L188.697 160.743L188.697 160.743L188.697 160.742C189.385 159.31 190.073 157.877 190.814 156.472C190.97 156.176 191.118 155.875 191.267 155.573C191.82 154.448 192.377 153.318 193.343 152.442C193.536 152.268 193.575 151.854 193.562 151.556C193.558 151.442 193.194 151.235 193.023 151.261C192.794 151.297 192.524 151.47 192.393 151.666C191.997 152.258 191.618 152.862 191.239 153.466L191.239 153.466L191.239 153.466L191.239 153.466L191.238 153.466L191.238 153.466L191.237 153.468C190.978 153.881 190.718 154.294 190.454 154.703C188.859 157.168 187.634 159.82 186.465 162.503C186.134 163.265 185.761 164.01 185.389 164.755C185.308 164.916 185.228 165.077 185.148 165.239C184.782 165.974 184.415 166.708 184.044 167.448L184.042 167.452ZM178.429 160.681C178.078 162.357 177.717 163.986 177.324 165.607C177.175 166.226 176.987 166.836 176.8 167.445L176.8 167.446L176.8 167.446L176.8 167.446L176.8 167.447L176.8 167.447C176.76 167.577 176.72 167.708 176.68 167.838C176.611 168.066 176.543 168.293 176.474 168.521L176.472 168.529C176.23 169.334 175.989 170.139 175.714 170.933C174.345 174.88 172.961 178.821 171.575 182.762C171.306 183.529 171.025 184.293 170.745 185.056C170.616 185.406 170.488 185.756 170.36 186.107C170.144 186.7 169.935 187.296 169.726 187.893C169.251 189.247 168.776 190.601 168.221 191.921C167.582 193.44 166.86 194.925 166.139 196.41C165.886 196.931 165.633 197.451 165.384 197.974C164.757 199.286 164.117 200.593 163.467 201.894C163.081 202.666 162.69 203.436 162.299 204.205C161.71 205.363 161.122 206.521 160.551 207.688C160.28 208.241 160.032 208.806 159.784 209.371L159.784 209.371C159.491 210.037 159.199 210.703 158.869 211.351C158.241 212.584 157.551 213.787 156.862 214.989L156.643 215.37C155.91 216.65 155.167 217.924 154.389 219.176C154.026 219.759 153.592 220.303 153.145 220.825C153.041 220.947 152.871 221.013 152.701 221.079L152.7 221.079L152.7 221.08C152.623 221.11 152.545 221.14 152.474 221.175C152.46 221.088 152.434 220.994 152.407 220.901C152.35 220.698 152.292 220.495 152.361 220.354C152.765 219.527 153.239 218.733 153.712 217.943C154.004 217.455 154.306 216.973 154.607 216.491L154.608 216.491L154.608 216.491L154.608 216.491L154.608 216.49C155.125 215.665 155.641 214.839 156.11 213.987C157.091 212.205 158.004 210.384 158.909 208.562C159.206 207.962 159.479 207.35 159.752 206.738C160.005 206.169 160.259 205.6 160.533 205.041C160.948 204.193 161.38 203.354 161.812 202.515C162.144 201.871 162.476 201.226 162.8 200.578L162.907 200.365L162.987 200.205L163.154 199.874C163.701 198.786 164.249 197.697 164.738 196.583C165.916 193.895 167.058 191.19 168.18 188.477C168.45 187.824 168.685 187.156 168.92 186.488C169.099 185.98 169.278 185.471 169.473 184.969C169.631 184.56 169.81 184.159 169.989 183.757L169.989 183.757C170.17 183.349 170.351 182.942 170.512 182.527C170.988 181.292 171.439 180.048 171.869 178.797C171.997 178.424 172.101 178.043 172.206 177.661L172.206 177.661L172.206 177.661L172.206 177.661L172.206 177.661L172.206 177.661C172.302 177.311 172.398 176.962 172.512 176.619C172.66 176.171 172.825 175.728 172.99 175.286L172.99 175.285L172.99 175.285L172.991 175.284L172.991 175.284L172.991 175.283C173.142 174.878 173.292 174.474 173.431 174.065C173.529 173.776 173.627 173.487 173.726 173.198C174.182 171.858 174.638 170.518 175.045 169.163C175.587 167.355 176.128 165.541 176.533 163.699C176.816 162.416 177.05 161.121 177.285 159.827L177.285 159.826C177.501 158.635 177.717 157.443 177.97 156.259C178.35 154.485 178.63 152.729 178.342 150.909C178.321 150.773 178.511 150.603 178.7 150.433C178.788 150.354 178.876 150.275 178.943 150.2C179.007 150.283 179.083 150.365 179.159 150.446C179.323 150.622 179.488 150.798 179.524 150.998C179.793 152.468 179.674 153.943 179.406 155.403C179.285 156.065 179.16 156.726 179.034 157.39C178.829 158.476 178.622 159.569 178.429 160.681ZM229.393 201.581C229.59 202.57 229.385 203.602 229.023 204.544C228.404 203.189 227.254 202.081 225.872 201.51C224.977 201.14 224.008 200.992 223.047 200.87C221.454 200.666 219.844 200.523 218.242 200.635C213.078 200.995 208.451 203.953 204.595 207.387C203.05 208.762 201.587 210.227 200.124 211.692C197.935 213.885 195.748 216.075 193.292 217.96C193.079 218.123 192.704 218.249 192.601 218.002C195.485 215.457 197.809 212.356 200.108 209.277L200.129 209.248C202.42 206.178 204.73 203.084 207.591 200.53C210.461 197.968 213.963 195.956 217.791 195.484C221.619 195.011 225.779 196.272 228.201 199.256C228.756 199.94 229.222 200.719 229.393 201.581ZM141.04 207.418C140.76 212.067 142.695 216.757 146.017 220.043C140.657 216.232 138.587 208.475 141.342 202.525C140.384 202.36 139.412 202.917 138.841 203.699C138.271 204.48 138.033 205.45 137.874 206.402C136.896 212.242 138.521 218.465 142.233 223.095C139.576 220.795 137.951 217.477 137.235 214.048C136.52 210.619 136.654 207.067 137.073 203.589C135.065 204.311 133.548 206.076 132.808 208.066C132.068 210.056 132.039 212.249 132.361 214.345C132.901 217.852 134.417 221.206 136.698 223.936C134.215 222.066 132.567 219.228 131.825 216.221C131.082 213.214 131.196 210.045 131.786 207.005C130.65 206.719 129.542 207.495 128.647 208.247C126.419 210.12 124.318 212.139 122.217 214.156L122.217 214.157C119.474 216.792 116.732 219.425 113.71 221.733C114.154 221.656 114.602 221.65 115.041 221.761C115.486 221.874 115.86 222.098 116.228 222.318L116.283 222.351C122.574 226.107 130.732 228.083 138.783 227.799C140.926 227.724 143.1 227.485 145.026 226.78C145.515 226.6 146.319 226.497 146.414 226.897C146.428 226.958 146.347 227.028 146.184 227.105C150.923 226.135 155.485 224.681 159.69 222.784C160.727 222.316 161.932 221.802 163.08 222.094C163.525 222.207 163.899 222.431 164.266 222.65L164.322 222.684C169.889 226.008 176.92 227.938 184.044 228.141C184.063 228.136 184.084 228.134 184.106 228.133C186.99 228.012 189.86 227.714 192.68 227.246C192.809 227.203 192.937 227.159 193.065 227.112C193.393 226.992 193.862 226.906 194.164 226.983C199.287 226.018 204.219 224.491 208.739 222.452C209.776 221.984 210.981 221.47 212.129 221.761C212.574 221.874 212.948 222.098 213.315 222.318L213.371 222.351C219.662 226.107 227.82 228.083 235.871 227.799C238.014 227.724 240.188 227.485 242.114 226.78C242.603 226.6 243.407 226.497 243.501 226.897C243.647 227.514 233.872 229.173 228.107 228.406C224.407 227.914 221.777 227.358 219.182 226.81L219.182 226.809L219.182 226.809L219.181 226.809L219.18 226.809C217.733 226.503 216.296 226.2 214.692 225.911C213.622 225.718 212.539 225.541 211.439 225.527C209.988 225.51 208.562 225.777 207.156 226.044L199.235 227.543C196.096 228.137 192.892 228.734 189.68 228.927C186.197 229.381 182.558 229.207 179.058 228.739C176.188 228.355 173.375 227.781 170.561 227.207C168.925 226.873 167.29 226.54 165.643 226.243C164.573 226.051 163.49 225.873 162.39 225.86C160.939 225.842 159.513 226.11 158.107 226.376L150.186 227.875C145.408 228.779 140.482 229.69 135.602 229.173C135.331 229.144 135.035 229.1 134.865 228.941C134.766 228.848 134.755 228.708 134.815 228.603C133.464 228.615 132.163 228.558 131.019 228.406C127.319 227.914 124.689 227.358 122.094 226.81L122.093 226.809C120.646 226.503 119.209 226.2 117.604 225.911C116.535 225.718 115.451 225.541 114.351 225.527C112.901 225.51 111.474 225.777 110.068 226.044L103.2 227.343C101.501 227.859 99.7622 228.191 98.0034 228.289C96.2092 228.581 94.4023 228.818 92.5926 228.927C89.1092 229.381 85.4702 229.207 81.9699 228.739C79.1002 228.355 76.287 227.781 73.4731 227.207C71.8377 226.873 70.2021 226.54 68.555 226.243C67.4856 226.051 66.402 225.873 65.3019 225.86C63.8515 225.842 62.4253 226.11 61.0193 226.376L53.0978 227.875C48.3204 228.779 43.3941 229.69 38.5144 229.173C38.2435 229.144 37.9475 229.1 37.7772 228.941C37.6069 228.781 37.6956 228.477 37.9688 228.465C46.6363 228.104 55.1749 226.134 62.6024 222.784C63.6396 222.316 64.8447 221.802 65.9922 222.094C66.4369 222.207 66.8114 222.431 67.1786 222.65L67.2339 222.684C72.8017 226.008 79.8323 227.938 86.9565 228.141C86.9602 228.14 86.964 228.139 86.9679 228.138C86.9709 228.138 86.9739 228.137 86.977 228.137C86.9901 228.135 87.0037 228.133 87.0178 228.133C89.9022 228.012 92.7723 227.714 95.5919 227.246C95.7213 227.203 95.8497 227.159 95.977 227.112C96.3049 226.992 96.7744 226.906 97.0767 226.983C99.4113 226.543 101.707 225.987 103.941 225.318C104.217 225.19 104.491 225.057 104.763 224.919C109.179 222.669 112.762 219.081 115.881 215.245C117.288 213.514 118.616 211.722 119.945 209.93L119.945 209.93L119.945 209.93L119.945 209.93C121.561 207.75 123.177 205.57 124.933 203.502C128.134 199.734 131.888 196.288 136.441 194.326C140.994 192.363 146.453 192.053 150.831 194.375C152.022 195.007 153.125 195.83 153.965 196.881C156.323 199.835 156.211 204.179 154.63 207.606C154.261 207.142 153.953 206.635 153.645 206.128L153.645 206.127C153.373 205.678 153.1 205.228 152.784 204.808C152.111 203.913 151.157 203.125 150.035 203.062C148.452 202.972 147.157 204.335 146.462 205.751C144.531 209.684 145.664 214.865 149.063 217.647C146.391 216.891 145.262 213.766 144.885 211.031C144.458 207.925 144.566 204.498 146.503 202.023C145.124 201.394 143.407 202.035 142.441 203.197C141.474 204.358 141.131 205.914 141.04 207.418ZM154.423 205.164C154.84 204.08 155.075 202.894 154.849 201.755C154.652 200.764 154.116 199.867 153.477 199.081C150.689 195.647 145.902 194.197 141.496 194.74C137.09 195.284 133.06 197.598 129.756 200.546C126.463 203.484 123.805 207.044 121.168 210.577L121.168 210.577L121.143 210.61C118.498 214.153 115.823 217.72 112.503 220.649C112.623 220.932 113.054 220.788 113.299 220.6C116.126 218.432 118.643 215.911 121.162 213.389C122.846 211.703 124.53 210.017 126.308 208.435C130.746 204.485 136.071 201.081 142.015 200.667C143.859 200.538 145.712 200.703 147.545 200.937C148.651 201.078 149.767 201.249 150.796 201.674C152.387 202.331 153.711 203.605 154.423 205.164Z" fill="#00160A"/>
<path fill-rule="evenodd" clip-rule="evenodd" d="M157.627 178.413C156.991 179.962 156.002 181.167 154.781 182.155C152.949 183.638 150.869 184.203 148.57 183.444C147.144 182.972 145.74 182.48 144.595 181.38C143.19 180.032 142.698 178.412 142.78 176.557C142.812 175.84 142.805 175.056 143.09 174.427C143.773 172.919 144.505 171.419 145.969 170.434C147.718 169.259 149.572 168.465 151.718 168.523C154.539 168.599 156.628 169.914 157.968 172.366C158.682 173.671 158.466 175.088 158.164 176.47C158.027 177.101 157.826 177.718 157.627 178.413ZM144.054 176.171C144.135 177.115 143.996 178.147 144.337 178.985C145.3 181.35 147.428 182.282 149.756 182.589C152.255 182.918 154.075 181.563 155.535 179.666C156.434 178.497 156.871 177.125 157.122 175.709C157.366 174.34 157.26 173.002 156.311 171.85C155.545 170.92 154.613 170.263 153.429 170.027C152.58 169.858 151.673 169.537 150.865 169.683C147.64 170.265 144.711 171.886 144.054 176.171Z" fill="#FFB61D"/>
<path fill-rule="evenodd" clip-rule="evenodd" d="M185.872 192.454C186.008 189.547 187.208 187.242 189.403 185.491C190.765 184.405 192.347 184.893 193.241 186.522C194.367 188.576 194.486 190.712 193.558 192.817C192.838 194.448 191.722 195.795 190.018 196.595C188.75 197.191 187.142 196.602 186.617 195.393C186.227 194.495 186.094 193.486 185.872 192.454ZM187.198 191.056C187.175 191.27 187.143 191.483 187.13 191.698C187.059 192.848 187.093 193.973 187.715 195.01C188.102 195.655 189.051 195.955 189.648 195.545C191.151 194.514 192.332 193.21 192.777 191.405C193.119 190.021 193.12 188.617 192.402 187.313C191.872 186.351 190.887 185.972 190.148 186.455C189.813 186.674 189.532 186.977 189.238 187.253C188.174 188.253 187.691 189.572 187.198 191.056Z" fill="#FFB61D"/>
<path fill-rule="evenodd" clip-rule="evenodd" d="M149.027 172.054C149.906 171.309 151.756 171.277 152.738 171.898C155.929 173.919 154.653 178.045 152.42 179.533C150.24 180.985 147.344 179.505 146.646 177.615C146.29 176.654 146.432 175.76 146.81 174.809C147.269 173.655 147.93 172.729 149.027 172.054ZM148.754 176.737C148.636 176.462 148.414 176.185 148.423 175.914C148.437 175.482 148.616 175.056 148.7 174.623C148.745 174.391 148.739 174.15 148.755 173.913C148.588 174.115 148.349 174.291 148.267 174.524C148.069 175.082 147.928 175.663 147.793 176.241C147.488 177.555 148.865 179.157 150.242 179.029C151.858 178.878 152.8 177.904 153.302 176.395C153.814 174.858 153.351 173.529 151.953 172.751C151.472 172.483 150.596 172.628 150.428 173.082C150.116 173.925 149.912 174.807 149.628 175.661C149.473 176.124 149.766 176.935 148.754 176.737Z" fill="#FFB61D"/>
<path fill-rule="evenodd" clip-rule="evenodd" d="M189.898 193.633C188.212 193.333 187.497 192.08 188.051 190.51C188.354 189.65 188.61 188.774 189.386 188.174C190.047 187.663 190.717 187.636 191.469 187.941C192.118 188.205 192.328 188.745 192.379 189.337C192.534 191.161 191.707 193.113 190.23 193.595C190.143 193.623 190.042 193.606 189.898 193.633ZM190.782 191.543C190.931 191.135 191.112 190.734 191.216 190.315C191.28 190.057 191.225 189.77 191.224 189.496C191.096 189.676 190.971 189.856 190.84 190.033C190.742 190.167 190.662 190.352 190.528 190.412C190.35 190.491 190.084 190.55 189.936 190.47C189.809 190.402 189.741 190.123 189.747 189.941C189.752 189.795 189.928 189.663 189.99 189.509C190.045 189.376 190.047 189.222 190.073 189.078C189.938 189.153 189.721 189.2 189.683 189.31C189.498 189.841 189.362 190.389 189.206 190.931C189.041 191.502 188.979 192.171 189.542 192.437C190.084 192.693 190.417 192.087 190.782 191.543Z" fill="#FFB61D"/>
<path fill-rule="evenodd" clip-rule="evenodd" d="M264.557 105.732C263.597 105.705 263.501 105.601 263.493 104.501C263.472 104.404 263.442 104.32 263.415 104.243L263.415 104.243L263.415 104.242C263.376 104.135 263.344 104.043 263.349 103.953C263.384 103.332 262.921 103.335 262.596 103.46C262.398 103.536 262.236 103.946 262.227 104.212C262.22 104.427 262.266 104.644 262.312 104.861C262.352 105.048 262.392 105.237 262.398 105.425C262.402 105.575 262.203 105.805 262.046 105.866C261.887 105.927 261.694 105.91 261.506 105.893C261.458 105.889 261.411 105.885 261.364 105.882C260.94 105.855 260.449 105.89 260.472 106.388C260.481 106.592 261.071 106.948 261.375 106.926C262.262 106.863 262.769 107.123 262.99 108.03C263.032 108.204 263.254 108.335 263.475 108.466C263.577 108.526 263.678 108.586 263.763 108.65C263.799 108.56 263.85 108.465 263.901 108.371C264.013 108.165 264.124 107.96 264.08 107.796C263.868 107.009 264.215 106.834 264.893 106.788C265.07 106.776 265.241 106.665 265.411 106.554C265.489 106.504 265.566 106.454 265.645 106.412C265.583 106.351 265.522 106.288 265.461 106.226L265.461 106.225C265.311 106.07 265.161 105.914 264.99 105.785C264.913 105.727 264.785 105.729 264.664 105.732C264.627 105.732 264.591 105.733 264.557 105.732ZM68.7511 105.708C68.7479 105.688 68.7436 105.66 68.7167 105.615C67.8947 105.264 67.5522 105.436 67.5335 106.195C67.5226 106.635 67.369 106.841 66.9261 106.989C66.6173 107.093 66.194 107.469 66.1902 107.729C66.184 108.148 66.6454 108.249 67.0564 108.189C67.5818 108.112 67.6918 108.383 67.6912 108.85C67.6905 109.34 67.713 109.853 67.8633 110.31C67.9127 110.46 68.1134 110.56 68.3142 110.66C68.4051 110.706 68.4961 110.751 68.573 110.801C68.6065 110.737 68.6426 110.674 68.6788 110.611L68.6789 110.61L68.6789 110.61C68.7636 110.462 68.8482 110.314 68.8987 110.156C68.9344 110.043 68.9256 109.917 68.9167 109.79V109.79C68.9127 109.734 68.9088 109.678 68.9088 109.622C68.9088 108.201 68.9121 108.199 70.1479 107.764L70.1762 107.754C70.3229 107.702 70.4492 107.593 70.5755 107.484L70.5755 107.484C70.6338 107.433 70.6922 107.383 70.7525 107.338C70.689 107.283 70.628 107.22 70.5671 107.158C70.4321 107.019 70.2971 106.881 70.1336 106.823C69.6879 106.665 68.9065 106.11 68.7563 105.73C68.7536 105.723 68.7525 105.716 68.7511 105.708ZM239.306 133.422C239.7 133.422 239.87 134.783 239.944 135.369C239.957 135.473 239.967 135.553 239.974 135.596C239.995 135.715 240.37 135.72 240.746 135.724C241.121 135.729 241.496 135.733 241.519 135.852C241.542 135.967 241.169 136.168 240.818 136.357C240.521 136.517 240.24 136.668 240.225 136.753C240.213 136.822 240.203 136.92 240.192 137.036L240.192 137.037C240.14 137.558 240.054 138.422 239.582 138.422C239.502 138.422 239.414 138.205 239.302 137.926C239.104 137.434 238.83 136.753 238.385 136.753C238.257 136.753 236.358 136.685 236.331 136.531C236.305 136.379 238.11 135.81 238.385 135.729C238.629 135.658 238.786 134.996 238.929 134.4C239.051 133.887 239.162 133.422 239.306 133.422ZM47.109 140.061C47.1966 140.46 47.2868 140.872 48.0128 140.762C48.1664 140.565 48.3113 140.366 48.3078 140.17C48.3042 139.973 48.267 139.774 48.2297 139.575C48.1376 139.084 48.0456 138.594 48.4633 138.133C48.493 138.1 48.3956 137.905 48.3161 137.828C47.8213 137.348 47.6567 136.779 47.6677 136.09C47.6706 135.91 47.2292 135.661 46.951 135.573C46.8585 135.543 46.5567 135.894 46.4966 136.111C46.4191 136.391 46.3956 136.755 46.513 137.007C46.7357 137.483 46.4613 137.565 46.1835 137.647C46.1428 137.659 46.102 137.671 46.0627 137.684C45.9698 137.716 45.869 137.731 45.7689 137.745C45.6263 137.766 45.4852 137.787 45.3709 137.856C45.0973 138.019 44.6357 138.376 44.6751 138.466C44.8275 138.814 45.1169 139.026 45.6074 138.823C45.9297 138.689 46.3772 138.704 46.7103 138.819C46.7883 138.847 46.8097 138.998 46.8338 139.168C46.8557 139.323 46.88 139.494 46.9518 139.601C47.0355 139.725 47.072 139.892 47.109 140.061Z" fill="#00160A"/>
<path d="M184.319 175.836L265.448 175.841L184.319 175.836Z" fill="#4A0DBF"/>
<path fill-rule="evenodd" clip-rule="evenodd" d="M177.277 79.6602C177.277 79.6602 177.405 74.3464 178.526 73.3827C179.146 72.8499 179.257 75.772 181.483 76.3761C183.015 76.7915 184.773 75.9267 186.444 76.3319C187.161 76.5057 188.865 77.8638 188.453 78.2503C188.015 78.6608 187.329 77.6117 184.743 77.9258C183.727 78.0492 182.087 79.506 180.613 79.5975C178.534 79.7264 177.277 79.6602 177.277 79.6602Z" fill="#FFB61D"/>
<defs>
<linearGradient id="paint0_linear" x1="150.114" y1="78.9692" x2="150.114" y2="247.914" gradientUnits="userSpaceOnUse">
<stop stop-color="#60CFF8"/>
<stop offset="1" stop-color="#64A8E7" stop-opacity="0"/>
</linearGradient>
</defs>
</svg>
