<svg width="338" height="272" viewBox="0 0 338 272" fill="none" xmlns="http://www.w3.org/2000/svg">
<path fill-rule="evenodd" clip-rule="evenodd" d="M194.537 271.389C235.001 271.389 270.51 241.29 250.568 200.408C230.626 159.526 304.723 160.846 326.489 132.591C353.033 98.1325 345.346 -48.1378 174.942 41.0357C147.645 55.3202 77.5405 26.3402 54.2866 40.7196C26.9144 57.6455 -11.5966 92.3043 26.9144 127.807C45.8842 145.295 -22.1269 190.686 7.66063 231.345C36.7258 271.018 57.0999 233.198 101.351 241.29C145.603 249.382 164.485 271.389 194.537 271.389Z" fill="url(#paint0_linear)"/>
<path d="M147.572 200.266C147.572 200.266 156.888 195.883 160.367 192.834C163.845 189.785 168.169 182.21 168.169 182.21C168.169 182.21 215.669 216.514 246.64 211.621C253.776 210.493 267.681 205.75 268.567 197.392C270.989 174.572 237.489 168.74 244.806 157.167C249.273 150.103 263.149 160.616 263.149 160.616L320.702 188.925C320.702 188.925 300.819 237.937 252.568 239.901C193.213 242.317 147.572 200.266 147.572 200.266Z" fill="white"/>
<path fill-rule="evenodd" clip-rule="evenodd" d="M101.942 8.32467C101.401 8.1126 98.5004 4.56052 94.8176 3.91403C93.144 3.62025 94.663 5.75125 92.8211 5.77042C87.3355 5.82754 78.421 4.79695 76.7695 5.77042C75.5422 6.49162 78.2452 9.01113 76.7695 9.1268C62.8467 10.2181 41.6064 24.1196 36.998 30.8639C35.5315 33.0102 47.3928 29.3687 45.5029 30.4298C43.3818 31.6207 41.0293 39.4189 39.6228 45.4417C38.649 49.5892 38.0359 54.9268 37.8196 60.7332C37.6392 65.7462 37.7114 66.5757 38.4327 69.3166C39.2621 72.3821 39.9113 73.2837 41.0293 72.851C41.426 72.7067 41.6064 72.1657 41.6064 71.1559C41.6064 70.3625 42.0391 67.9822 42.5801 65.8544L43.5178 62.0315L43.9145 63.6184C44.4194 65.4577 47.3767 71.1559 50.0455 75.3034C50.1894 75.5235 50.8087 75.2435 51.3672 73.8937C51.876 72.6637 51.6695 70.6987 52.534 68.5927C54.5031 63.7956 58.3696 57.5584 62.8467 52.5658C69.4634 45.1871 71.6587 36.6477 77.8611 29.7929C89.4361 17.0005 103.964 9.11852 101.942 8.32467Z" fill="white"/>
<path fill-rule="evenodd" clip-rule="evenodd" d="M45.6674 32.1706C43.8107 33.6637 41.0544 45.7746 41.0072 45.9771C40.0334 50.1245 39.0948 64.5271 40.0542 67.2539C41.0137 69.9807 43.7003 60.1512 43.7003 60.1512C43.7003 60.1512 47.7611 70.6957 51.3492 73.5868C51.5024 73.7103 47.0842 60.5409 45.6674 52.853C43.7972 42.7045 46.7242 31.3208 45.6674 32.1706Z" fill="#E7EAEE"/>
<path fill-rule="evenodd" clip-rule="evenodd" d="M114.875 244.276C118.338 243.518 124.179 240.881 126.416 239.979C128.653 239.077 135.468 229.453 137.921 218.598C139.688 210.591 140.59 199.195 139.58 197.283C139.431 197.012 138.885 191.83 140.337 193.522C143.565 197.283 147.397 203.188 159.487 192.607C162.78 189.725 167.145 186.006 165.996 182.717C162.78 173.517 148.842 154.992 146.717 153.589C144.176 151.911 131.335 153.336 112.225 147.696C90.5523 141.299 81.5278 122.463 73.0467 124.915C66.1879 126.898 49.7548 139.084 45.6306 146.8C26.1603 183.232 49.7548 208.76 55.1282 216.092L60.3453 218.345L60.5257 222.997L60.7781 225.919C61.247 231.509 61.4273 232.014 63.9518 233.889C70.2632 238.686 82.7055 243.158 93.9577 244.744C99.1871 245.466 110.548 245.213 114.875 244.276Z" fill="white"/>
<path fill-rule="evenodd" clip-rule="evenodd" d="M62.3972 221.294L62.6497 224.216C63.1185 229.806 63.2989 230.31 65.8234 232.186C69.5467 235.016 75.4036 237.732 81.8912 239.81C86.4008 241.255 91.2151 242.391 95.8293 243.041C101.059 243.763 112.419 243.51 116.747 242.573C118.886 242.109 101.29 228.285 90.9244 232.186C82.9639 235.181 64.2013 212.332 71.8299 206.363C80.3876 199.666 64.7063 173.255 64.2013 167.521C63.6964 161.787 61.708 160.417 61.65 160.618C61.592 160.819 61.592 161.505 61.7481 163.158C62.4209 170.283 62.3972 221.294 62.3972 221.294Z" fill="#E7EAEE"/>
<path fill-rule="evenodd" clip-rule="evenodd" d="M60.5184 165.884C61.2755 165.737 62.0088 166.231 62.1562 166.988C64.8781 180.972 76.3915 190.439 96.9791 195.39C117.689 200.369 131.796 200.101 139.229 194.785C139.856 194.337 139.388 198.179 138.929 198.474C134.081 201.583 117.598 206.221 97.9291 202.029C72.7798 196.668 60.9714 175.521 59.4143 167.522C59.2669 166.765 59.7612 166.031 60.5184 165.884Z" fill="#FFB61D"/>
<path fill-rule="evenodd" clip-rule="evenodd" d="M50.0308 140.653C50.7003 140.27 75.6793 168.898 109.959 175.378C144.238 181.858 152.538 177.737 153.872 168.898C153.987 168.136 154.699 167.611 155.462 167.726C156.225 167.841 156.749 168.553 156.634 169.315C154.944 180.517 139.082 183.182 109.489 178.132C80.268 173.146 60.2341 161.298 49.5122 142.559C49.1291 141.89 49.3613 141.037 50.0308 140.653Z" fill="#FFB61D"/>
<path fill-rule="evenodd" clip-rule="evenodd" d="M193.908 139.066C192.97 138.742 191.96 138.02 191.311 137.191L190.229 135.856L194.052 132.07C199.931 126.299 204.439 120.385 208.334 113.352C209.632 111.008 212.914 103.182 212.914 102.424C212.914 102.172 213.311 101.162 213.78 100.116C214.501 98.6014 215.042 98.0244 216.593 97.1588C218.432 96.0769 220.524 95.7163 221.425 96.3294C223.157 97.4834 223.157 101.126 221.425 107.401C219.514 114.29 216.953 119.23 211.652 126.335C210.822 127.417 209.272 129.545 208.154 131.024C205.16 134.991 203.213 136.902 200.58 138.381C197.983 139.824 196.469 140.004 193.908 139.066ZM219.803 135.82L222.399 136.974C222.938 137.223 228.877 140.077 236.012 143.505C247.515 149.032 262.126 156.053 262.215 156.053C262.359 156.053 263.036 154.488 263.188 152.662C263.549 148.731 264.884 143.394 266.434 139.679C267.156 138.02 267.733 135.947 267.733 135.766C267.733 135.684 267.146 135.448 266.186 135.06C265.044 134.6 263.372 133.925 261.53 133.043C252.441 128.679 234.661 119.771 232.461 118.437C230.297 117.175 229.865 117.067 229.865 117.896C229.865 118.978 227.665 123.991 225.97 126.696C225.068 128.174 223.301 130.843 222.039 132.61L219.803 135.82ZM261.602 149.561C262.636 150.16 260.844 151.039 260.412 151.184C257.863 151.4 254.863 150.921 252.405 149.489C251.12 148.577 241 142.955 234.287 139.226C231.218 137.521 228.861 136.211 228.386 135.928C226.871 135.027 225.429 134.053 225.176 133.764C224.419 132.791 225.14 132.358 227.268 132.538C228.547 132.647 259.368 148.266 261.602 149.561ZM114.998 243.979C117.78 243.37 122.099 241.547 124.849 240.387L124.849 240.387L124.852 240.386L124.852 240.386L124.855 240.384C125.524 240.102 126.101 239.859 126.539 239.682C128.776 238.78 135.591 229.156 138.044 218.3C139.811 210.294 140.712 198.898 139.703 196.986C139.094 195.879 142.711 199.593 145.405 202.359L145.407 202.361C146.223 203.198 146.954 203.949 147.457 204.452C163.181 220.068 186.587 232.618 210.895 238.497C223.012 241.454 231.632 242.5 243.209 242.5C262.648 242.5 277.975 238.677 291.896 230.274C292.557 229.875 293.176 229.508 293.767 229.159L293.768 229.158C298.62 226.285 301.511 224.574 309.424 215.668C318.299 205.678 326.194 182.488 328.826 174.482C329.98 170.875 332.794 156.531 332.794 152.951C332.794 148.713 331.315 146.712 329.295 144.656C325.725 141.158 320.892 139.896 316.889 141.41L315.014 142.132L314.437 140.22C313.607 137.335 311.876 135.027 309.207 133.296C305.24 130.663 304.663 130.483 301.093 130.483C298.316 130.483 297.558 130.627 295.791 131.456L293.735 132.394L293.303 131.096C292.473 128.427 289.691 124.707 287.532 123.63C285.618 122.676 282.304 122.588 279.995 123.017C274.946 123.955 271.339 126.299 269.86 129.581C269.428 130.591 268.887 131.384 268.67 131.384C268.49 131.384 261.385 129.4 252.91 125.649C251.481 125.015 250.138 124.419 248.877 123.861L248.876 123.86C233.657 117.115 230.358 115.652 230.658 113.821C230.91 112.27 230.838 111.404 230.406 110.07C229.648 107.834 228.783 107.221 226.33 107.221C225.157 107.221 224.691 107.221 224.552 107.008C224.461 106.867 224.513 106.634 224.599 106.247L224.599 106.247L224.599 106.247C225.753 100.729 225.717 97.5555 224.491 95.5358C223.661 94.2014 222.688 93.6605 220.452 93.3359C219.153 93.1556 218.54 93.2638 217.098 94.0572C216.124 94.5621 215.294 94.9227 215.222 94.8506C215.15 94.7785 215.403 92.7949 215.799 90.4507C218.757 73.1035 216.472 58.1572 208.934 42.2887C208.862 42.1374 208.779 41.9586 208.684 41.754L208.683 41.7518C206.391 36.8323 197.178 17.0505 170.827 7.06889C169.635 6.61743 168.507 6.18089 167.423 5.76133L167.421 5.76073L167.42 5.76037C158.444 2.28597 152.477 -0.0237844 138.08 0.000184795C121.942 0.0270504 116.477 2.30833 105.838 7.17708C104.359 7.86231 103.061 8.25902 102.953 8.11477C102.844 7.93444 102.159 7.50166 101.474 7.14102C100.789 6.78037 99.31 5.87875 98.2281 5.15745C95.1265 3.06569 93.2151 2.20014 92.2413 2.41653C91.1233 2.70504 91.1233 3.64273 92.2413 4.07551C92.7102 4.25583 93.2512 4.86893 93.4675 5.48203C93.9364 6.78037 94.4774 6.92463 94.8019 5.84268C94.9462 5.44597 95.1626 5.15745 95.2708 5.22958C95.3118 5.25007 95.4488 5.31421 95.6579 5.41209L95.6586 5.41244L95.6587 5.41247L95.6588 5.41252C96.186 5.65931 97.1701 6.12001 98.2281 6.63611C99.7067 7.3574 101.33 8.11477 101.762 8.29509C102.556 8.58361 102.303 8.8 98.8773 10.8196C85.4972 18.6817 74.6057 30.9077 68.5107 44.8287C67.573 46.9205 66.7435 48.2188 65.878 48.9401C63.678 50.7794 59.3502 56.0088 58.3404 58.0645C57.7995 59.1825 56.6454 60.9136 55.7438 61.9234C54.8782 62.9333 53.9405 64.2316 53.6159 64.7726C53.3274 65.3496 53.0389 65.7463 52.9307 65.6742C52.8586 65.566 52.9668 63.7988 53.2192 61.7431C53.7602 56.9465 53.7602 55.6842 53.3274 55.576C52.6783 55.3957 51.7406 57.9203 51.3439 61.0579C51.0553 62.9693 50.9832 65.8545 51.1635 68.8118L51.3799 73.5003L48.8193 69.3528C47.9373 67.9636 47.0688 66.5745 46.4528 65.5892L46.4527 65.589L46.4525 65.5887L46.4524 65.5886L46.4501 65.5849L46.4471 65.5802C46.0585 64.9585 45.7711 64.499 45.6456 64.3037C44.7079 62.9333 44.167 60.8776 44.5637 60.1923C44.7801 59.7956 44.744 59.6153 44.3834 59.6153C43.626 59.6153 42.1473 62.0316 41.1736 64.8086C40.7047 66.107 40.2359 67.1889 40.0916 67.1889C39.5507 67.1889 39.8031 54.2777 40.3802 50.1303C41.5703 41.9435 44.7079 31.8454 46.1145 31.8454C46.403 31.8454 46.6554 31.7011 46.6554 31.4848C46.6554 30.8356 45.7178 31.088 44.9604 31.9175C43.2653 33.7568 41.0293 39.419 39.6228 45.4418C38.6491 49.5893 38.036 54.9269 37.8196 60.7333C37.6392 65.7463 37.7114 66.5758 38.4327 69.3167C39.2622 72.3822 39.9113 73.2839 41.0293 72.8511C41.426 72.7068 41.6064 72.1658 41.6064 71.156C41.6064 70.3626 42.0391 67.9823 42.5801 65.8545L43.5178 62.0316L43.9145 63.6185C44.4194 65.4578 47.3767 71.156 50.0455 75.3035C51.8848 78.1165 51.9209 78.2969 52.534 82.6968C52.8586 85.1852 53.8684 91.238 56.2126 100.549C58.2839 108.776 69.9279 116.936 72.8353 118.974C73.2184 119.243 73.4499 119.405 73.4876 119.447C73.8483 119.844 74.3532 120.06 74.6417 119.952C74.9663 119.844 75.1466 119.988 75.1466 120.384C75.1466 120.745 75.3991 121.214 75.6876 121.43C76.0482 121.683 76.3007 122.657 76.3728 124.352C76.5532 127.742 79.0777 134.233 81.0252 136.361C82.2875 137.732 84.9202 138.309 87.8414 137.804C89.7529 137.515 90.2938 137.299 90.1135 136.866C90.0053 136.578 90.6906 136.938 91.6282 137.66C102.592 146.027 113.7 151.04 126.178 153.203C131.011 154.033 139.017 154.502 143.381 154.177H143.381H143.382H143.382H143.382H143.382H143.382H143.382C146.18 153.994 146.949 153.944 147.091 154.219C147.145 154.323 147.109 154.474 147.06 154.682C146.807 155.692 147.132 156.305 152.433 165.285C156.653 172.39 157.014 172.859 161.702 177.655C171.656 187.934 182.512 195.904 194.81 202.071C206.386 207.842 224.87 212.638 241.766 214.153C258.662 215.668 270.798 200.16 270.762 196.193C270.69 190.747 269.933 187.177 268.093 183.714C266.29 180.36 265.1 179.206 259.69 175.6C253.667 171.596 249.953 168.315 247.5 164.816C245.95 162.616 245.372 160.128 245.372 158.794C245.372 157.928 246.49 155.98 248.149 155.584C249.664 155.187 249.953 155.223 251.648 156.053C252.658 156.521 255.29 157.748 257.454 158.794C259.654 159.803 261.782 160.813 262.215 161.03C263.491 161.384 264.03 163.882 264.322 165.235C264.388 165.537 264.441 165.783 264.487 165.934C264.992 167.81 267.381 170.231 268.923 171.056C271.63 172.503 278.3 172.697 280.14 170.713C280.608 170.208 282.163 169.588 282.483 169.776C282.803 169.964 283.962 171.524 283.962 172.787C283.998 174.951 285.116 176.934 287.496 178.918C292.004 182.668 295.503 183.57 299.037 181.911C300.876 181.045 302.384 180.707 302.384 180.707C302.384 180.707 303.887 182.626 303.978 183.281C304.686 188.406 312.272 190.554 314.292 190.77C314.755 190.816 315.656 190.618 316.571 190.417C317.794 190.148 319.043 189.874 319.305 190.17C319.821 190.751 310.686 205.858 309.424 207.77C297.414 225.802 274.044 236.838 245.445 237.992C226.871 238.749 204.042 233.556 184.243 224.107C171.584 218.012 160.368 210.546 148.358 200.088C146.266 198.284 143.85 196.229 142.985 195.507C142.119 194.822 140.063 192.478 138.476 190.314C135.808 186.708 134.293 185.409 134.293 186.636C134.293 187.176 136.024 190.494 138.008 193.776C138.801 195.075 139.306 195.976 139.126 195.832C138.945 195.688 138.368 198.284 137.827 201.602C136.06 212.242 133.139 222.736 130.182 229.264C128.559 232.798 125.447 235.438 124.509 236.159C121.047 238.792 115.864 239.975 108.687 240.697C99.5986 241.598 86.2185 239.579 76.0122 235.756C73.3073 234.746 66.3468 231.825 65.878 231.5C65.8498 231.472 65.69 230.434 65.4671 228.987C65.4042 228.578 65.3363 228.137 65.2649 227.677C63.9665 218.769 62.1633 184.472 62.1633 168.603C62.1633 162.039 62.0912 160.597 61.6584 160.597C60.7568 160.597 60.3961 161.462 59.9994 164.564C59.0978 171.633 59.2781 208.527 60.2519 216.281L60.4683 218.048L59.2421 217.363C57.3667 216.281 50.2259 209.032 47.7374 205.678C45.6307 202.81 44.3786 199.138 43.4418 196.39C43.2239 195.751 43.0231 195.163 42.8326 194.645C37.6032 180.147 39.4425 163.879 46.6554 149.236C52.7865 136.758 60.324 129.833 71.3598 126.479C73.1631 125.938 74.7499 125.361 74.9302 125.217C75.6155 124.568 71.2156 124.893 68.7992 125.65C60.9371 128.066 52.7143 134.666 47.1243 143.105C39.2622 154.935 35.7278 172.39 38.2163 187.285C38.7933 190.819 41.1375 198.465 41.7867 199.006C41.8442 199.063 42.1408 199.686 42.5894 200.627C43.8298 203.229 46.2322 208.269 47.9538 210.546C50.0455 213.396 56.3569 219.599 58.9896 221.51L60.6486 222.7L60.901 225.622C61.3699 231.212 61.5502 231.717 64.0747 233.592C70.3861 238.389 82.8284 242.861 94.0806 244.447C99.31 245.169 110.67 244.916 114.998 243.979ZM236.897 210.114C215.944 208.274 190.626 198.284 172.305 182.848C164.587 176.32 154.561 163.626 150.594 156.594C149.765 155.151 149.152 154.466 148.43 154.285C147.673 154.069 148.322 153.853 151.424 153.348C164.515 151.112 177.246 145.666 187.525 137.912L189.039 136.794L189.472 137.84C190.446 140.184 194.197 142.564 196.974 142.564C198.092 142.564 201.842 140.869 204.114 139.319L205.665 138.273L206.927 139.535C208.081 140.689 208.298 140.761 210.462 140.761C212.95 140.761 215.944 139.643 217.603 138.056L218.504 137.227L221.065 138.922C222.435 139.896 226.258 142.023 229.54 143.718C234.445 146.243 239.638 149.164 244.579 152.194L245.372 152.699L244.615 153.708C243.822 154.79 242.344 156.846 242.344 159.984C242.344 163.518 246.019 169.868 253.054 174.229C258.581 177.655 268.093 184.395 267.733 194.245C267.689 195.435 266.362 198.393 264.595 201.061C263.441 202.757 260.231 205.281 257.31 206.76C252.333 209.248 243.569 210.691 236.897 210.114ZM44.5997 48.2188C45.5735 48.4352 46.2226 48.7598 46.0784 48.9041C45.6095 49.3729 43.1211 49.1565 42.544 48.5795C41.6424 47.7139 41.8588 47.1008 43.1211 46.8484C43.7702 46.7402 44.744 46.1992 45.285 45.6583C45.8259 45.1173 46.2948 44.8648 46.2948 45.0452C46.2948 45.514 44.4915 47.173 43.5899 47.5336C43.0129 47.7861 43.1932 47.8943 44.5997 48.2188ZM58.9535 48.7959C59.9994 48.2189 59.783 47.8221 58.5568 48.0025C57.3306 48.1828 57.2585 48.0385 58.0519 46.8123C58.3765 46.3435 58.5568 45.6583 58.4847 45.2976C58.3765 44.8288 58.124 45.0452 57.547 46.1992C57.1142 47.0287 56.5011 47.7139 56.2126 47.7139C55.311 47.7139 55.2389 48.4352 56.1044 48.7598C57.2224 49.2287 58.088 49.2287 58.9535 48.7959ZM46.4751 29.1045C45.6096 29.2488 42.9047 30.3307 40.5244 31.5209C38.1081 32.6749 36.0524 33.6487 35.9081 33.6126C32.2295 33.2159 37.3507 27.0849 46.6554 20.8096C55.5634 14.7868 61.5863 11.6131 67.1763 9.99021C70.6746 8.98039 74.6057 8.83613 75.7237 9.66562C76.3368 10.1345 76.1204 10.1705 73.4516 10.2066C67.6812 10.2066 61.0092 13.1639 50.1537 20.4129C44.5276 24.1637 37.9999 29.5373 37.9999 30.4029C37.9999 30.5832 39.0458 30.2225 40.3441 29.6455C43.1211 28.3832 45.9702 27.7341 47.2325 28.0226C48.5669 28.3832 48.2784 28.8521 46.4751 29.1045ZM60.4322 32.2061C63.8223 31.5209 63.9666 31.4848 63.9666 31.1242C63.9666 30.9439 62.6682 30.7635 61.0453 30.6914L58.1241 30.5832L60.8289 27.5177C62.3076 25.8227 64.0387 24.1276 64.6518 23.7309C65.9862 22.8653 66.0583 22.2522 64.9764 21.8916L64.1469 21.6391L65.0485 21.3146C65.5534 21.1342 66.4911 21.0621 67.1403 21.1703C68.114 21.3146 68.3304 21.2424 68.2222 20.7375C68.114 20.2326 67.7173 20.1244 65.9501 20.1605C60.7929 20.2326 58.5929 21.6031 62.6322 22.2522C63.7502 22.4326 64.6879 22.7211 64.6879 22.9014C64.6879 23.0457 64.5075 23.1899 64.2911 23.1899C63.6059 23.1899 57.7995 29.0685 57.0782 30.5111C55.9602 32.6389 56.5733 32.9635 60.4322 32.2061ZM84.235 18.2129C83.1891 18.285 82.9366 18.4654 83.0088 18.9703L83.0199 19.0437C83.0604 19.3105 83.0836 19.4638 83.0239 19.5103C82.9431 19.5731 82.711 19.4415 82.1656 19.1321L82.0711 19.0785C81.3858 18.7178 81.3137 18.5375 81.7104 18.249C81.9629 18.0326 82.6481 17.708 83.1891 17.5998L84.1989 17.3473L83.4415 16.5539C83.0448 16.0851 82.8284 15.6523 82.9366 15.508C83.2252 15.2195 86.7595 15.6162 87.2644 16.013C87.4808 16.1933 87.8054 16.1572 88.0218 15.9408C88.5267 15.4359 89.2119 15.8326 89.2119 16.6261C89.2119 17.0588 89.1037 17.0949 88.7791 16.7703C88.4906 16.4818 88.2382 16.4818 87.9136 16.7342C87.6251 16.9867 87.4087 16.9867 87.2283 16.6982C87.1202 16.5179 86.4349 16.3375 85.7136 16.3375C85.0482 16.3375 84.7336 16.3375 84.6693 16.4643C84.6117 16.5781 84.7556 16.7938 85.0284 17.2031C85.6037 18.1019 85.5696 18.1047 84.2472 18.2119L84.235 18.2129ZM78.7531 8.61967C78.7531 8.15082 78.3203 7.32133 77.7794 6.78036L76.7696 5.77055L82.1793 5.98694C85.1726 6.1312 88.5627 6.45578 89.7529 6.78036C90.943 7.06888 92.3135 7.28527 92.8184 7.28527C93.5757 7.28527 93.4315 7.14101 92.0249 6.38365C89.5725 5.12138 86.4349 4.50828 80.4121 4.0755C73.1991 3.5706 69.5566 4.25583 70.2418 6.05907C70.35 6.41971 70.9271 6.60004 71.7926 6.60004C73.5598 6.60004 76.445 7.64592 77.4187 8.61967C78.4646 9.66555 78.7531 9.66555 78.7531 8.61967ZM61.1535 104.119C64.0747 107.87 67.9337 112.126 69.7369 113.568C70.8188 114.434 71.7565 115.155 71.8287 115.155C71.8647 115.155 71.0713 113.496 70.0615 111.476C65.9862 103.362 63.6059 95.2834 62.4879 85.9787C62.2354 83.923 61.8387 82.1919 61.4059 81.4706C60.5404 80.028 60.5404 78.1526 61.442 76.3854C61.9108 75.4478 62.1633 74.2576 62.1633 72.9593V70.9757L60.4322 72.779C58.7371 74.5461 57.1142 75.2674 57.1142 74.1855C57.1142 73.3921 59.783 69.5692 61.1895 68.3791C62.3076 67.4414 62.4518 67.1168 62.8125 64.3037C63.0649 62.6087 63.6419 59.6153 64.1108 57.6317C64.6157 55.6482 64.9042 53.9531 64.8321 53.881C64.5796 53.6285 56.1044 63.3623 54.9503 66.4676C54.697 67.1494 54.0127 68.343 53.4717 69.0643L52.534 70.2682C52.534 70.2682 52.8253 71.9541 53.1471 74.0728C53.4722 76.2134 53.6248 77.685 53.7607 78.9956C53.9425 80.7489 54.0944 82.2143 54.5897 84.6082C55.1667 87.5655 55.7438 90.1261 55.888 90.3064C55.9962 90.5228 56.4651 92.1818 56.9339 94.0211C57.9437 98.0965 59.6388 102.136 61.1535 104.119ZM207.504 138.237L206.747 137.479C206.747 137.479 219.317 121.509 221.57 115.624C223.289 111.133 224.3 109.86 225.665 109.86C226.428 109.86 227.052 110.034 227.34 110.467C227.845 111.224 228.331 112.162 227.682 115.372C226.6 120.565 224.941 123.991 219.964 131.384C218.81 133.079 217.332 134.955 216.683 135.604C215.168 137.01 211.76 138.453 209.776 138.778C208.514 138.958 208.154 138.886 207.504 138.237Z" fill="#00160A"/>
<path d="M307.368 173.517C311.855 161.292 311.176 158.688 310.397 158.433C310.397 158.433 308.684 159.407 307.927 161.462C306.52 165.321 301.706 175.42 299.902 177.223C297.775 179.351 297.775 179.351 295.611 179.351C293.447 179.351 287.206 176.092 286.356 172.88C284.997 167.74 290.85 149.886 290.994 148.876L290.021 148.191C289.372 148.804 280.928 174.41 269.824 167.738C268.553 166.974 265.857 163.374 265.641 161.462C264.439 155.908 269.953 136.488 270.891 132.498C271.73 128.928 276.1 125.614 281.473 125.614C289.732 125.614 288.623 132.833 292.322 135.377C293.962 136.505 296.656 134.461 297.486 134.306C302.138 133.44 303.921 134.448 307.332 137.155C309.964 139.244 311.912 143.38 314.056 144.837C315.247 145.646 316.511 144.539 316.925 144.332C318.622 143.48 322.263 144.115 323.272 144.837C324.753 145.482 328.38 148.969 328.954 150.997C331.551 160.19 323.349 180.569 320.253 184.391C315.127 190.719 302.881 185.742 307.368 173.517Z" fill="white"/>
<path fill-rule="evenodd" clip-rule="evenodd" d="M100.031 140.02C109.913 146.259 120.102 150.335 131.715 151.453C140.876 152.318 153.227 151.128 162.099 148.243C169.564 145.826 179.662 139.133 186.407 133.47C199.498 122.507 207.757 105.381 211.363 87.2048C211.868 84.6442 212.638 78.2076 212.602 71.8242C212.602 64.3948 209.333 44.0925 199.426 32.3863C178.993 8.24224 145.407 -2.63397 117.179 6.65905C106.997 10.0113 96.1554 16.085 87.9687 24.0193C77.6542 34.0813 70.0445 47.786 67.0151 61.7791C63.8414 76.5657 67.9698 94.2374 75.1467 108.735C80.881 120.276 90.33 133.853 100.031 140.02ZM196.324 96.4374C189.544 116.814 171.872 132.033 149.657 136.65C146.266 137.335 143.922 137.587 139.162 137.659C135.808 137.768 132.454 137.732 131.768 137.659C116.224 135.784 104.395 130.05 93.5037 119.158C88.7431 114.362 86.7235 111.765 83.7662 106.644C79.1138 98.5292 76.6253 90.2342 75.868 80.2443C73.2713 46.0188 97.7593 17.4916 132.237 14.5342C145.762 13.3802 160.765 17.5276 172.161 25.6061C176.381 28.5995 184.026 36.1731 186.407 39.7075C187.38 41.114 196.829 54.9268 198.488 62.8611C200.616 73.1756 199.787 86.0868 196.324 96.4374Z" fill="white"/>
<path fill-rule="evenodd" clip-rule="evenodd" d="M212.615 71.8241C212.615 96.0312 201.165 122.496 186.387 133.798C179.336 139.191 170.123 145.72 162.099 148.243C150.34 151.94 131.715 151.452 131.715 151.452C131.715 151.452 150.717 148.912 157.758 146.079C177.95 137.952 188.973 125.478 195.779 113.51C209.214 89.8843 212.615 71.236 212.615 71.8241Z" fill="#E7EAEE"/>
<path fill-rule="evenodd" clip-rule="evenodd" d="M132.129 133.332C122.5 132.105 112.943 128.679 105.225 123.594C100.644 120.601 93.72 113.568 90.366 108.555C85.5693 101.342 82.3956 93.6243 80.8449 85.3294C79.7269 79.3066 79.7629 70.038 80.8809 64.6643C82.035 59.1825 83.5137 54.9989 86.1464 49.6974C89.2119 43.5664 92.4577 39.0583 97.3265 34.1895C105.621 25.8946 115.251 20.6292 126.719 18.1047C130.434 17.3112 143.886 16.6621 144.355 17.2752C144.463 17.4555 145.184 17.9243 145.942 18.321C146.699 18.7538 148.719 20.2685 150.378 21.7472C152.866 23.9111 153.984 25.2815 156.148 28.6716C157.627 30.9798 158.817 33.0715 158.817 33.2519C158.817 33.6486 159.971 34.3699 160.62 34.3699C161.522 34.3699 162.135 31.665 162.315 26.9045C162.423 24.2717 162.64 22.1078 162.784 22.1078C163.289 22.1078 168.843 25.1734 171.44 26.9045C176.525 30.2946 181.61 35.0551 185.361 40.032C187.056 42.2681 187.308 42.8451 187.308 44.2156C187.308 45.4778 187.669 46.4516 188.787 48.3991C191.6 53.3039 193.8 59.471 195.134 66.2872C196 70.8674 196 79.523 195.098 84.3196C192.646 97.5193 185.361 110.647 175.876 118.978C167.833 126.011 159.286 130.338 149.188 132.466C145.725 133.223 135.339 133.728 132.129 133.332ZM106.343 108.663C106.667 108.303 106.884 107.762 106.775 107.509C106.743 107.434 106.291 107.221 105.63 106.911L105.63 106.911C104.09 106.186 101.411 104.927 100.25 103.614C95.6334 98.3489 93.9384 94.4178 92.8925 86.3032C91.8827 78.405 92.731 73.0656 94.5515 64.484C95.4395 60.2978 97.7999 56.8399 99.2684 54.6886C100.267 53.2258 100.853 52.3671 100.284 52.2941C98.8772 52.0777 98.6608 52.1859 97.1822 53.5925C94.0085 56.6219 92.5659 59.0382 91.0512 63.6906C88.707 70.9757 88.254 90.6635 92.8925 99.539C97.531 108.414 105.513 109.601 106.343 108.663ZM157.627 78.3689C157.014 83.9715 154.417 92.0735 151.388 95.6079C149.981 97.2669 144.818 100.116 140.46 99.5389C136.25 98.9816 132.959 97.0144 130.145 92.7948C127.729 89.1523 126.481 84.7309 125.637 79.1623C124.18 69.5466 130.542 58.353 133.283 55.576C136.06 52.7269 138.044 51.717 140.568 51.681C143.021 51.681 144.607 52.222 147.096 53.9891C151.64 57.1628 158.817 67.4821 157.627 78.3689ZM109.011 48.5434C109.733 47.7139 109.841 47.3171 109.625 45.7664C109.48 44.3238 109.192 43.7467 108.434 43.1336C107.1 42.0517 105.441 42.0517 104.215 43.2057C103.349 44.0352 103.241 44.3238 103.349 46.3073C103.457 48.4352 103.53 48.5794 104.72 49.2286C106.307 50.0941 107.857 49.8417 109.011 48.5434ZM131.516 26.2914C125.024 30.9438 122.211 32.8552 119.29 34.6584C116.982 36.101 116.26 36.1371 116.26 34.8388C116.26 34.1535 116.765 33.3962 118.064 32.206L119.867 30.547L116.369 30.0782C112.438 29.5733 108.615 28.4913 107.785 27.6619C106.415 26.2553 107.605 25.9307 111.5 26.652C113.231 26.9406 116.585 27.3012 118.965 27.3733L123.293 27.5537L126.431 25.2816C133.319 20.3046 140.46 17.4916 143.886 18.3571C146.014 18.862 145.761 19.4391 143.345 19.7276C140.568 20.0522 138.873 20.9899 131.516 26.2914Z" fill="white"/>
<path d="M140.785 94.598C140.785 94.4176 141.001 94.2373 141.289 94.2373C141.578 94.2373 141.939 94.4176 142.047 94.598C142.155 94.8143 141.939 94.9586 141.542 94.9586C141.109 94.9586 140.785 94.8143 140.785 94.598Z" fill="white"/>
<path d="M142.948 94.2737C142.948 93.877 143.85 93.5164 144.86 93.5164C145.653 93.5524 145.653 93.5524 144.968 94.0573C144.175 94.6704 142.948 94.7786 142.948 94.2737Z" fill="white"/>
<path d="M137.358 93.3358C137.25 93.0473 137.106 92.5424 136.998 92.2539C136.89 91.8932 137.07 91.7129 137.539 91.7129C137.935 91.7129 138.26 91.9293 138.26 92.2178C138.26 92.5063 138.368 92.9752 138.476 93.2997C138.621 93.6965 138.512 93.8768 138.116 93.8768C137.791 93.8768 137.43 93.6243 137.358 93.3358Z" fill="white"/>
<path d="M139.27 92.4343C139.09 91.3523 139.486 90.9917 140.785 90.9917C141.181 90.9917 141.506 91.3523 141.65 91.9654C141.939 93.0113 141.47 93.5162 140.208 93.5162C139.631 93.5162 139.378 93.2638 139.27 92.4343Z" fill="white"/>
<path d="M135.591 92.6147C134.906 92.0737 134.906 92.0737 135.663 92.0737C136.132 92.0737 136.457 92.2901 136.457 92.6147C136.457 93.2639 136.457 93.2639 135.591 92.6147Z" fill="white"/>
<path d="M142.84 92.5786C142.371 92.1097 142.588 90.7032 143.165 90.4868C144.211 90.0901 144.68 90.2704 144.896 91.2081C145.04 91.7491 145.112 92.2179 145.04 92.254C144.752 92.5786 143.057 92.795 142.84 92.5786Z" fill="white"/>
<path d="M146.05 91.8212C145.942 91.713 145.834 91.2441 145.834 90.8114C145.834 90.1983 146.122 89.9458 146.988 89.7655C147.745 89.6212 148.214 89.6934 148.43 89.9819C148.791 90.5589 148.791 91.2802 148.466 91.4605C147.817 91.8212 146.302 92.0376 146.05 91.8212Z" fill="white"/>
<path d="M133.932 90.7033C133.932 90.2705 134.257 89.9098 134.726 89.8016C135.663 89.5492 135.627 89.5131 135.808 90.4508C135.88 90.9918 135.699 91.2082 134.942 91.2803C134.149 91.3885 133.932 91.2442 133.932 90.7033Z" fill="white"/>
<path d="M136.673 90.7392C136.168 90.1983 136.493 89.1885 137.178 89.1885C137.647 89.1885 137.899 89.4409 137.899 89.8737C137.899 90.5589 137.07 91.136 136.673 90.7392Z" fill="white"/>
<path d="M138.837 89.6574C138.549 88.9722 139.162 88.4673 140.352 88.4673C140.893 88.4673 141.145 88.6837 141.145 89.1525C141.145 89.5492 140.821 89.9099 140.352 90.0541C139.162 90.3427 139.09 90.3427 138.837 89.6574Z" fill="white"/>
<path d="M149.26 89.5491C149.368 89.3688 149.548 89.1885 149.657 89.1885C149.765 89.1885 149.729 89.3688 149.62 89.5491C149.512 89.7655 149.332 89.9098 149.224 89.9098C149.116 89.9098 149.152 89.7655 149.26 89.5491Z" fill="white"/>
<path d="M142.083 88.9359C141.794 88.2146 142.155 87.854 143.309 87.6737C143.958 87.6015 144.247 87.7458 144.319 88.2507C144.571 89.4408 142.516 90.09 142.083 88.9359Z" fill="white"/>
<path d="M133.427 88.3228C133.103 87.1326 133.175 87.0244 134.112 87.0244C134.617 87.0244 135.014 87.1687 135.014 87.349C135.014 87.5293 135.122 87.926 135.23 88.2146C135.339 88.5752 135.122 88.7916 134.509 88.8998C133.824 89.0441 133.572 88.8998 133.427 88.3228Z" fill="white"/>
<path d="M145.473 87.9263C145.473 87.2771 145.725 86.9886 146.411 86.8083C147.421 86.5558 147.998 87.0607 147.998 88.2148C147.998 88.6836 147.709 88.8279 146.735 88.8279C145.617 88.8279 145.473 88.7197 145.473 87.9263Z" fill="white"/>
<path d="M132.345 87.9262C132.237 87.6377 132.309 87.3853 132.49 87.3853C132.706 87.3853 132.85 87.6377 132.85 87.9262C132.85 88.2148 132.778 88.4672 132.706 88.4672C132.634 88.4672 132.49 88.2148 132.345 87.9262Z" fill="white"/>
<path d="M135.988 88.2145C135.483 87.7457 135.772 86.7359 136.421 86.5556C136.817 86.4474 137.214 86.4834 137.322 86.5916C137.755 86.9883 137.503 88.0342 136.962 88.2506C136.276 88.5031 136.276 88.5031 135.988 88.2145Z" fill="white"/>
<path d="M148.863 87.9624C148.466 86.9165 148.899 86.1231 149.909 86.0149C150.666 85.9067 150.883 86.0509 150.883 86.628C150.883 87.8181 150.486 88.4673 149.765 88.4673C149.368 88.4673 148.971 88.2509 148.863 87.9624Z" fill="white"/>
<path d="M138.513 87.4932C138.08 87.0965 138.224 86.3752 138.837 86.1588C139.522 85.9064 140.965 86.6277 140.568 87.0244C140.063 87.4572 138.765 87.7817 138.513 87.4932Z" fill="white"/>
<path d="M141.65 86.5919C141.326 86.087 142.48 85.2214 143.417 85.2214C143.85 85.2214 144.03 85.4378 143.958 85.8345C143.814 86.5558 141.975 87.1329 141.65 86.5919Z" fill="white"/>
<path d="M131.768 86.3393C131.768 86.1589 131.66 85.7622 131.552 85.4376C131.444 85.1131 131.48 84.8606 131.696 84.8606C132.165 84.8606 132.526 86.2311 132.093 86.5196C131.913 86.6278 131.768 86.5556 131.768 86.3393Z" fill="white"/>
<path d="M132.742 85.5099C132.526 84.7164 132.958 84.1394 133.788 84.1394C134.257 84.1394 134.726 85.5459 134.437 86.0148C134.04 86.6279 132.922 86.2672 132.742 85.5099Z" fill="white"/>
<path d="M135.267 85.6902C134.726 85.1493 135.05 83.851 135.772 83.6706C136.313 83.5264 136.601 83.7067 136.89 84.3559C137.106 84.8247 137.214 85.2935 137.142 85.3657C136.781 85.6902 135.483 85.9427 135.267 85.6902Z" fill="white"/>
<path d="M145.004 85.6901C144.535 85.2213 144.752 84.9328 145.834 84.536C146.735 84.2475 146.988 84.2836 147.168 84.7164C147.493 85.5819 145.689 86.4114 145.004 85.6901Z" fill="white"/>
<path d="M148.178 84.8608C147.817 84.2837 148.322 83.7788 149.26 83.7788C150.378 83.7788 150.702 84.7165 149.693 85.005C148.611 85.2935 148.43 85.2575 148.178 84.8608Z" fill="white"/>
<path d="M151.243 83.9951C151.243 83.4541 151.892 82.8771 152.181 83.1656C152.433 83.418 151.929 84.5 151.568 84.5C151.388 84.5 151.243 84.2836 151.243 83.9951Z" fill="white"/>
<path d="M131.3 83.5262C131.155 83.418 131.047 82.9491 131.083 82.5524C131.083 81.8672 131.119 81.8672 131.444 82.6606C131.804 83.5262 131.732 83.9589 131.3 83.5262Z" fill="white"/>
<path d="M131.985 82.9855C131.66 81.7232 131.696 81.615 132.634 81.615C133.68 81.615 134.329 82.9494 133.535 83.4543C132.706 83.9592 132.237 83.815 131.985 82.9855Z" fill="white"/>
<path d="M144.391 83.7065C144.391 83.5983 144.571 83.0213 144.788 82.3721C145.293 80.9295 146.411 80.8574 146.663 82.2639C146.771 82.8049 146.807 83.2737 146.771 83.3098C146.591 83.5262 144.391 83.8508 144.391 83.7065Z" fill="white"/>
<path d="M134.545 82.805C134.401 82.6969 134.293 82.2641 134.293 81.8674C134.293 81.2903 134.401 81.2542 134.834 81.6149C135.122 81.8674 135.375 82.3001 135.375 82.5526C135.375 83.0936 134.942 83.2378 134.545 82.805Z" fill="white"/>
<path d="M147.529 82.0838C147.312 80.9658 147.781 80.4609 148.899 80.6051C149.44 80.6773 149.62 81.0019 149.62 81.7953C149.62 82.6969 149.476 82.9133 148.683 82.9854C147.889 83.0936 147.709 82.9133 147.529 82.0838Z" fill="white"/>
<path d="M151.063 82.2278C150.594 80.7852 150.738 80.3525 151.712 80.2443C152.578 80.1361 152.686 80.2443 152.686 81.182C152.686 81.9754 152.47 82.3 151.929 82.4442C151.532 82.5524 151.135 82.4442 151.063 82.2278Z" fill="white"/>
<path d="M130.759 80.1721C130.759 79.4869 130.831 79.1984 130.939 79.559C131.011 79.8836 131.011 80.4606 130.939 80.8213C130.831 81.1458 130.759 80.8573 130.759 80.1721Z" fill="white"/>
<path d="M131.66 80.641C131.191 80.2082 131.408 78.8017 131.985 78.5853C132.814 78.2607 133.211 78.6574 133.211 79.8476C133.211 80.6049 133.031 80.8935 132.562 80.8935C132.201 80.8935 131.768 80.7853 131.66 80.641Z" fill="white"/>
<path d="M133.824 79.6673C133.68 79.1264 133.608 78.5493 133.752 78.4411C134.113 78.0805 134.329 78.6575 134.221 79.7034L134.113 80.7132L133.824 79.6673Z" fill="white"/>
<path d="M145.473 79.415C145.473 79.0183 145.653 78.8019 145.834 78.9101C146.05 79.0183 146.194 79.3789 146.194 79.6674C146.194 79.956 146.05 80.1723 145.834 80.1723C145.653 80.1723 145.473 79.8478 145.473 79.415Z" fill="white"/>
<path d="M147.096 79.8837C146.591 79.3427 146.988 78.369 147.817 78.1526C148.863 77.9002 148.899 77.9002 149.224 78.946C149.44 79.5952 149.296 79.7395 148.358 79.8837C147.781 79.9919 147.204 79.9558 147.096 79.8837Z" fill="white"/>
<path d="M150.414 79.1984C150.017 78.8377 150.125 77.6476 150.522 77.6476C150.738 77.6476 150.883 77.5033 150.883 77.2869C150.883 77.1066 150.666 76.9263 150.378 76.9263C149.765 76.9263 149.26 75.1591 149.765 74.6542C150.414 74.005 151.135 74.6903 151.568 76.4574C151.82 77.3951 152.073 78.4771 152.181 78.8377C152.325 79.3066 152.181 79.4508 151.496 79.4508C151.027 79.4508 150.522 79.3426 150.414 79.1984Z" fill="white"/>
<path d="M152.361 77.2871C152.109 76.2052 151.46 74.0413 150.991 72.4544C150.27 70.1463 150.197 69.5692 150.594 69.3168C150.847 69.1364 151.171 68.9922 151.279 68.9922C151.676 68.9922 153.119 76.3855 152.974 77.8281L152.866 79.2707L152.361 77.2871Z" fill="white"/>
<path d="M130.398 77.1069C130.398 76.5299 130.47 76.3135 130.578 76.6741C130.65 76.9987 130.65 77.5036 130.578 77.7561C130.47 77.9725 130.398 77.72 130.398 77.1069Z" fill="white"/>
<path d="M131.119 77.0346C131.264 75.7724 132.309 75.4839 132.598 76.6379C132.85 77.5756 132.922 77.4674 131.841 77.8281C131.083 78.0445 131.011 77.9723 131.119 77.0346Z" fill="white"/>
<path d="M146.338 76.7099C146.05 75.6641 146.663 75.051 147.817 75.1952C148.683 75.3034 149.007 76.8542 148.286 77.323C147.384 77.9001 146.555 77.6476 146.338 76.7099Z" fill="white"/>
<path d="M133.211 76.4216C133.211 75.8085 133.391 75.4839 133.788 75.4839C134.149 75.4839 134.293 75.7363 134.221 76.2773C134.04 77.4314 133.211 77.5396 133.211 76.4216Z" fill="white"/>
<path d="M130.001 74.9067C130.001 74.51 130.109 74.4018 130.218 74.6904C130.326 74.9428 130.29 75.2674 130.182 75.3756C130.073 75.5198 129.965 75.3035 130.001 74.9067Z" fill="white"/>
<path d="M130.686 74.7984C130.686 74.2574 130.903 74.041 131.444 74.041C131.949 74.041 132.129 74.2213 132.057 74.6541C131.877 75.5918 130.686 75.7 130.686 74.7984Z" fill="white"/>
<path d="M132.67 74.4738C132.418 73.8246 132.418 73.8246 133.5 73.5361C134.149 73.3197 134.293 73.4279 134.293 73.9689C134.293 74.8344 132.995 75.2672 132.67 74.4738Z" fill="white"/>
<path d="M145.725 73.9691C145.473 73.0675 145.942 72.5986 147.204 72.5986C147.817 72.5986 147.998 72.815 147.998 73.5002C147.998 74.0412 147.781 74.4019 147.493 74.4019C147.204 74.4019 146.735 74.5101 146.447 74.6182C146.122 74.7264 145.87 74.5101 145.725 73.9691Z" fill="white"/>
<path d="M148.863 73.1397C148.575 72.4184 149.007 71.8774 149.837 71.8774C150.342 71.8774 150.522 72.1299 150.522 72.7791C150.522 73.4282 150.342 73.6807 149.801 73.6807C149.404 73.6807 148.971 73.4282 148.863 73.1397Z" fill="white"/>
<path d="M130.326 72.6347C130.326 71.8773 131.155 71.0118 131.516 71.4085C131.66 71.5167 131.768 72.0216 131.768 72.4904C131.768 73.0675 131.552 73.3199 131.047 73.3199C130.578 73.3199 130.326 73.0675 130.326 72.6347Z" fill="white"/>
<path d="M132.309 72.2021C132.021 71.3005 132.345 70.9038 133.572 70.7234C134.69 70.5792 135.05 71.7693 134.076 72.4906C133.139 73.1759 132.562 73.0677 132.309 72.2021Z" fill="white"/>
<path d="M145.365 71.9854C145.112 71.769 145.004 70.4346 145.221 70.4346C145.257 70.4346 145.798 70.2904 146.447 70.11C147.529 69.7855 147.601 69.8215 147.565 70.7953C147.529 71.5166 147.312 71.8772 146.771 72.0215C145.798 72.2739 145.653 72.2739 145.365 71.9854Z" fill="white"/>
<path d="M144.03 71.1561C144.03 70.9036 144.139 70.7954 144.283 70.9036C144.391 71.0479 144.391 71.2642 144.283 71.4085C144.139 71.5167 144.03 71.4085 144.03 71.1561Z" fill="white"/>
<path d="M148.07 70.579C148.178 69.9659 149.296 69.0643 149.548 69.3528C149.657 69.461 149.837 69.8938 149.945 70.3626C150.198 71.0839 150.089 71.1561 149.08 71.1561C148.214 71.1561 147.962 71.0118 148.07 70.579Z" fill="white"/>
<path d="M130.686 70.5428C130.686 70.3625 130.867 70.0019 131.047 69.7133C131.336 69.2806 131.408 69.3166 131.408 70.0019C131.408 70.4347 131.263 70.7953 131.047 70.7953C130.867 70.7953 130.686 70.6871 130.686 70.5428Z" fill="white"/>
<path d="M131.768 69.7497C131.768 68.7398 132.526 68.4153 133.103 69.1726C133.463 69.7136 133.463 69.8939 133.103 70.1464C132.345 70.6152 131.768 70.471 131.768 69.7497Z" fill="white"/>
<path d="M142.732 69.2807C142.083 68.5594 142.083 68.5234 142.696 68.7397C143.057 68.884 143.525 68.9922 143.706 68.9922C143.886 68.9922 144.03 69.2447 144.03 69.5332C144.03 70.2905 143.525 70.2184 142.732 69.2807Z" fill="white"/>
<path d="M134.978 69.2447C133.427 68.0545 133.211 65.3857 134.654 65.3857C135.627 65.3857 136.529 66.9005 136.385 68.307C136.276 69.6053 135.844 69.8938 134.978 69.2447Z" fill="white"/>
<path d="M144.86 69.4608C145.004 69.3526 145.221 69.3526 145.365 69.4608C145.473 69.605 145.365 69.7132 145.112 69.7132C144.86 69.7132 144.752 69.605 144.86 69.4608Z" fill="white"/>
<path d="M150.306 68.0545C150.414 67.7299 150.522 67.4054 150.522 67.3332C150.522 67.2611 150.702 67.189 150.883 67.189C151.099 67.189 151.243 67.5136 151.243 67.9103C151.243 68.3431 150.991 68.6316 150.666 68.6316C150.27 68.6316 150.161 68.4513 150.306 68.0545Z" fill="white"/>
<path d="M131.408 67.9463C131.408 67.1168 132.165 65.7463 132.598 65.7463C133.355 65.7463 132.814 68.0545 132.021 68.1987C131.696 68.2709 131.408 68.1627 131.408 67.9463Z" fill="white"/>
<path d="M139.522 67.5497L138.44 67.2972L139.414 67.0448C140.424 66.7562 141.145 66.9726 141.145 67.5857C141.145 67.9464 141.109 67.9464 139.522 67.5497Z" fill="white"/>
<path d="M138.26 65.8183C138.26 64.3396 139.09 64.1232 139.847 65.4216C140.352 66.2872 140.388 66.4675 139.919 66.4675C139.63 66.4675 139.162 66.5757 138.837 66.6839C138.404 66.8642 138.26 66.6478 138.26 65.8183Z" fill="white"/>
<path d="M144.535 66.3233C142.912 65.6021 141.866 63.6906 141.866 61.4185C141.866 59.7956 142.011 59.3989 142.984 58.4973C143.598 57.9203 144.211 57.4514 144.391 57.4514C145.184 57.4514 148.106 60.2284 149.079 61.9595L150.197 63.9431L149.007 65.2053C147.637 66.6479 146.122 67.0446 144.535 66.3233Z" fill="white"/>
<path d="M136.998 65.3858C136.89 65.2055 136.962 65.0251 137.142 65.0251C137.358 65.0251 137.539 65.2055 137.539 65.3858C137.539 65.6022 137.467 65.7464 137.394 65.7464C137.286 65.7464 137.106 65.6022 136.998 65.3858Z" fill="white"/>
<path d="M132.273 64.8087C132.381 64.4841 132.49 64.1595 132.49 64.0874C132.49 64.0152 132.814 63.9431 133.211 63.9431C134.113 63.9431 134.149 64.5202 133.247 65.0251C132.273 65.53 132.021 65.4939 132.273 64.8087Z" fill="white"/>
<path d="M135.122 64.376C134.293 64.2678 134.04 63.7989 134.581 63.4743C134.726 63.3662 135.375 63.1858 136.024 63.0416C136.998 62.8252 137.178 62.8973 137.178 63.5104C137.178 64.2678 136.421 64.5924 135.122 64.376Z" fill="white"/>
<path d="M137.899 63.1497C137.899 62.717 137.935 62.4645 138.008 62.5366C138.044 62.6088 138.332 62.9694 138.585 63.3301C139.017 63.835 138.981 63.9432 138.476 63.9432C138.116 63.9432 137.899 63.6547 137.899 63.1497Z" fill="white"/>
<path d="M132.85 62.8971C132.85 62.6807 133.031 62.4283 133.211 62.3201C133.427 62.2119 133.572 62.3562 133.572 62.6447C133.572 62.9693 133.427 63.2217 133.211 63.2217C133.031 63.2217 132.85 63.0775 132.85 62.8971Z" fill="white"/>
<path d="M134.185 62.3563C133.896 61.635 136.457 60.8416 136.89 61.5268C137.214 62.1039 136.89 62.3563 135.519 62.6448C134.69 62.8252 134.329 62.753 134.185 62.3563Z" fill="white"/>
<path d="M137.575 61.2022C137.575 60.8054 137.683 60.6972 137.791 60.9858C137.899 61.2382 137.863 61.5628 137.755 61.671C137.647 61.8153 137.539 61.5989 137.575 61.2022Z" fill="white"/>
<path d="M134.509 60.6249C134.942 59.8315 136.204 58.5332 136.529 58.5332C136.89 58.5332 136.926 60.2282 136.565 60.4446C136.385 60.5167 135.808 60.6971 135.267 60.8413C134.473 61.0217 134.293 60.9856 134.509 60.6249Z" fill="white"/>
<path d="M137.394 59.7956C136.998 58.7136 137.178 58.2448 138.044 58.1005C138.945 57.9202 138.945 57.9202 138.368 59.0382C137.647 60.4808 137.683 60.4808 137.394 59.7956Z" fill="white"/>
<path d="M137.178 57.6319C137.178 57.5597 137.899 57.0548 138.801 56.5499C139.883 55.9007 140.64 55.6843 141.181 55.8286C141.83 56.045 141.65 56.1893 140.063 56.9466C138.296 57.7401 137.178 58.0286 137.178 57.6319Z" fill="white"/>
<path d="M157.194 25.6782C156.22 24.2716 154.165 21.9996 152.686 20.6291C151.207 19.2586 150.234 18.1406 150.522 18.1406C151.316 18.1406 157.374 19.7996 158.889 20.4488C160.151 20.9897 160.187 21.0619 159.863 22.1799C159.683 22.829 159.538 24.452 159.538 25.7864C159.538 27.1568 159.43 28.2388 159.286 28.2388C159.106 28.2388 158.204 27.0847 157.194 25.6782Z" fill="white"/>
<path d="M83.8021 134.919C82.3235 134.161 81.9989 133.729 80.1235 130.014C77.4187 124.748 77.3465 123.522 79.9071 126.516C80.917 127.706 83.2612 130.158 85.1005 131.961C88.2381 134.991 88.3824 135.207 87.3365 135.063C86.5791 134.955 86.2906 135.027 86.4709 135.315C86.9037 135.965 85.5333 135.784 83.8021 134.919Z" fill="white"/>
<path fill-rule="evenodd" clip-rule="evenodd" d="M144.243 200.625C143.943 199.915 144.277 199.096 144.988 198.796L145.765 198.467C153.32 195.234 157.656 193.293 160.602 190.209C163.548 187.126 163.901 182.597 164.454 179.842C164.606 179.085 166.319 180.414 167.075 180.566C167.831 180.717 168.321 181.454 168.169 182.21C167.504 185.523 165.711 188.682 162.826 191.68C159.951 194.669 154.383 197.872 146.072 201.371C145.361 201.67 144.542 201.336 144.243 200.625Z" fill="#00160A"/>
<path fill-rule="evenodd" clip-rule="evenodd" d="M178.405 56.727C179.068 56.3325 179.925 56.5499 180.32 57.2128C184.27 63.8493 186.387 71.4356 186.387 79.3286C186.387 103.241 167.002 122.625 143.09 122.625C136.736 122.625 130.573 121.255 124.93 118.644C124.23 118.32 121.585 115.741 124.249 116.79C126.912 117.839 137.218 120.193 143.164 120.193C165.534 120.193 181.359 101.698 181.359 79.3286C181.359 71.9421 178.405 65.3858 177.92 58.6416C177.863 57.8598 177.743 57.1216 178.405 56.727Z" fill="#00160A"/>
<path fill-rule="evenodd" clip-rule="evenodd" d="M40.0825 162.433C40.5761 161.84 41.4568 160.643 42.0495 161.137C44.4809 163.162 47.0755 165.508 49.8509 165.961C52.739 166.432 56.1653 166.432 60.1252 165.953C60.891 165.86 61.5869 166.406 61.6796 167.172C61.7723 167.937 61.2267 168.633 60.4609 168.726C56.2557 169.235 52.5705 169.235 49.401 168.718C46.1189 168.182 43.0666 166.736 40.2617 164.4C39.669 163.907 39.5888 163.026 40.0825 162.433Z" fill="#00160A"/>
<path d="M69.737 113.568C67.9337 112.126 64.0748 107.87 61.1535 104.119C59.6388 102.136 57.9438 98.0965 56.934 94.0212C56.4651 92.1819 55.9963 90.5229 55.8881 90.3065C55.7438 90.1262 55.1668 87.5656 54.5897 84.6083C53.7242 80.4247 53.9073 79.077 53.1472 74.0729C52.8253 71.9542 52.5341 70.2683 52.5341 70.2683L53.4717 69.0643C54.0127 68.343 54.697 67.1494 54.9504 66.4677C56.1045 63.3623 64.5797 53.6286 64.8321 53.881C64.9043 53.9532 64.6158 55.6482 64.1109 57.6318C63.642 59.6153 63.065 62.6087 62.8125 64.3038C62.4519 67.1168 62.3076 67.4414 61.1896 68.3791C59.7831 69.5692 57.1143 73.3921 57.1143 74.1855C57.1143 75.2675 58.7372 74.5462 60.4322 72.779L62.1634 70.9758V72.9593C62.1634 74.2577 61.9109 75.4478 61.4421 76.3855C60.5404 78.1527 60.5404 80.028 61.406 81.4706C61.8388 82.1919 62.2355 83.923 62.4879 85.9787C63.6059 95.2834 65.9862 103.362 70.0615 111.477C71.0714 113.496 71.8648 115.155 71.8287 115.155C71.7566 115.155 70.8189 114.434 69.737 113.568Z" fill="white"/>
<defs>
<linearGradient id="paint0_linear" x1="168.997" y1="12.6431" x2="168.997" y2="271.389" gradientUnits="userSpaceOnUse">
<stop stop-color="#60CFF8"/>
<stop offset="1" stop-color="#0E4FBF" stop-opacity="0"/>
</linearGradient>
</defs>
</svg>
