<svg width="367" height="267" viewBox="0 0 367 267" fill="none" xmlns="http://www.w3.org/2000/svg">
<path fill-rule="evenodd" clip-rule="evenodd" d="M365.813 101.196C361.285 134.955 356.174 152.787 326.344 188.14C296.513 223.494 160.004 246.751 109.537 246.751C59.0704 246.751 -3.12441 207.836 0.800887 162.746C4.72618 117.656 25.205 80.8029 74.2221 76.2662C124.315 71.63 168.317 93.0998 217.496 81.5851C260.014 71.63 273.023 33.6845 302.226 21.7129C361.285 -2.4988 368.893 78.2296 365.813 101.196Z" fill="url(#paint0_linear)"/>
<path d="M335.429 117.683C333.76 120.512 312.638 134.822 299.825 136.94C297.346 137.35 294.638 137.491 292.485 136.196C291.212 135.431 290.264 134.239 289.364 133.059C287.305 130.361 285.34 127.591 283.476 124.755C282.496 123.265 281.524 121.709 281.191 119.957C280.309 115.317 284.049 111.15 287.746 108.21C296.242 101.452 306.191 96.5286 316.717 93.8727C318.581 93.4026 320.556 93.0044 322.403 93.5384C325.399 94.4052 327.19 97.437 328.333 100.339C329.477 103.241 330.368 106.415 332.653 108.538C333.175 109.023 337.097 114.855 335.429 117.683Z" fill="white"/>
<path fill-rule="evenodd" clip-rule="evenodd" d="M221.931 240.974C201.431 244.48 211.202 229.581 214.029 210.932C218.674 180.289 224.403 133.722 224.403 133.722C224.403 133.722 228.138 204.679 228.138 221.957C228.138 239.234 224.402 240.552 221.931 240.974Z" fill="white"/>
<path d="M200.027 224.092C200.551 229.026 201.102 234.065 203.199 238.562C202.055 228.379 200.911 218.195 199.767 208.011C199.626 206.754 199.667 205.153 200.824 204.64C201.803 216.139 203.263 227.598 205.198 238.975C205.427 240.326 203.399 241.098 202.259 240.337C201.12 239.576 200.755 238.095 200.496 236.749C198.608 226.945 197.57 216.977 197.397 206.995C194.993 207.468 193.307 209.799 192.821 212.2C192.335 214.601 192.803 217.081 193.272 219.486C194.779 227.227 196.287 234.968 197.795 242.709C198.5 246.33 199.205 250.071 198.427 253.677C195.435 240.016 193.029 226.227 191.219 212.36C168.261 226.399 138.678 229.01 113.616 219.208C108.142 217.068 102.706 214.231 99.0905 209.597C96.2425 205.947 94.7228 201.415 93.9266 196.854C91.099 180.656 96.8934 164.133 104.758 149.692C107.742 144.213 111.141 138.506 110.9 132.272C110.817 130.125 110.354 127.748 111.608 126.004C111.785 126.327 103.402 66.3604 106.765 53.096C114.861 21.163 141.161 16.8383 158.001 17.2322C169.299 17.4965 240.917 31.7292 251.264 51.0841C264.863 76.522 261.976 97.9088 259.561 112.011C258.842 116.21 224.412 133.413 224.403 133.5C222.434 151.798 209.225 191.669 198.147 206.365C198.774 212.274 199.401 218.183 200.027 224.092Z" fill="white"/>
<path fill-rule="evenodd" clip-rule="evenodd" d="M34.7164 149.638C28.2596 147.06 20.5651 147.825 14.7439 151.622C14.1803 151.989 13.3701 151.58 13.0911 150.968C12.8121 150.356 12.9164 149.645 13.0591 148.988C14.9183 140.432 22.3247 133.886 30.5613 130.877C38.7979 127.869 47.8073 127.86 56.5629 128.375C57.4317 128.426 58.3397 128.494 59.0808 128.949C59.8218 129.405 60.3205 130.378 59.9511 131.165C56.5069 138.499 53.9124 146.23 52.2358 154.156C51.9639 155.441 50.6323 156.293 49.3208 156.401C48.0094 156.508 46.7243 156.024 45.5342 155.464C41.825 153.718 38.524 151.158 34.7164 149.638Z" fill="white"/>
<path fill-rule="evenodd" clip-rule="evenodd" d="M233.179 20.4799C233.5 15.5719 233.13 10.6192 232.083 5.81337L232.061 5.71086C231.884 4.89827 231.701 4.06245 231.865 3.24921C232.227 1.4506 234.224 0.367982 236.058 0.405742C237.893 0.443501 239.592 1.31911 241.215 2.17421C248.999 6.27497 256.924 10.4792 263.053 16.7918C263.245 21.9022 262.041 26.9454 260.852 31.9239L260.852 31.9242L260.74 32.3921C255.777 53.2007 251.712 74.2237 248.562 95.3828C248.26 97.4109 247.688 99.8033 245.764 100.514C244.384 101.023 242.78 100.372 241.8 99.2753C240.819 98.1786 240.351 96.7226 240.024 95.2885C239.217 91.7502 239.12 88.0517 239.74 84.476C240.119 82.2894 240.76 80.1624 241.4 78.0348C241.976 76.1247 242.551 74.2142 242.938 72.2596C243.324 70.3051 243.519 68.3185 243.708 66.3351C244.712 55.7886 245.564 45.2275 246.264 34.6563C246.363 33.1625 246.453 31.6217 245.963 30.2068C245.093 27.6904 242.558 26.0998 239.997 25.3705C239.555 25.2448 239.107 25.1379 238.659 25.031C237.615 24.7823 236.573 24.5337 235.621 24.0487C234.26 23.3554 233.08 22.0038 233.179 20.4799ZM237.936 20.0765C241.556 20.8404 245.093 21.9938 248.468 23.5106C249.147 23.8159 249.862 24.1735 250.229 24.8216C250.528 25.351 250.546 25.9886 250.555 26.5969C250.661 33.7418 250.683 40.9056 249.927 48.0112C249.473 52.2659 248.743 56.4836 248.012 60.7008C247.781 62.0357 247.549 63.3706 247.327 64.7066C246.226 71.3175 245.34 77.9642 244.67 84.6326C244.185 89.4711 243.829 94.472 245.334 99.096C246.106 98.9549 246.403 98.025 246.55 97.2537L260.459 23.9421C260.796 22.1659 261.132 20.3294 260.735 18.5656C260.04 15.4776 257.299 13.3305 254.657 11.5883C249.569 8.23439 244.154 5.37794 238.514 3.07286C238.045 8.72684 237.852 14.4037 237.936 20.0765ZM245.088 68.2243C247.635 55.1501 248.785 41.8045 248.514 28.4874C248.493 27.4815 248.439 26.4007 247.824 25.6047C247.373 25.0214 246.685 24.6798 246.012 24.3784C243.485 23.2467 240.829 22.4045 238.112 21.8738C237.325 21.7201 236.169 21.8866 236.204 22.6872L245.97 26.7229C246.543 26.9596 247.153 27.2273 247.477 27.7559C247.794 28.2743 247.763 28.9256 247.722 29.5321L245.088 68.2243ZM236 1.77967C235.195 1.24593 234.032 1.79613 233.583 2.65168C233.135 3.50723 233.203 4.53144 233.305 5.49204C233.454 6.90145 233.65 8.31158 233.847 9.72193C234.391 13.6348 234.936 17.5492 234.473 21.4539C235.212 21.7073 236.036 21.1868 236.395 20.493C236.753 19.7991 236.762 18.9841 236.764 18.2032L236.788 4.12234C236.79 3.26175 236.717 2.25519 236 1.77967ZM243.232 98.7784C242.788 95.2986 242.672 91.7772 242.885 88.2757C242.999 86.4034 243.207 84.5377 243.414 82.6724C243.689 80.2056 243.964 77.7393 244.021 75.2594C241.993 81.2966 241.227 87.7548 241.787 94.0991C241.933 95.7494 242.203 97.4799 243.232 98.7784ZM244.348 71.693C244.674 71.5467 244.811 71.0883 244.619 70.7868C244.287 70.9502 244.147 71.4129 244.331 71.7333L244.348 71.693ZM241.315 41.4561C225.173 31.5009 206.92 25.5363 188.666 20.3896C182.831 18.7444 176.947 17.1678 170.923 16.4928C153.071 14.4929 134.973 20.6523 120.129 30.7692C114.176 34.8267 108.432 39.8176 105.86 46.5472C103.951 51.5404 103.965 57.0373 104.149 62.3796C104.783 80.8043 107.147 99.1206 109.509 117.404C111.355 117.071 111.537 114.518 111.27 112.661C108.815 95.6102 107.438 78.4039 107.151 61.1794C107.07 56.3495 107.096 51.3977 108.767 46.8655C111.793 38.6612 119.597 33.2956 127.254 29.073C136.899 23.7545 147.383 19.2837 158.395 19.0464C171.733 18.7589 184.376 24.6755 196.028 31.1735C202.524 34.7962 209.11 38.8416 213.243 45.0257C216.995 50.641 218.358 57.4845 219.343 64.166C222.468 85.3721 222.582 106.892 222.691 128.327C222.695 129.194 222.642 130.188 221.963 130.727C221.498 131.095 220.864 131.141 220.272 131.172L198.511 132.305C208.651 135.22 219.9 134.07 229.24 129.163L253.419 116.461C255.676 115.276 258.005 114.03 259.561 112.011C261.702 109.232 262.008 105.493 262.109 101.986C262.482 89.0344 261.187 76.0358 258.266 63.4125C259.278 77.0679 259.419 90.7878 258.686 104.461C258.561 106.796 258.374 109.246 257.104 111.209C255.748 113.307 253.39 114.495 251.144 115.586L225.05 128.269C226.129 107.994 225.292 87.6179 222.551 67.5003C221.63 60.7339 220.454 53.8728 217.357 47.7863C210.04 33.4027 193.843 26.2875 178.873 20.2584C201.253 26.8061 223.89 33.4621 244.024 45.2247C244.286 43.5997 242.716 42.3201 241.315 41.4561ZM324.708 103.345C325.868 106.335 327.499 109.522 330.497 110.662C331.207 110.717 331.631 109.775 331.398 109.102C331.204 108.54 330.746 108.131 330.296 107.728C330.254 107.691 330.212 107.653 330.17 107.615C330.124 107.574 330.078 107.532 330.033 107.49C328.125 105.718 327.189 103.213 326.266 100.745L326.266 100.745C326.084 100.257 325.902 99.7701 325.713 99.2911C324.57 96.3891 322.779 93.3574 319.782 92.4906C317.936 91.9566 315.961 92.3547 314.097 92.8248C303.571 95.4807 293.622 100.404 285.126 107.162C281.429 110.102 277.689 114.269 278.571 118.909C278.904 120.661 279.876 122.217 280.855 123.707C282.72 126.543 284.685 129.313 286.744 132.011C287.644 133.191 288.592 134.384 289.865 135.148C292.018 136.443 294.726 136.302 297.205 135.892C310.018 133.774 320.984 125.812 331.419 118.081C331.962 117.679 332.527 117.25 332.809 116.636C333.09 116.021 332.97 115.166 332.373 114.849C331.689 114.485 330.882 114.987 330.272 115.465C320.561 123.068 310.188 130.497 298.148 133.167C295.866 133.674 293.35 133.972 291.297 132.854C289.76 132.018 288.722 130.515 287.743 129.066L281.669 120.079C281.157 119.322 280.627 118.508 280.608 117.595C280.589 116.681 281.327 115.693 282.233 115.811C290.747 116.918 299.302 117.714 307.874 118.197C308.556 118.235 309.27 118.266 309.891 117.982C310.692 117.616 311.181 116.806 311.608 116.036C315.237 109.494 318.009 102.478 319.831 95.2216C322.253 96.9584 323.383 99.9002 324.462 102.707L324.586 103.031C324.627 103.136 324.667 103.241 324.708 103.345ZM317.214 94.6473C315.592 100.716 313.193 106.575 310.093 112.038C309.573 112.954 308.996 113.897 308.088 114.429C306.932 115.106 305.493 114.979 304.162 114.83L282.954 112.464C286.473 107.814 291.7 104.797 296.922 102.204C301.866 99.7494 306.941 97.5601 312.119 95.6482C313.758 95.043 315.477 94.4566 317.214 94.6473ZM200.027 224.092C200.551 229.027 201.102 234.065 203.199 238.563L199.767 208.011C199.626 206.754 199.667 205.153 200.824 204.64C201.803 216.139 203.263 227.598 205.198 238.975C205.427 240.326 203.399 241.098 202.259 240.337C201.12 239.576 200.755 238.095 200.496 236.75C198.608 226.945 197.57 216.978 197.397 206.995C194.993 207.468 193.307 209.799 192.821 212.2C192.335 214.602 192.803 217.082 193.272 219.487L197.794 242.71C198.5 246.33 199.205 250.072 198.427 253.677C195.435 240.017 193.029 226.227 191.219 212.36C168.261 226.399 138.678 229.01 113.616 219.209C108.142 217.068 102.706 214.231 99.0905 209.597C96.2425 205.947 94.7228 201.415 93.9266 196.854C91.099 180.656 96.8934 164.133 104.758 149.692C104.962 149.317 105.169 148.941 105.376 148.563L105.377 148.561C108.192 143.427 111.124 138.078 110.9 132.272C110.885 131.888 110.858 131.497 110.831 131.104C110.706 129.296 110.578 127.437 111.608 126.004C112.988 128.516 113.514 131.488 113.079 134.321C136.847 133.298 160.651 133.092 184.433 133.704C184.71 134.797 183.126 135.305 181.998 135.288C159.804 134.957 137.599 135.335 115.43 136.422C114.727 136.456 113.99 136.502 113.395 136.876C112.769 137.269 112.404 137.959 112.068 138.617C105.776 150.929 99.463 163.419 96.4216 176.907C94.8576 183.843 94.2586 191.434 97.4641 197.78C98.6802 200.188 100.4 202.314 102.32 204.208C112.63 214.377 128.067 217.494 142.546 217.251C151.786 217.096 161.007 215.767 169.915 213.308C179.36 210.701 188.779 206.591 195.225 199.212C199.011 194.88 201.584 189.632 203.837 184.338C208.14 174.23 211.44 163.695 213.674 152.938C215.072 153.232 215.092 155.21 214.769 156.602C210.776 173.829 206.135 192.192 192.982 204.012C181.103 214.688 164.364 217.999 148.418 218.892C139.206 219.408 129.85 219.247 120.928 216.899C112.006 214.551 103.487 209.853 97.8229 202.571C99.4749 208.87 105.071 213.365 110.897 216.274C126.193 223.912 144.256 223.508 161.146 220.853C172.397 219.085 183.946 216.182 192.702 208.899C200.186 202.673 204.956 193.781 208.546 184.732C212.52 174.716 215.277 164.217 216.737 153.54C217.646 152.966 218.319 154.572 218.204 155.641C216.236 173.939 209.225 191.669 198.147 206.366L200.027 224.092ZM189.39 255.383C188.414 253.734 187.785 251.882 187.557 249.98L186.155 254.732L182.616 241.235C182.342 240.188 181.674 238.878 180.615 239.103C179.586 239.322 179.47 240.734 179.623 241.775C180.394 247.011 181.865 252.143 183.983 256.993L180.22 253.691C180.037 255.263 180.451 256.897 181.36 258.193C179.399 256.749 176.77 256.257 174.42 256.894C176.099 259.227 178.379 261.124 180.978 262.351L177.798 257.912C180.369 259.396 183.062 260.668 185.841 261.709L183.146 258.331L186.476 259.254C183.928 253.458 181.333 247.442 181.395 241.111C182.359 246.261 183.77 251.327 185.608 256.233C185.92 257.065 186.266 257.924 186.929 258.514C187.593 259.104 188.671 259.326 189.366 258.774C189.906 258.345 190.064 257.604 190.186 256.925L191.686 248.609L193.333 258.922C194.581 255.768 198.643 254.977 202.035 254.956C206.515 254.928 211.028 255.422 215.53 255.914H215.53H215.53H215.53H215.53H215.53H215.53H215.531H215.531C223.645 256.801 231.721 257.684 239.495 255.502C239.267 256.704 238.868 257.873 238.313 258.964C244.587 258.05 250.935 257.65 257.273 257.767C259.95 257.816 262.635 257.957 265.32 258.098H265.32H265.32H265.321H265.321H265.321H265.322H265.322H265.322C272.42 258.47 279.519 258.843 286.474 257.525L240.315 257.119C241.182 257.069 241.846 256.061 241.551 255.244C241.255 254.428 240.1 254.078 239.401 254.594C238.947 253.151 236.907 252.509 235.708 253.433C236.403 251.291 237.777 249.375 239.583 248.029C237.544 247.92 235.475 248.544 233.836 249.762L238.801 226.783C238.382 226.422 237.681 226.665 237.371 227.124C237.064 227.578 237.03 228.155 236.998 228.703V228.703L236.997 228.72C236.532 236.567 233.765 244.263 229.128 250.609L227.306 245.34L224.696 251.634C223.514 250.717 221.836 250.486 220.449 251.048C220.803 252.394 221.88 253.526 223.206 253.948L223.823 252.293L227.901 255.024C226.342 253.391 226.005 250.719 227.108 248.75L229.575 252.888L234.358 243.429C234.385 247.227 232.757 250.817 231.161 254.264C232.896 252.905 234.386 251.237 235.542 249.362C236.657 251.337 235.439 253.985 233.499 255.16C231.56 256.336 229.161 256.4 226.895 256.304C223.438 256.158 219.954 255.723 216.474 255.29C208.661 254.316 200.869 253.344 193.446 255.645L192.376 245.776C190.741 248.731 189.718 252.022 189.39 255.383ZM235.96 255.646C235.792 255.446 235.793 255.124 235.962 254.925L236.097 254.975C236.323 254.433 237.277 254.478 237.452 255.039C237.012 255.356 236.496 255.566 235.96 255.646ZM261.178 150.793C255.802 148.076 249.405 148.809 243.437 149.627C241.751 149.858 240.032 150.101 238.504 150.852C236.977 151.602 235.647 152.962 235.383 154.643C220.809 152.824 206.843 146.409 195.966 136.538C193.606 134.396 191.197 131.346 192.259 128.34C192.592 127.395 193.242 126.598 193.917 125.858C198.988 120.298 205.979 116.954 212.785 113.745C205.071 114.421 197.67 118.173 192.565 123.995C191.395 125.329 190.316 126.82 189.913 128.548C188.918 132.816 192.232 136.819 195.55 139.682C206.134 148.817 219.447 154.75 233.318 156.511C234.149 156.617 234.192 157.787 234.116 158.622C233.778 162.336 235.803 165.96 238.609 168.417C241.415 170.873 244.93 172.349 248.417 173.67C259.218 177.761 270.427 180.774 281.823 182.649C282.576 182.773 283.61 182.715 283.769 181.968C281.139 180.229 277.974 179.566 274.878 178.918C274.711 178.883 274.544 178.848 274.378 178.813C266.531 177.161 258.789 175.009 251.215 172.375C248.107 171.295 244.993 170.115 242.283 168.249C239.574 166.382 237.273 163.746 236.406 160.573C235.979 159.005 236.559 156.666 238.172 156.863C244.737 157.666 251.484 158.459 257.895 156.83C259.346 156.462 260.858 155.906 261.743 154.698C262.627 153.49 262.514 151.468 261.178 150.793ZM244.616 155.132C242.362 154.744 240.06 154.64 237.78 154.824C238.888 152.719 241.594 152.166 243.95 151.845C249.07 151.147 254.403 150.467 259.309 152.091C259.634 152.198 259.98 152.335 260.155 152.628C260.386 153.014 260.217 153.539 259.889 153.846C259.561 154.153 259.114 154.293 258.681 154.414C254.123 155.688 249.281 155.935 244.616 155.132ZM170.034 261.282C173.806 261.176 177.601 262.01 180.981 263.687C180.077 264.986 178.261 265.167 176.681 265.227L135.363 266.795C134.985 266.749 134.913 266.164 135.182 265.892C135.45 265.621 135.869 265.586 136.25 265.568L176.584 263.6C174.254 263.387 171.98 262.582 170.034 261.282ZM90.5202 124.636C89.9315 127.452 92.3137 130.456 95.1826 130.669C90.4912 137.739 82.0407 141.228 73.9211 143.691C68.8535 145.229 63.2321 146.491 58.4011 144.322C57.8015 144.688 58.4409 145.59 59.0738 145.895C63.7752 148.161 69.3491 146.899 74.3498 145.406C81.6835 143.218 89.2428 140.389 94.2331 134.586C94.4375 134.349 94.6411 134.104 94.8461 133.857C96.1304 132.314 97.4698 130.704 99.4008 130.347C105.618 129.197 110.796 125.303 115.913 121.455L115.913 121.455L115.913 121.455L115.913 121.455L115.913 121.455C117.074 120.582 118.231 119.712 119.396 118.877C126.48 113.799 134.338 109.803 142.613 107.067C143.344 106.825 144.233 106.377 144.168 105.61C133.908 106.552 124.94 112.67 116.67 118.816L116.394 119.021C110.774 123.199 104.902 127.565 97.9866 128.6C100.245 126.819 99.7685 122.702 97.22 121.368C94.6716 120.033 91.109 121.82 90.5202 124.636ZM92.4348 126.357C91.9736 124.991 92.6854 123.366 93.9503 122.674C94.3094 122.478 94.7112 122.347 95.1204 122.347C96.4712 122.345 97.4577 123.79 97.4666 125.141C97.4755 126.492 96.7907 127.737 96.1252 128.913C94.5685 128.675 92.9385 127.849 92.4348 126.357ZM245.962 96.2575C245.58 95.8317 245.698 95.2582 245.819 94.6641C245.905 94.2443 245.994 93.8142 245.909 93.4187C245.835 93.0758 245.635 92.7838 245.435 92.4909C245.257 92.2317 245.079 91.9718 244.988 91.6752C245.009 91.2833 245.533 91.0821 245.89 91.2447C246.247 91.4073 246.447 91.7908 246.572 92.163C247.027 93.5211 246.793 95.0908 245.962 96.2575ZM211.375 66.4555C212.331 64.1889 214.226 62.179 216.643 61.7189C217.425 61.57 217.4 60.2808 216.715 59.8755C216.03 59.4702 215.15 59.7098 214.431 60.0519C211.083 61.6455 208.969 65.1534 208.141 68.7676C207.313 72.3818 207.587 76.1459 207.866 79.8433L209.346 99.4967C209.396 100.165 209.457 100.867 209.83 101.424C210.587 102.559 212.213 102.595 213.575 102.508L220.47 102.07C218.937 100.869 216.881 100.364 214.966 100.717C213.848 100.924 212.725 100.187 212.133 99.2161C211.54 98.2458 211.367 97.0845 211.22 95.9571C210.259 88.5812 209.906 81.1262 210.167 73.6926C210.253 71.2341 210.419 68.722 211.375 66.4555ZM228.98 240.905C228.588 241.189 228.195 240.542 228.138 240.061C225.474 217.664 225.072 195.067 224.673 172.516L224.404 157.313C224.397 156.88 224.403 156.405 224.681 156.073C225.16 155.502 226.168 155.764 226.586 156.381C227.005 156.998 227.006 157.797 226.992 158.543C226.581 180.735 226.851 202.97 228.976 225.063C229.001 225.332 229.028 225.601 229.054 225.87C229.541 230.889 230.035 235.984 228.98 240.905ZM206.828 99.7267C206.244 99.4062 205.524 99.5876 204.886 99.7765C175.346 108.513 145.875 117.521 116.838 127.803C116.294 127.996 115.672 128.273 115.548 128.836C115.416 129.432 115.977 130.002 116.577 130.112C117.178 130.223 117.785 130.008 118.359 129.797C147.459 119.092 176.997 109.578 206.874 101.286C207.516 101.108 207.411 100.047 206.828 99.7267Z" fill="#00160A"/>
<path fill-rule="evenodd" clip-rule="evenodd" d="M312.072 233.368C311.384 233.67 310.64 233.951 309.899 233.824C309.159 233.696 308.467 233.001 308.615 232.265C309.975 225.533 308.268 218.243 304.061 212.815C302.586 210.912 300.831 209.238 299.395 207.307C298.489 206.09 297.684 204.56 298.143 203.115C298.796 201.058 301.427 200.557 303.581 200.411C308.586 200.069 313.591 199.728 318.597 199.387C320.903 199.23 323.56 199.207 325.099 200.931C329.385 205.731 337.738 206.054 342.381 201.598C343.099 200.908 344.004 202.281 343.976 203.276C343.886 206.406 342.596 209.487 340.429 211.747C339.918 212.28 339.264 212.802 338.529 212.726C337.794 212.649 337.252 211.594 337.838 211.144C339.095 210.179 340.375 209.189 341.256 207.872C342.137 206.555 342.565 204.828 341.964 203.361C338.731 207.452 335.466 211.518 332.171 215.559C326.459 222.565 320.349 229.732 312.072 233.368ZM321.1 212.75C320.278 212.978 319.401 212.803 318.58 212.571C312.672 210.902 307.229 206.286 301.186 207.366C308.233 213.041 311.974 222.556 310.68 231.511C315.322 230.517 318.989 227.051 322.277 223.626C327.144 218.556 331.766 213.251 336.12 207.734C332.99 207.709 329.872 206.806 327.213 205.155C323.928 205.968 324.362 211.848 321.1 212.75ZM325.391 203.43C323.434 201.122 319.917 201.194 316.903 201.458C312.972 201.804 309.041 202.149 305.11 202.494C303.514 202.634 301.681 202.914 300.849 204.284C307.652 205.708 314.286 207.945 320.562 210.932C321.37 208.397 322.988 206.126 325.121 204.535C325.361 204.356 325.635 204.127 325.603 203.829C325.587 203.677 325.49 203.546 325.391 203.43V203.43Z" fill="#FFB61D"/>
<path fill-rule="evenodd" clip-rule="evenodd" d="M33.9547 148.412C28.0339 146.044 20.9781 146.746 15.6401 150.234C15.1233 150.572 14.3803 150.196 14.1245 149.634C13.8687 149.072 13.9644 148.418 14.0952 147.815C15.8001 139.955 22.5917 133.941 30.1445 131.177C37.6974 128.414 45.9589 128.406 53.9877 128.878C54.7843 128.925 55.617 128.988 56.2966 129.406C56.9761 129.824 57.4333 130.719 57.0946 131.442C53.9363 138.179 51.5572 145.282 50.0198 152.562C49.7705 153.743 48.5494 154.526 47.3468 154.625C46.1442 154.723 44.9658 154.279 43.8745 153.764C40.4732 152.16 37.4463 149.808 33.9547 148.412ZM34.6315 140.459C34.1038 140.888 33.2791 140.661 32.7825 140.197C32.286 139.732 32.0031 139.089 31.6128 138.533C29.5194 135.546 24.7153 135.794 21.8677 138.073C19.0201 140.351 17.6421 143.951 16.3873 147.376C24.7415 143.747 35.0312 145.049 42.218 150.645C43.1992 151.409 44.1729 152.27 45.3812 152.564C46.5895 152.858 48.1116 152.329 48.4177 151.124C50.0527 144.685 52.0675 138.342 54.4482 132.14C49.8803 137.817 40.2873 135.864 34.6315 140.459ZM32.8136 137.028C33.2828 137.617 34.1345 137.773 34.876 137.64C35.6175 137.507 36.2912 137.138 36.9821 136.838C39.3607 135.804 41.9952 135.573 44.5454 135.1C47.0955 134.628 49.7259 133.827 51.5211 131.956C47.4706 131.943 43.4201 131.931 39.3697 131.919C35.2991 131.907 30.9126 131.993 27.6425 134.417C29.6332 134.49 31.5731 135.469 32.8136 137.028Z" fill="#FFB61D"/>
<path fill-rule="evenodd" clip-rule="evenodd" d="M224.177 147.869C224.167 144.306 224.158 140.743 224.148 137.18C224.145 136.157 224.142 135.134 224.14 134.111C224.138 133.405 224.256 132.522 224.927 132.303C225.434 132.137 225.992 132.501 226.229 132.98C226.466 133.458 226.464 134.015 226.456 134.548C226.382 139.52 226.308 144.492 226.234 149.464C226.223 150.179 226.103 151.059 225.434 151.31C224.317 150.677 224.18 149.152 224.177 147.869H224.177Z" fill="#00160A"/>
<path fill-rule="evenodd" clip-rule="evenodd" d="M217.064 144.571C216.548 144.797 216.282 143.948 216.362 143.39C216.647 141.395 216.933 139.396 217.418 137.44C217.72 136.222 218.156 134.941 219.162 134.191C220.167 133.441 221.894 133.572 222.387 134.726C222.625 135.285 222.526 135.924 222.416 136.522C221.739 140.223 220.827 143.881 219.688 147.467C219.639 147.619 219.586 147.778 219.471 147.888C219.191 148.157 218.685 147.976 218.49 147.64C218.296 147.303 218.321 146.889 218.352 146.501C218.815 146.467 219.031 145.923 219.143 145.472C219.597 143.631 220.051 141.79 220.505 139.948C220.859 138.516 221.181 136.884 220.359 135.659C219.514 136.179 219.196 137.231 218.945 138.191C218.439 140.122 217.933 142.053 217.427 143.984C217.367 144.215 217.282 144.475 217.064 144.571L217.064 144.571Z" fill="#00160A"/>
<defs>
<linearGradient id="paint0_linear" x1="183.507" y1="17.2324" x2="183.507" y2="246.751" gradientUnits="userSpaceOnUse">
<stop stop-color="#60CFF8"/>
<stop offset="1" stop-color="#0E4FBF" stop-opacity="0"/>
</linearGradient>
</defs>
</svg>
